<?xml version="1.0" encoding="utf-8"?>
<!-- (c) Bryan Schnabel 2008 -->
<svg xmlns="http://www.w3.org/2000/svg" 
     xmlns:x="http://ns.adobe.com/Extensibility/1.0/" 
     xmlns:i="http://ns.adobe.com/AdobeIllustrator/10.0/" 
     xmlns:graph="http://ns.adobe.com/Graphs/1.0/" 
     xmlns:xlink="http://www.w3.org/1999/xlink" 
     xmlns:a="http://ns.adobe.com/AdobeSVGViewerExtensions/3.0/" 
     width="287.888" height="294.75" 
     viewBox="0 0 287.888 294.75" 
     overflow="visible" 
     enable-background="new 0 0 287.888 294.75" 
     xml:space="preserve">
   <g id="Background">
   </g>
   <g id="Guides">
   </g>
   <g id="Foreground">
      <path fill-rule="evenodd" clip-rule="evenodd" fill="#655C53" d="M130.223,0c7.5,0,12,1.688,12,8.625     c0,1.875-2.25,6.375-2.25,8.25c0,2.719,2.25,9.469,2.25,11.625c0,2.531-5.25,30.75-5.25,39.375c0,6.563,0.841,16.735,0,23.246     l5.25,34.478v22.433c0,5.155,6.375,52.968,16.875,52.968c11.063,0,5.719-18.75,16.125-18.75c4.594,0,4.842,2.532,8.983,6.222     v16.56c0.017,9.469-5.233,5.625-5.233,17.719c0,16.5,14.25,15.375,14.25,44.25c0,14.531-10.125,27.75-23.625,27.75     c-1.875,0-2.25-0.75-24-0.75c-13.031,0-49.125-2.25-49.125-28.875c0-12,12-30.094,12-39.375c0-6.281-11.25-18.188-11.25-27.375     c0-15.094,7.528-13.683,16.763-22.107c3.539,0.455,9.32,4.546,13.427,7.532l-4.69-96.416V59.531c0-1.875-4.5-5.906-4.5-7.781     s1.5-1.406,1.549-3.281v-4.339c-0.424,0.121-1.174,0.871-2.939,0.761c-0.11-1.015-0.75-1.5-1.61-2.515     c1.61-1.765,4.006-2.606,6.01-3.086c-0.65-0.399-1.885-1.039-2.896-1.149v-5.038c1.012-0.103,0.262-0.853,2.137-0.853     s1.39,0.86,1.875,1.5c0.485-0.64,0.485-1.39,1.148-2.019V29.74c-0.663-0.6-2.163,0.15-2.948-0.721v-4.17     c1.05-0.098-0.075-0.848,1.8-0.848s1.765,0.86,2.25,1.5l1.189-1.292v-1.839c-0.439,0.132-1.939,0.132-3.705,0.022     c-0.11-1.765,0.68-4.183,1.568-5.834c1.697-0.056,1.865,1.483,3.137,2.199c0.545-0.645,0.435-0.38,0.435-2.255     c0-5.531-3.75,0.094-3.75-4.875c0-1.875,1.125-3.375,3-3.375s1.39,0.86,1.875,1.5c0.485-0.64-0.375-0.75-0.375-2.625     s0.86-0.265,1.528-0.606c-1.81,0.231-3.778,0.7-3.778-2.394C125.723,1.219,128.723,0,130.223,0z"/>
      <path fill-rule="evenodd" clip-rule="evenodd" fill="#A6988F" d="M127.348,146.361h14.018c0.107,1.013,1.607,1.388,1.607,3.263     s-0.75,1.5-0.875,2.529c-7.042-0.656-10.686-0.659-14.75-0.079V146.361z"/>
      <path fill-rule="evenodd" clip-rule="evenodd" fill="#A6988F" d="M147.778,180.779c1.085,0.831,0.444,2.596,0,4.471V180.779z"/>
      <path fill-rule="evenodd" clip-rule="evenodd" fill="#A6988F" d="M130.34,189.11c1.008-0.11,2.093,0.848,2.508,2.14     c0,0,0.375-0.375,0.485-1.39c1.015-0.11,0.265,1.39,2.14,1.39c1.5,0,6.004-0.421,9.565-2.197     c0.185,1.072,0.075,1.558,0.918,2.685c-4.416,1.008-10.108,0.263-15.616,0.167V189.11z"/>
      <path fill-rule="evenodd" clip-rule="evenodd" fill="#A6988F" d="M149.348,264c1.016,0.86,2.25,0.75,3.318,0.929     c0,0-0.053,1.212-1.068,2.071l-1.606-1.515c0,0-1.394,0.765-2.481,0.553L149.348,264z M142.333,256.61     c2.515-0.11,4.015,0.64,4.765,1.015c-0.75,0.375-0.75,0.375-2.625,0.375s-0.75,1.125-1.125,1.875     C142.973,259.125,142.223,257.625,142.333,256.61z M172.795,254.306c0.178,1.068-0.682,2.834-2.447,4.068     c0.484-1.015,0-1.125-1.097-1.355C170.082,255.86,170.93,255.04,172.795,254.306z M120.848,240.375h7.5H120.848z      M142.598,238.125h8.25H142.598z M172.598,223.125v6V223.125z M116.348,218.625v11.25V218.625z M132.098,214.875h6.75H132.098z      M130.598,211.125h5.25H130.598z M153.098,207.375h4.5H153.098z M181.598,207c0,1.875-1.164,3.543-2.336,5.241     C178.973,210.375,181.598,208.875,181.598,207z M132.475,179.588c4.123-0.339,7.964-0.327,11.245,0.832     C140.348,180.75,136.524,180.743,132.475,179.588z M129.029,178.529c1.084,0.831,1.569,0.721,3.194,0.831V183     c-0.5-1.125-1.14-2.359-1.625-3c-0.485,0.641-1.125,1.875-1.569,3V178.529z M132.098,158.625h10.5     C139.598,159,135.848,159,132.098,158.625z M127.337,153.102h16.165c0.311,1.532,0.221,12.366,0.221,14.147     c0,1.875,0.11,0.86,1.269,0.029c0.231,2.596-0.519,4.846-0.628,7.361c-5.515,0.109-10.765,0.109-15.649-0.186     c3.914,1.454-7.865,0.951,15.649,1.156c0.109,2.514,0.098,5.424,0.763,8.766c-5.582-0.63-11.482-0.629-17.174-0.13     c1.411,1.113,2.271,2.503,4.146,2.503s-0.75-1.5,1.125-1.442h11.885v2.847c-5.51,0.096-10.76,0.096-15.742-0.014v5.477     c1.232-0.117,6.181-1.737,7.317,2.143c0.4-0.649,1.15-1.399,2.041-2.238l7.138,0.861v2.073h-11.889     c-1.875,0.044,0.75-1.456-1.125-1.456s-1.765,1.391-2.164,0.741c0,0-0.461,0.384-0.553,1.639c5.02,0.625,10.217-0.13,15.725-0.02     v2.843h-9.164c-2.156,0.047-5.853-1.447-6.288-2.211v6.136c3.663-0.128,6.194,2.122,6.194,2.122c1.875,0-0.375-1.5,1.5-1.5     s1.015,1.61,1.5,2.25c0.485-0.64,0.375-1.125,0.485-2.14c2.515-0.11,5.515-0.86,7.424-0.642c-2.756-2.881-6.651,0.512-8.228-3.1     h6.521c0.884,1.589,2.215,2.921,3.548,3.631c0,0,0.484,0.11,1.13-0.314c-1.298-0.475-3.005-1.186-3.005-3.061     s0.75-6.75,1.125-9.75c0.375,1.5,0.313,3.542,1.477,5.627c0.438-1.294,0.398-3.377,0.773-4.877     c0.375,4.125,6.656,9.375,8.25,9.375c7.5,0,7.875-9.469,7.875-12c0-3.375,5.813-7.5,8.25-7.5c1.875,0,3.493,1.52,5.995,2.686     c-1.87,0.314-1.495,0.314-1.495,2.189c0,5.344-0.432,13.865,2.567,19.13c0.444-2.721,1.183-5.63,1.548-9.005     c0.853,9.544-5.615,17.719-5.99,28.125c-0.375-1.5-0.319-4.865-1.457-7.127c-0.438,1.996-1.168,4.877-1.168,6.752     s-0.039,3.208,0.375,4.5c0,0,0.375-0.375,0.75-1.125c0.375,0.75,0.266,1.766-0.375,2.25l1.151,1.127l1.499-1.5     c0.99,0.858,1.475,0.748,2.571,0.98c-0.831,1.158-1.472,1.643-1.501,2.25c0.67,0.628,1.42,0.628,1.904,1.268     c0.484-0.64,0.484-0.859,0-1.875c1.016,0.485,1.875,1.125,1.875,3s-0.859,0.266-1.5,0.75c0.641,0.485,2.242,0.675,2.242,0.675     l-1.494,1.606c8.819,10.227,10.502,18.25,10.502,28.094c0,1.875-2.25,10.5-2.25,12.375c0,10.032-17.344,15.375-21.375,15.375     c-1.875,0-2.25-0.75-24-0.75c-13.031,0-49.125-2.25-49.125-28.875c0-1.875,3-11.625,3-13.5s9-18.844,9-25.875     c0-6.281-11.25-21.563-11.25-27.375c0-12.844,7.656-8.551,16.72-22.092c4.331,0.533,9.38,4.167,13.515,7.494     c0.52-4.213,0.52-8.59-0.146-13.46h15.661c1.875-0.067,0.64,0.793,1.268,1.446v-2.551c-0.408-0.572-1.643,0.287-15.408,0.178     c-0.11-1.766,0.009-4.289,0.009-4.289c12.256-0.102,14.881,0.273,14.65,0.678c0.341-0.669,0.231-1.154,0.323-1.658     c-5.02-0.624-10.17-0.623-15.72-0.059v-4.959c1.003-0.104,2.167,0.104,2.883-1.168c-0.645-0.545-1.88-0.436-3.641-0.536V153.102z      M141.098,128.625v5.25V128.625z M125.083,105.914h15.512c-3.05,4.105-1.669,17.009-0.307,18.591     c0.475-1.297,0.435-2.63,0.793-4.504c1.141,8.591,1.141,16.909,0.256,25.414c-7.776-0.666-10.659-0.672-13.925-0.091v-6.547     c1.201,0.834,0.561,1.474,2.436,1.474c1.781,0,8.579,0.363,11.637-1.781c-4.198-0.474-9.387-0.469-14.152-0.579     c-0.11-3.64-1.583-3.501-2.319-5.686c3.243-0.943,7.459-0.205,9.334-0.205s3.631-0.731,5.625-1.102     c-3.449-0.406-7.875-0.398-13.391-0.508c-0.11-1.765-0.07-3.097-0.545-4.395c-0.425,0.645-0.315,1.13-0.69,1.88     c-0.375-0.75-0.265-1.235-1.125-2.264c4.255-3.833,9.513,0.567,15.021-3.542h-12.663c-0.108-0.945-0.105-2.392-0.741-7.967     c4.081,0.655,8.446,0.653,12.633,0.267c-3.449-0.376-7.937-0.374-12.598-1.192c-0.207-0.321,0.982-2.409-1.648-3.997     C125.083,108.11,124.973,106.875,125.083,105.914z M131.605,51.86v2.794c-1.008,0.096-1.383,0.471-1.758,1.221     c-0.375-0.75-0.265-1.985-0.69-2.63c0,0-0.435,0.38-0.724,1.495c0,0-1.211-1.115-1.101-2.13     C128.348,52.5,129.098,51.75,131.605,51.86z M126.468,48.315c-0.855,1.075-2.62,1.935-4.12,1.56     c0.75-0.375,1.235-0.265,1.88-0.81c-0.715-1.272-2.215-2.022-2.895-3.955C123.265,45.79,124.765,47.29,126.468,48.315z      M126.144,29.253l3.321,1.043c-0.852,1.094-1.867,1.204-2.913,1.06c0,0,0.682-0.14,0.551-1.375c0,0-0.74,0.66-1.965,1.456     C125.138,31.436,125.348,29.25,126.144,29.253z M138.098,28.875v3.75V28.875z M134.527,24c1.656,1.707,1.656,3.957,2.29,5.929     c-1.234-0.789-2.844-1.804-2.29-3.679V24z M131.9,16.556c0,0,0.947,0.694,1.697,1.069c-0.75,0.375-2.25,1.125-3.75,0.75     C130.598,18,131.723,17.625,131.9,16.556z M135.202,9.015c0.271,5.141,4.349,4.028,0.27,7.131l2.215,2.387     c-1.09,0.217-1.84,1.717-2.894,1.561c0.698-2.588-0.071-4.719-0.071-6.594s-2.89-2.36-3.722-3.519     C131.629,9.75,133.469,11.236,135.202,9.015z M135.473,6.375c-0.86,1.015-0.75,1.5-0.86,2.401h-2.889     c1.482-0.884,0.74-0.939,2.296-1.834c-0.048-0.567-1.173-0.942-1.923-1.317C133.598,5.25,134.613,5.36,135.473,6.375z M130.973,0     c8.438,0,11.25,4.969,11.25,10.875c0,1.969-3.75,2.063-3.75,5.625c0,3.469,0.078,6.51,3.713,8.462     c-2.033,10.549-6.434,24.213-5.234,34.786c-0.839,0.892-0.73,1.354-0.1,13.653c-4.808-0.561-9.007-2.431-13.403,1.092     c4.149-0.243,8.649-0.243,13.403-0.144c0.87,9.245,0.868,18.6,2.279,29.772c-6.283,0.128-10.033,0.128-14.048,0.019     c-0.11-2.515-0.091-5.396-0.789-7.984c4.804-0.156,9.243-0.15,13.438-0.609c-4.341-2.609-8.777,0.05-13.383-1.963V84.05     c4.645,2.244,9.596,2.269,12.633,0.402c-3.457-0.46-7.883-0.453-12.633-0.548c-0.873-6.988-0.873-14.492-1.354-22.39     c0,0,0.37,0.845,0.854,1.485c0.485-0.64,0.375,0.375,0.375-1.5s-1.46-0.957-2.194-2.822c1.819-0.178,4.069-0.178,12.837-0.068     v-3.917c-2.584,1.696-0.611,0.057-2.018,0.057c-1.875,0-1.333,1.46-4.697,2.944c-0.178-2.569-1.568-5.304-2.659-6.722     c0.231,1.153-0.519,2.653-0.894,4.153c-0.375-1.5-0.335-2.832-0.724-4.126c-0.42,1.995-1.261,4.391-3.086,5.996     c-0.369-0.39-0.108-2.66-2.509-3.923c-0.056-0.947,1.554-1.212,2.199-1.637c0,0-0.38-0.435-1.472-0.657     c1.657-2.185,0.483-1.946,2.228-3.242c-1.479-3.134-3.463-2.458-6.006-5.221c1.702-1.025,2.245-2.565,4.12-2.565     s1.765,0.86,2.25,1.5c0.485-0.64,0.485-1.39,1.13-1.815c-1.298-0.475-2.63-1.185-4.434-1.295v-4.17l1.688-1.702     c0.866-0.019,1.881,1.372,1.213,1.713c4.528-0.231,0.955-0.549,3.544-2.26v-3.993c-0.625,0.662-1.375,1.412-2.391,2.272     l-1.844-1.751v-2.542l1.874-1.706c0.986,0.859,0.346,1.499,2.221,1.499s-0.375-1.5,1.5-1.5s-1.125,1.5,0.75,1.5     s1.5-1.5,2.597-1.269c-0.832,1.159-0.832,1.909-1.477,2.333c0,0-0.745,0.435,1.13,0.435s1.985-0.64,2.649-1.269v-2.734     l-1.182-1.249c-0.453,0.642-0.718,1.501-2.593,1.501s0-2.25-1.875-2.25s-1.5,1.5-2.394,1.472     c-0.872-0.832-1.731-1.097-1.731-2.972s0.86-2.14,1.852-2.999c2.41,1.766,1.544,1.746,2.361,3.01     c1.244-0.721,1.827-2.803,2.542-4.076c-1.395-1.295-3.692-1.352-5.253-3.847c0.858-0.979,1.608-2.479,2.623-3.338     c1.015,0.86,1.015,1.61,2.394,3.029c0.606-0.029,0.981-1.154,1.271-3.019c0,0,0.351,0.85,0.836,1.49     c0.485-0.64,0.375,0.375,0.375-1.5c0-2.531-2.038-2.438-5.181-2.351V3.255C126.528,1.96,129.941,0,130.973,0z"/>
      <path fill-rule="evenodd" clip-rule="evenodd" fill="#A6988F" d="M149.348,264c1.016,0.86,2.25,0.75,3.318,0.929     c0,0-0.053,1.212-1.068,2.071l-1.606-1.515c0,0-1.394,0.765-2.481,0.553L149.348,264z"/>
      <path fill-rule="evenodd" clip-rule="evenodd" fill="#A6988F" d="M142.333,256.61c2.515-0.11,4.015,0.64,4.765,1.015     c-0.75,0.375-0.75,0.375-2.625,0.375s-0.75,1.125-1.125,1.875C142.973,259.125,142.223,257.625,142.333,256.61z"/>
      <path fill-rule="evenodd" clip-rule="evenodd" fill="#A6988F" d="M172.795,254.306c0.178,1.068-0.682,2.834-2.447,4.068     c0.484-1.015,0-1.125-1.097-1.355C170.082,255.86,170.93,255.04,172.795,254.306z"/>
      <path fill-rule="evenodd" clip-rule="evenodd" fill="#A6988F" d="M120.848,240.375h7.5H120.848z"/>
      <path fill-rule="evenodd" clip-rule="evenodd" fill="#A6988F" d="M142.598,238.125h8.25H142.598z"/>
      <path fill-rule="evenodd" clip-rule="evenodd" fill="#A6988F" d="M172.598,223.125v6V223.125z"/>
      <path fill-rule="evenodd" clip-rule="evenodd" fill="#A6988F" d="M116.348,218.625v11.25V218.625z"/>
      <path fill-rule="evenodd" clip-rule="evenodd" fill="#A6988F" d="M132.098,214.875h6.75H132.098z"/>
      <path fill-rule="evenodd" clip-rule="evenodd" fill="#A6988F" d="M130.598,211.125h5.25H130.598z"/>
      <path fill-rule="evenodd" clip-rule="evenodd" fill="#A6988F" d="M153.098,207.375h4.5H153.098z"/>
      <path fill-rule="evenodd" clip-rule="evenodd" fill="#A6988F" d="M181.598,207c0,1.875-1.164,3.543-2.336,5.241     C178.973,210.375,181.598,208.875,181.598,207z"/>
      <path fill-rule="evenodd" clip-rule="evenodd" fill="#A6988F" d="M132.475,179.588c4.123-0.339,7.964-0.327,11.245,0.832     C140.348,180.75,136.524,180.743,132.475,179.588z"/>
      <path fill-rule="evenodd" clip-rule="evenodd" fill="#A6988F" d="M129.029,178.529c1.084,0.831,1.569,0.721,3.194,0.831V183     c-0.5-1.125-1.14-2.359-1.625-3c-0.485,0.641-1.125,1.875-1.569,3V178.529z"/>
      <path fill-rule="evenodd" clip-rule="evenodd" fill="#A6988F" d="M132.098,158.625h10.5C139.598,159,135.848,159,132.098,158.625     z"/>
      <path fill-rule="evenodd" clip-rule="evenodd" fill="#A6988F" d="M127.337,153.102h16.165c0.311,1.532,0.221,12.366,0.221,14.147     c0,1.875,0.11,0.86,1.269,0.029c0.231,2.596-0.519,4.846-0.628,7.361c-5.515,0.109-10.765,0.109-15.649-0.186     c3.914,1.454-7.865,0.951,15.649,1.156c0.109,2.514,0.098,5.424,0.763,8.766c-5.582-0.63-11.482-0.629-17.174-0.13     c1.411,1.113,2.271,2.503,4.146,2.503s-0.75-1.5,1.125-1.442h11.885v2.847c-5.51,0.096-10.76,0.096-15.742-0.014v5.477     c1.232-0.117,6.181-1.737,7.317,2.143c0.4-0.649,1.15-1.399,2.041-2.238l7.138,0.861v2.073h-11.889     c-1.875,0.044,0.75-1.456-1.125-1.456s-1.765,1.391-2.164,0.741c0,0-0.461,0.384-0.553,1.639c5.02,0.625,10.217-0.13,15.725-0.02     v2.843h-9.164c-2.156,0.047-5.853-1.447-6.288-2.211v6.136c3.663-0.128,6.194,2.122,6.194,2.122c1.875,0-0.375-1.5,1.5-1.5     s1.015,1.61,1.5,2.25c0.485-0.64,0.375-1.125,0.485-2.14c2.515-0.11,5.515-0.86,7.424-0.642c-2.756-2.881-6.651,0.512-8.228-3.1     h6.521c0.884,1.589,2.215,2.921,3.548,3.631c0,0,0.484,0.11,1.13-0.314c-1.298-0.475-3.005-1.186-3.005-3.061     s0.75-6.75,1.125-9.75c0.375,1.5,0.313,3.542,1.477,5.627c0.438-1.294,0.398-3.377,0.773-4.877     c0.375,4.125,6.656,9.375,8.25,9.375c7.5,0,7.875-9.469,7.875-12c0-3.375,5.813-7.5,8.25-7.5c1.875,0,3.493,1.52,5.995,2.686     c-1.87,0.314-1.495,0.314-1.495,2.189c0,5.344-0.432,13.865,2.567,19.13c0.444-2.721,1.183-5.63,1.548-9.005     c0.853,9.544-5.615,17.719-5.99,28.125c-0.375-1.5-0.319-4.865-1.457-7.127c-0.438,1.996-1.168,4.877-1.168,6.752     s-0.039,3.208,0.375,4.5c0,0,0.375-0.375,0.75-1.125c0.375,0.75,0.266,1.766-0.375,2.25l1.151,1.127l1.499-1.5     c0.99,0.858,1.475,0.748,2.571,0.98c-0.831,1.158-1.472,1.643-1.501,2.25c0.67,0.628,1.42,0.628,1.904,1.268     c0.484-0.64,0.484-0.859,0-1.875c1.016,0.485,1.875,1.125,1.875,3s-0.859,0.266-1.5,0.75c0.641,0.485,2.242,0.675,2.242,0.675     l-1.494,1.606c8.819,10.227,10.502,18.25,10.502,28.094c0,1.875-2.25,10.5-2.25,12.375c0,10.032-17.344,15.375-21.375,15.375     c-1.875,0-2.25-0.75-24-0.75c-13.031,0-49.125-2.25-49.125-28.875c0-1.875,3-11.625,3-13.5s9-18.844,9-25.875     c0-6.281-11.25-21.563-11.25-27.375c0-12.844,7.656-8.551,16.72-22.092c4.331,0.533,9.38,4.167,13.515,7.494     c0.52-4.213,0.52-8.59-0.146-13.46h15.661c1.875-0.067,0.64,0.793,1.268,1.446v-2.551c-0.408-0.572-1.643,0.287-15.408,0.178     c-0.11-1.766,0.009-4.289,0.009-4.289c12.256-0.102,14.881,0.273,14.65,0.678c0.341-0.669,0.231-1.154,0.323-1.658     c-5.02-0.624-10.17-0.623-15.72-0.059v-4.959c1.003-0.104,2.167,0.104,2.883-1.168c-0.645-0.545-1.88-0.436-3.641-0.536V153.102z     "/>
      <path fill-rule="evenodd" clip-rule="evenodd" fill="#A6988F" d="M141.098,128.625v5.25V128.625z"/>
      <path fill-rule="evenodd" clip-rule="evenodd" fill="#A6988F" d="M125.083,105.914h15.512c-3.05,4.105-1.669,17.009-0.307,18.591     c0.475-1.297,0.435-2.63,0.793-4.504c1.141,8.591,1.141,16.909,0.256,25.414c-7.776-0.666-10.659-0.672-13.925-0.091v-6.547     c1.201,0.834,0.561,1.474,2.436,1.474c1.781,0,8.579,0.363,11.637-1.781c-4.198-0.474-9.387-0.469-14.152-0.579     c-0.11-3.64-1.583-3.501-2.319-5.686c3.243-0.943,7.459-0.205,9.334-0.205s3.631-0.731,5.625-1.102     c-3.449-0.406-7.875-0.398-13.391-0.508c-0.11-1.765-0.07-3.097-0.545-4.395c-0.425,0.645-0.315,1.13-0.69,1.88     c-0.375-0.75-0.265-1.235-1.125-2.264c4.255-3.833,9.513,0.567,15.021-3.542h-12.663c-0.108-0.945-0.105-2.392-0.741-7.967     c4.081,0.655,8.446,0.653,12.633,0.267c-3.449-0.376-7.937-0.374-12.598-1.192c-0.207-0.321,0.982-2.409-1.648-3.997     C125.083,108.11,124.973,106.875,125.083,105.914z"/>
      <path fill-rule="evenodd" clip-rule="evenodd" fill="#A6988F" d="M131.605,51.86v2.794c-1.008,0.096-1.383,0.471-1.758,1.221     c-0.375-0.75-0.265-1.985-0.69-2.63c0,0-0.435,0.38-0.724,1.495c0,0-1.211-1.115-1.101-2.13     C128.348,52.5,129.098,51.75,131.605,51.86z"/>
      <path fill-rule="evenodd" clip-rule="evenodd" fill="#A6988F" d="M126.468,48.315c-0.855,1.075-2.62,1.935-4.12,1.56     c0.75-0.375,1.235-0.265,1.88-0.81c-0.715-1.272-2.215-2.022-2.895-3.955C123.265,45.79,124.765,47.29,126.468,48.315z"/>
      <path fill-rule="evenodd" clip-rule="evenodd" fill="#A6988F" d="M126.144,29.253l3.321,1.043     c-0.852,1.094-1.867,1.204-2.913,1.06c0,0,0.682-0.14,0.551-1.375c0,0-0.74,0.66-1.965,1.456     C125.138,31.436,125.348,29.25,126.144,29.253z"/>
      <path fill-rule="evenodd" clip-rule="evenodd" fill="#A6988F" d="M138.098,28.875v3.75V28.875z"/>
      <path fill-rule="evenodd" clip-rule="evenodd" fill="#A6988F" d="M134.527,24c1.656,1.707,1.656,3.957,2.29,5.929     c-1.234-0.789-2.844-1.804-2.29-3.679V24z"/>
      <path fill-rule="evenodd" clip-rule="evenodd" fill="#A6988F" d="M131.9,16.556c0,0,0.947,0.694,1.697,1.069     c-0.75,0.375-2.25,1.125-3.75,0.75C130.598,18,131.723,17.625,131.9,16.556z"/>
      <path fill-rule="evenodd" clip-rule="evenodd" fill="#A6988F" d="M135.202,9.015c0.271,5.141,4.349,4.028,0.27,7.131l2.215,2.387     c-1.09,0.217-1.84,1.717-2.894,1.561c0.698-2.588-0.071-4.719-0.071-6.594s-2.89-2.36-3.722-3.519     C131.629,9.75,133.469,11.236,135.202,9.015z"/>
      <path fill-rule="evenodd" clip-rule="evenodd" fill="#A6988F" d="M135.473,6.375c-0.86,1.015-0.75,1.5-0.86,2.401h-2.889     c1.482-0.884,0.74-0.939,2.296-1.834c-0.048-0.567-1.173-0.942-1.923-1.317C133.598,5.25,134.613,5.36,135.473,6.375z"/>
      <path fill-rule="evenodd" clip-rule="evenodd" fill="#A6988F" d="M130.973,0c8.438,0,11.25,4.969,11.25,10.875     c0,1.969-3.75,2.063-3.75,5.625c0,3.469,0.078,6.51,3.713,8.462c-2.033,10.549-6.434,24.213-5.234,34.786     c-0.839,0.892-0.73,1.354-0.1,13.653c-4.808-0.561-9.007-2.431-13.403,1.092c4.149-0.243,8.649-0.243,13.403-0.144     c0.87,9.245,0.868,18.6,2.279,29.772c-6.283,0.128-10.033,0.128-14.048,0.019c-0.11-2.515-0.091-5.396-0.789-7.984     c4.804-0.156,9.243-0.15,13.438-0.609c-4.341-2.609-8.777,0.05-13.383-1.963V84.05c4.645,2.244,9.596,2.269,12.633,0.402     c-3.457-0.46-7.883-0.453-12.633-0.548c-0.873-6.988-0.873-14.492-1.354-22.39c0,0,0.37,0.845,0.854,1.485     c0.485-0.64,0.375,0.375,0.375-1.5s-1.46-0.957-2.194-2.822c1.819-0.178,4.069-0.178,12.837-0.068v-3.917     c-2.584,1.696-0.611,0.057-2.018,0.057c-1.875,0-1.333,1.46-4.697,2.944c-0.178-2.569-1.568-5.304-2.659-6.722     c0.231,1.153-0.519,2.653-0.894,4.153c-0.375-1.5-0.335-2.832-0.724-4.126c-0.42,1.995-1.261,4.391-3.086,5.996     c-0.369-0.39-0.108-2.66-2.509-3.923c-0.056-0.947,1.554-1.212,2.199-1.637c0,0-0.38-0.435-1.472-0.657     c1.657-2.185,0.483-1.946,2.228-3.242c-1.479-3.134-3.463-2.458-6.006-5.221c1.702-1.025,2.245-2.565,4.12-2.565     s1.765,0.86,2.25,1.5c0.485-0.64,0.485-1.39,1.13-1.815c-1.298-0.475-2.63-1.185-4.434-1.295v-4.17l1.688-1.702     c0.866-0.019,1.881,1.372,1.213,1.713c4.528-0.231,0.955-0.549,3.544-2.26v-3.993c-0.625,0.662-1.375,1.412-2.391,2.272     l-1.844-1.751v-2.542l1.874-1.706c0.986,0.859,0.346,1.499,2.221,1.499s-0.375-1.5,1.5-1.5s-1.125,1.5,0.75,1.5     s1.5-1.5,2.597-1.269c-0.832,1.159-0.832,1.909-1.477,2.333c0,0-0.745,0.435,1.13,0.435s1.985-0.64,2.649-1.269v-2.734     l-1.182-1.249c-0.453,0.642-0.718,1.501-2.593,1.501s0-2.25-1.875-2.25s-1.5,1.5-2.394,1.472     c-0.872-0.832-1.731-1.097-1.731-2.972s0.86-2.14,1.852-2.999c2.41,1.766,1.544,1.746,2.361,3.01     c1.244-0.721,1.827-2.803,2.542-4.076c-1.395-1.295-3.692-1.352-5.253-3.847c0.858-0.979,1.608-2.479,2.623-3.338     c1.015,0.86,1.015,1.61,2.394,3.029c0.606-0.029,0.981-1.154,1.271-3.019c0,0,0.351,0.85,0.836,1.49     c0.485-0.64,0.375,0.375,0.375-1.5c0-2.531-2.038-2.438-5.181-2.351V3.255C126.528,1.96,129.941,0,130.973,0z"/>
      <path fill-rule="evenodd" clip-rule="evenodd" fill="#C7CBD6" d="M127.454,0.779c0.894-0.029,1.811,0.761,2.811,1.673     c-1.25-0.246-1.153,1.629-0.08,3.385h-4.358C125.723,3.375,126.583,1.61,127.454,0.779z"/>
      <path fill-rule="evenodd" clip-rule="evenodd" fill="#C7CBD6" d="M126.098,8.25c1.015,0.86,2.625,1.5,2.625,3.375     s-0.75,1.5-0.86,2.552h-2.677c-0.854-0.787-1.713-0.677-1.713-2.552S125.083,9.11,126.098,8.25z"/>
      <path fill-rule="evenodd" clip-rule="evenodd" fill="#C7CBD6" d="M131.348,13.875c0.375,0.75-1.875,0-1.875,1.875     s1.39,0.86,2.222,2.019c-1.097,0.231-2.112,0.122-2.857-0.75v-2.726c0,0,1.275,0.067,1.7,0.712     C130.538,15.005,130.973,14.625,131.348,13.875z"/>
      <path fill-rule="evenodd" clip-rule="evenodd" fill="#C7CBD6" d="M125.613,16.599c0.11,1.776,0.82,4.194-0.068,5.809h-2.729     c-0.093-1.783-0.829-3.011,0.041-5.809H125.613z"/>
      <path fill-rule="evenodd" clip-rule="evenodd" fill="#C7CBD6" d="M122.348,24c1.015,0.86,1.5,1.5,2.597,1.731     c-0.832,1.159-0.722,2.394-0.778,3.341c0,0-0.804,0.068-1.819,0.928c-1.015-0.86-1.875-1.125-1.875-3S121.333,24.86,122.348,24z"/>
      <path fill-rule="evenodd" clip-rule="evenodd" fill="#C7CBD6" d="M121.917,32.428c0,0-0.694-0.178-0.694,1.697     s1.5-0.75,1.5,1.125c0,0.281-0.75,0.75-0.86,3.64c-1.015,0.11-2.515-0.64-3.569-0.75v-4.17     C119.083,33.11,120.098,32.25,121.917,32.428z"/>
      <path fill-rule="evenodd" clip-rule="evenodd" fill="#C7CBD6" d="M124.741,37.529c0.231,1.096-0.628,1.361-1.269,1.846     l1.892,1.875c0.468-0.641,1.218-0.86,0.876-1.529c0.231,1.153-0.894,2.278-2.659,2.168c-0.11-1.015-0.86-0.265-0.86-2.14     S123.583,38.36,124.741,37.529z"/>
      <path fill-rule="evenodd" clip-rule="evenodd" fill="#C7CBD6" d="M117.704,39.829h2.664v5.102h-2.682l-2.426-2.717     C116.348,42,116.833,40.61,117.704,39.829z"/>
      <path fill-rule="evenodd" clip-rule="evenodd" fill="#C7CBD6" d="M129.098,53.625c0.375,0.75,0.265,1.985,0.69,2.63     c0,0,0.435-0.38,0.724-1.495c0,0,1.211,0.365,1.101,2.13c-1.015,0.11-2.515,0.86-3.53,0.75     C127.973,55.125,128.723,54.375,129.098,53.625z"/>
      <path fill-rule="evenodd" clip-rule="evenodd" fill="#C7CBD6" d="M141.074,120.001c1.146,6.328,1.148,13.124,0.773,19.874     C141.473,133.875,140.723,127.125,141.074,120.001z"/>
      <path fill-rule="evenodd" clip-rule="evenodd" fill="#C7CBD6" d="M125.348,130.125c0.375,1.5,1.125,3,0.836,4.865     C125.012,133.293,124.973,131.625,125.348,130.125z"/>
      <path fill-rule="evenodd" clip-rule="evenodd" fill="#C7CBD6" d="M144.704,167.972c-0.341,0.668,0.519,1.902,0.144,3.402     C144.473,170.625,144.473,169.125,144.704,167.972z"/>
      <path fill-rule="evenodd" clip-rule="evenodd" fill="#C7CBD6" d="M147.778,180.779c1.085,0.831,0.444,2.596,0,4.471V180.779z"/>
      <path fill-rule="evenodd" clip-rule="evenodd" fill="#C7CBD6" d="M183.885,197.999c0.338,4.876-1.912,13.501-1.912,15.376     c0,0.656-3.75,4.875-4.075,12.372C175.236,217.318,185.073,205.76,183.885,197.999z"/>
      <path fill-rule="evenodd" clip-rule="evenodd" fill="#C7CBD6" d="M174.473,272.25c0,1.875-1.5,1.875-1.609,3.634h-2.795     c-0.096-1.009-0.471-1.384-1.583-1.659C173.25,271.083,174.473,272.531,174.473,272.25z M149.348,264     c1.016,0.86,2.25,0.75,3.318,0.929c0,0-0.053,1.212-1.068,2.071l-1.606-1.515c0,0-1.394,0.765-2.481,0.553L149.348,264z      M142.333,256.61c2.515-0.11,4.015,0.64,4.765,1.015c-0.75,0.375-0.75,0.375-2.625,0.375s-0.75,1.125-1.125,1.875     C142.973,259.125,142.223,257.625,142.333,256.61z M171.848,253.5c1.086,1.708,0.375,3.375,0.266,5.134h-2.795     C169.223,256.875,170.762,255.208,171.848,253.5z M156.473,240.75c1.875,0,0.75-1.5,2.625-1.5s3,1.5,4.5,2.009h-9.266     C154.223,240.375,154.598,240.75,156.473,240.75z M142.598,238.125c3.75-0.375,8.341-0.363,11.615,0.833     C150.023,238.493,146.348,238.5,142.598,238.125z M118.479,237.019c1.958,3.384,6.296,3.074,9.495,3.324     C124.993,240.086,119.167,242.044,118.479,237.019z M135.848,232.125v5.25V232.125z M138.098,223.125v5.25V223.125z      M135.098,223.125v7.5V223.125z M132.735,220.5c-0.265,5.667,0.488,11.625,0.113,16.875     C132.473,235.125,132.473,232.878,132.735,220.5z M116.348,218.625v11.25V218.625z M130.333,214.746h8.89     c-2.625,0.504-4.875,0.504-7.748,0.395v4.609C130.973,217.875,130.223,215.625,130.333,214.746z M116.996,213.375     c0.477,1.875,2.508,3.061,0,4.066V213.375z M175.973,214.125c0,1.875-3,10.5-3,12.375s1.473,7.736,2.848,11.927     c-1.395-0.759-4.348-10.146-4.348-12.677c0-1.875,0.75-5.25,0.75-7.125c0-0.281,0.688-2.624,3-4.511     c-0.641-0.474-2.141-1.004-0.231-2.585C175.223,212.625,175.973,212.25,175.973,214.125z M151.174,213.561     c-7.216-2.557-13.826-2.062-20.923-2.292c0.832-1.159,2.597-0.52,15.355-0.52C147.677,210.844,149.106,211.577,151.174,213.561z      M150.628,206.321c2.588,0.698,5.47,0.679,7.72,1.054c-1.5,0.375-2.625,1.125-4.5,1.125S150.473,207.375,150.628,206.321z      M164.594,202.591c-0.509,1.259-3.891,4.775-5.869,4.079C160.43,205.54,162.582,204.11,164.594,202.591z M122.348,199.125     c-0.415,1.668-1.165,3.918-2.336,5.616C119.723,202.875,121.262,200.458,122.348,199.125z M172.973,187.5     c5.531,0,6,13.219,6,13.5c0,1.875-0.75,5.625-1.125,7.875c-0.375-0.75-1.016-1.984-1.847-2.855     c-0.028-0.895,1.097-0.52,2.276-0.409v-8.829c-0.055-1.406-3.104-8.346-7.555-8.178C171.098,188.25,171.098,187.5,172.973,187.5z      M113.916,176.296c3.608,0.426,10.397,5.684,14.727,6.848c0.08,1.73,0.83,4.355,0.83,6.23c0,3.094-0.204,1.859-4.526,5.863     c2.196-0.144,1.449,0.941,2.676,2.764c0.459-0.642,0.459-1.392,1.618-2.223c0.231,4.096,0.981,8.596,0.872,12.831     c0.579-0.11,0.715,0.372,1.818-1.571c4.729,0.717,11.792,1.461,13.667,1.461s2.792-2.937,4.875-4.101     c-1.293-0.438-3-1.149-3-3.024s0.75-6.75,1.125-9.75c0.375,1.5,0.313,3.542,1.477,5.627c0.438-1.294,0.398-3.377,0.773-4.877     c0.375,4.125,6.656,9.375,8.25,9.375c7.5,0,7.875-9.375,7.875-12.375c0-1.875,7.5-7.125,9.375-7.125     c4.031,0,4.875,16.781,4.875,17.25c0,9.094-6,19.781-6,25.5c0,1.875-0.039,3.208,0.375,4.5c0,0,0.375-0.375,0.75-1.125     c0.375,0.75,0.266,1.766-0.375,2.25l1.151,1.127l1.535-1.496c3.251,4.661,9.313,14.244,9.313,16.119     c0,3.563,5.25,16.5,5.25,20.625c0,3.281,0.408,10.384-3.818,11.841c0.068,0.534,0.178,1.02,1.372,0.205     c-1.124,6.595-14.147,15.704-21.179,15.704c-1.875,0-2.25-0.75-24-0.75c-13.031,0-49.125-2.25-49.125-28.875     c0-8.625,12-30.094,12-39.375c0-6.938-8.25-14.719-8.25-19.5c0-1.875-0.11-0.859-1.344-0.07c0,0,0.594,0.07,0.594-1.805     s-0.11-1.234-1.287-0.411c0.352-5.628-1.747-11.229,1.535-16.292C103.845,181.296,111.318,181.91,113.916,176.296z"/>
      <path fill-rule="evenodd" clip-rule="evenodd" fill="#C7CBD6" d="M174.473,272.25c0,1.875-1.5,1.875-1.609,3.634h-2.795     c-0.096-1.009-0.471-1.384-1.583-1.659C173.25,271.083,174.473,272.531,174.473,272.25z"/>
      <path fill-rule="evenodd" clip-rule="evenodd" fill="#C7CBD6" d="M149.348,264c1.016,0.86,2.25,0.75,3.318,0.929     c0,0-0.053,1.212-1.068,2.071l-1.606-1.515c0,0-1.394,0.765-2.481,0.553L149.348,264z"/>
      <path fill-rule="evenodd" clip-rule="evenodd" fill="#C7CBD6" d="M142.333,256.61c2.515-0.11,4.015,0.64,4.765,1.015     c-0.75,0.375-0.75,0.375-2.625,0.375s-0.75,1.125-1.125,1.875C142.973,259.125,142.223,257.625,142.333,256.61z"/>
      <path fill-rule="evenodd" clip-rule="evenodd" fill="#C7CBD6" d="M171.848,253.5c1.086,1.708,0.375,3.375,0.266,5.134h-2.795     C169.223,256.875,170.762,255.208,171.848,253.5z"/>
      <path fill-rule="evenodd" clip-rule="evenodd" fill="#C7CBD6" d="M156.473,240.75c1.875,0,0.75-1.5,2.625-1.5s3,1.5,4.5,2.009     h-9.266C154.223,240.375,154.598,240.75,156.473,240.75z"/>
      <path fill-rule="evenodd" clip-rule="evenodd" fill="#C7CBD6" d="M142.598,238.125c3.75-0.375,8.341-0.363,11.615,0.833     C150.023,238.493,146.348,238.5,142.598,238.125z"/>
      <path fill-rule="evenodd" clip-rule="evenodd" fill="#C7CBD6" d="M118.479,237.019c1.958,3.384,6.296,3.074,9.495,3.324     C124.993,240.086,119.167,242.044,118.479,237.019z"/>
      <path fill-rule="evenodd" clip-rule="evenodd" fill="#C7CBD6" d="M135.848,232.125v5.25V232.125z"/>
      <path fill-rule="evenodd" clip-rule="evenodd" fill="#C7CBD6" d="M138.098,223.125v5.25V223.125z"/>
      <path fill-rule="evenodd" clip-rule="evenodd" fill="#C7CBD6" d="M135.098,223.125v7.5V223.125z"/>
      <path fill-rule="evenodd" clip-rule="evenodd" fill="#C7CBD6" d="M132.735,220.5c-0.265,5.667,0.488,11.625,0.113,16.875     C132.473,235.125,132.473,232.878,132.735,220.5z"/>
      <path fill-rule="evenodd" clip-rule="evenodd" fill="#C7CBD6" d="M116.348,218.625v11.25V218.625z"/>
      <path fill-rule="evenodd" clip-rule="evenodd" fill="#C7CBD6" d="M130.333,214.746h8.89c-2.625,0.504-4.875,0.504-7.748,0.395     v4.609C130.973,217.875,130.223,215.625,130.333,214.746z"/>
      <path fill-rule="evenodd" clip-rule="evenodd" fill="#C7CBD6" d="M116.996,213.375c0.477,1.875,2.508,3.061,0,4.066V213.375z"/>
      <path fill-rule="evenodd" clip-rule="evenodd" fill="#C7CBD6" d="M175.973,214.125c0,1.875-3,10.5-3,12.375     s1.473,7.736,2.848,11.927c-1.395-0.759-4.348-10.146-4.348-12.677c0-1.875,0.75-5.25,0.75-7.125c0-0.281,0.688-2.624,3-4.511     c-0.641-0.474-2.141-1.004-0.231-2.585C175.223,212.625,175.973,212.25,175.973,214.125z"/>
      <path fill-rule="evenodd" clip-rule="evenodd" fill="#C7CBD6" d="M151.174,213.561c-7.216-2.557-13.826-2.062-20.923-2.292     c0.832-1.159,2.597-0.52,15.355-0.52C147.677,210.844,149.106,211.577,151.174,213.561z"/>
      <path fill-rule="evenodd" clip-rule="evenodd" fill="#C7CBD6" d="M150.628,206.321c2.588,0.698,5.47,0.679,7.72,1.054     c-1.5,0.375-2.625,1.125-4.5,1.125S150.473,207.375,150.628,206.321z"/>
      <path fill-rule="evenodd" clip-rule="evenodd" fill="#C7CBD6" d="M164.594,202.591c-0.509,1.259-3.891,4.775-5.869,4.079     C160.43,205.54,162.582,204.11,164.594,202.591z"/>
      <path fill-rule="evenodd" clip-rule="evenodd" fill="#C7CBD6" d="M122.348,199.125c-0.415,1.668-1.165,3.918-2.336,5.616     C119.723,202.875,121.262,200.458,122.348,199.125z"/>
      <path fill-rule="evenodd" clip-rule="evenodd" fill="#C7CBD6" d="M172.973,187.5c5.531,0,6,13.219,6,13.5     c0,1.875-0.75,5.625-1.125,7.875c-0.375-0.75-1.016-1.984-1.847-2.855c-0.028-0.895,1.097-0.52,2.276-0.409v-8.829     c-0.055-1.406-3.104-8.346-7.555-8.178C171.098,188.25,171.098,187.5,172.973,187.5z"/>
      <path fill-rule="evenodd" clip-rule="evenodd" fill="#C7CBD6" d="M113.916,176.296c3.608,0.426,10.397,5.684,14.727,6.848     c0.08,1.73,0.83,4.355,0.83,6.23c0,3.094-0.204,1.859-4.526,5.863c2.196-0.144,1.449,0.941,2.676,2.764     c0.459-0.642,0.459-1.392,1.618-2.223c0.231,4.096,0.981,8.596,0.872,12.831c0.579-0.11,0.715,0.372,1.818-1.571     c4.729,0.717,11.792,1.461,13.667,1.461s2.792-2.937,4.875-4.101c-1.293-0.438-3-1.149-3-3.024s0.75-6.75,1.125-9.75     c0.375,1.5,0.313,3.542,1.477,5.627c0.438-1.294,0.398-3.377,0.773-4.877c0.375,4.125,6.656,9.375,8.25,9.375     c7.5,0,7.875-9.375,7.875-12.375c0-1.875,7.5-7.125,9.375-7.125c4.031,0,4.875,16.781,4.875,17.25c0,9.094-6,19.781-6,25.5     c0,1.875-0.039,3.208,0.375,4.5c0,0,0.375-0.375,0.75-1.125c0.375,0.75,0.266,1.766-0.375,2.25l1.151,1.127l1.535-1.496     c3.251,4.661,9.313,14.244,9.313,16.119c0,3.563,5.25,16.5,5.25,20.625c0,3.281,0.408,10.384-3.818,11.841     c0.068,0.534,0.178,1.02,1.372,0.205c-1.124,6.595-14.147,15.704-21.179,15.704c-1.875,0-2.25-0.75-24-0.75     c-13.031,0-49.125-2.25-49.125-28.875c0-8.625,12-30.094,12-39.375c0-6.938-8.25-14.719-8.25-19.5c0-1.875-0.11-0.859-1.344-0.07     c0,0,0.594,0.07,0.594-1.805s-0.11-1.234-1.287-0.411c0.352-5.628-1.747-11.229,1.535-16.292     C103.845,181.296,111.318,181.91,113.916,176.296z"/>
      <path fill-rule="evenodd" clip-rule="evenodd" fill="#0E0D0E" d="M127.454,0.779c0.894-0.029,1.811,0.761,2.811,1.673     c-1.25-0.246-1.153,1.629-0.08,3.385h-4.358C125.723,3.375,126.583,1.61,127.454,0.779z"/>
      <path fill-rule="evenodd" clip-rule="evenodd" fill="#0E0D0E" d="M126.098,8.25c1.015,0.86,2.625,1.5,2.625,3.375     s-0.75,1.5-0.86,2.552h-2.677c-0.854-0.787-1.713-0.677-1.713-2.552S125.083,9.11,126.098,8.25z"/>
      <path fill-rule="evenodd" clip-rule="evenodd" fill="#0E0D0E" d="M131.348,13.875c0.375,0.75-1.875,0-1.875,1.875     s1.39,0.86,2.222,2.019c-1.097,0.231-2.112,0.122-2.857-0.75v-2.726c0,0,1.275,0.067,1.7,0.712     C130.538,15.005,130.973,14.625,131.348,13.875z"/>
      <path fill-rule="evenodd" clip-rule="evenodd" fill="#0E0D0E" d="M125.613,16.599c0.11,1.776,0.82,4.194-0.068,5.809h-2.729     c-0.093-1.783-0.829-3.011,0.041-5.809H125.613z"/>
      <path fill-rule="evenodd" clip-rule="evenodd" fill="#0E0D0E" d="M122.348,24c1.015,0.86,1.5,1.5,2.597,1.731     c-0.832,1.159-0.722,2.394-0.778,3.341c0,0-0.804,0.068-1.819,0.928c-1.015-0.86-1.875-1.125-1.875-3S121.333,24.86,122.348,24z"/>
      <path fill-rule="evenodd" clip-rule="evenodd" fill="#0E0D0E" d="M121.917,32.428c0,0-0.694-0.178-0.694,1.697     s1.5-0.75,1.5,1.125c0,0.281-0.75,0.75-0.86,3.64c-1.015,0.11-2.515-0.64-3.569-0.75v-4.17     C119.083,33.11,120.098,32.25,121.917,32.428z"/>
      <path fill-rule="evenodd" clip-rule="evenodd" fill="#0E0D0E" d="M124.741,37.529c0.231,1.096-0.628,1.361-1.269,1.846     c0.64,0.485,1.61,1.985,2.306,1.697c0,0-0.431,0.928-2.196,0.818c-0.11-1.015-0.86-0.265-0.86-2.14S123.583,38.36,124.741,37.529     z"/>
      <path fill-rule="evenodd" clip-rule="evenodd" fill="#0E0D0E" d="M117.704,39.829h2.664v5.102h-2.682l-2.426-2.717     C116.348,42,116.833,40.61,117.704,39.829z"/>
      <path fill-rule="evenodd" clip-rule="evenodd" fill="#0E0D0E" d="M129.098,53.625c0.375,0.75,0.265,1.985,0.69,2.63     c0,0,0.435-0.38,0.724-1.495c0,0,1.211,0.365,1.101,2.13c-1.015,0.11-2.515,0.86-3.53,0.75     C127.973,55.125,128.723,54.375,129.098,53.625z"/>
      <path fill-rule="evenodd" clip-rule="evenodd" fill="#0E0D0E" d="M141.074,120.001c1.146,6.328,1.148,13.124,0.773,19.874     C141.473,133.875,140.723,127.125,141.074,120.001z"/>
      <path fill-rule="evenodd" clip-rule="evenodd" fill="#0E0D0E" d="M125.348,130.125c0.375,1.5,1.125,3,0.836,4.865     C125.012,133.293,124.973,131.625,125.348,130.125z"/>
      <path fill-rule="evenodd" clip-rule="evenodd" fill="#0E0D0E" d="M144.704,167.972c-0.341,0.668,0.519,1.902,0.144,3.402     C144.473,170.625,144.473,169.125,144.704,167.972z"/>
      <path fill-rule="evenodd" clip-rule="evenodd" fill="#0E0D0E" d="M147.778,180.779c1.085,0.831,0.444,2.596,0,4.471V180.779z"/>
      <path fill-rule="evenodd" clip-rule="evenodd" fill="#0E0D0E" d="M183.854,198c-1.137,8.688-4.137,18.438-5.986,27.75     C175.236,217.318,185.073,205.76,183.854,198z"/>
      <path fill-rule="evenodd" clip-rule="evenodd" fill="#0E0D0E" d="M130.464,211.525c13.654,0.726,16.801,0.765,18.504,1.79     c-1.604,1.825-3.745,1.935-5.62,1.935s-8.25-0.75-13.015-0.859C130.223,213.375,129.583,212.36,130.464,211.525z"/>
      <path fill-rule="evenodd" clip-rule="evenodd" fill="#0E0D0E" d="M173.456,269.266c0.267,1.108,1.017,1.108,1.017,2.983     s-1.5,1.875-1.609,3.634h-2.795c-0.096-1.009-0.471-1.384-1.567-1.614C170.082,272.36,171.535,271.667,173.456,269.266z      M149.348,264c1.016,0.86,2.25,0.75,3.318,0.929c0,0-0.053,1.212-1.068,2.071l-1.606-1.515c0,0-1.394,0.765-2.481,0.553     L149.348,264z M142.333,256.61c2.515-0.11,4.015,0.64,4.765,1.015c-0.75,0.375-0.75,0.375-2.625,0.375s-0.75,1.125-1.125,1.875     C142.973,259.125,142.223,257.625,142.333,256.61z M171.907,253.504c1.026,1.703,0.315,3.37,0.206,5.096h-3.592     C169.262,256.708,170.832,254.36,171.907,253.504z M114.036,176.255c6.792,3.315,15.437,3.557,15.437,13.119     c0,1.5-13.5,14.906-13.5,34.875c0,6.563-0.094,16.5,8.625,16.5c7.125,0,4.219-3,11.25-3c5.438,0,22.313,3.75,23.25,3.75     c2.719,0,4.406-3,8.394-2.971c0.872,0.831,0.606-0.029,2.481-0.029s2.891,2.36,4.269,3.774h1.991     c0.6-0.664,1.24-0.024,1.24-1.899c0-0.094-4.5-10.875-4.5-13.875c0-1.875,6-23.625,6-25.5c0-2.438-0.188-13.5-6-13.5     c-8.719,0-1.5,19.5-17.625,19.5c-1.875,0-3.869-0.769-6.374-1.848c0,0,0.858-0.292,1.504-0.717     c-1.298-0.475-3.005-1.186-3.005-3.061s0.75-6.75,1.125-9.75c0.375,1.5,0.313,3.542,1.477,5.627     c0.438-1.294,0.398-3.377,0.773-4.877c0.375,4.125,6.656,9.375,8.25,9.375c10.313,0,6.938-19.5,17.25-19.5     c4.5,0,3.375,5.719,3.375,6c0,1.875,1.5,9.375,1.5,11.25c0,9.094-6,19.781-6,25.5c0,1.875-0.039,3.208,0.375,4.5     c0,0,0.375-0.375,0.75-1.125c0.375,0.75,0.266,1.766-0.375,2.25l1.151,1.127l1.535-1.496c3.251,4.661,9.313,14.244,9.313,16.119     c0,3.563,5.25,16.5,5.25,20.625c0,3.281,0.408,10.384-3.818,11.841c0.068,0.534,0.178,1.02,1.372,0.205     c-1.124,6.595-14.147,15.704-21.179,15.704c-1.875,0-2.25-0.75-24-0.75c-13.031,0-49.125-2.25-49.125-28.875     c0-8.625,12-30.094,12-39.375c0-8.25-10.5-17.25-10.5-30C97.973,184.031,102.955,187.424,114.036,176.255z"/>
      <path fill-rule="evenodd" clip-rule="evenodd" fill="#0E0D0E" d="M173.456,269.266c0.267,1.108,1.017,1.108,1.017,2.983     s-1.5,1.875-1.609,3.634h-2.795c-0.096-1.009-0.471-1.384-1.567-1.614C170.082,272.36,171.535,271.667,173.456,269.266z"/>
      <path fill-rule="evenodd" clip-rule="evenodd" fill="#0E0D0E" d="M149.348,264c1.016,0.86,2.25,0.75,3.318,0.929     c0,0-0.053,1.212-1.068,2.071l-1.606-1.515c0,0-1.394,0.765-2.481,0.553L149.348,264z"/>
      <path fill-rule="evenodd" clip-rule="evenodd" fill="#0E0D0E" d="M142.333,256.61c2.515-0.11,4.015,0.64,4.765,1.015     c-0.75,0.375-0.75,0.375-2.625,0.375s-0.75,1.125-1.125,1.875C142.973,259.125,142.223,257.625,142.333,256.61z"/>
      <path fill-rule="evenodd" clip-rule="evenodd" fill="#0E0D0E" d="M171.907,253.504c1.026,1.703,0.315,3.37,0.206,5.096h-3.592     C169.262,256.708,170.832,254.36,171.907,253.504z"/>
      <path fill-rule="evenodd" clip-rule="evenodd" fill="#0E0D0E" d="M114.036,176.255c6.792,3.315,15.437,3.557,15.437,13.119     c0,1.5-13.5,14.906-13.5,34.875c0,6.563-0.094,16.5,8.625,16.5c7.125,0,4.219-3,11.25-3c5.438,0,22.313,3.75,23.25,3.75     c2.719,0,4.406-3,8.394-2.971c0.872,0.831,0.606-0.029,2.481-0.029s2.891,2.36,4.269,3.774h1.991     c0.6-0.664,1.24-0.024,1.24-1.899c0-0.094-4.5-10.875-4.5-13.875c0-1.875,6-23.625,6-25.5c0-2.438-0.188-13.5-6-13.5     c-8.719,0-1.5,19.5-17.625,19.5c-1.875,0-3.869-0.769-6.374-1.848c0,0,0.858-0.292,1.504-0.717     c-1.298-0.475-3.005-1.186-3.005-3.061s0.75-6.75,1.125-9.75c0.375,1.5,0.313,3.542,1.477,5.627     c0.438-1.294,0.398-3.377,0.773-4.877c0.375,4.125,6.656,9.375,8.25,9.375c10.313,0,6.938-19.5,17.25-19.5     c4.5,0,3.375,5.719,3.375,6c0,1.875,1.5,9.375,1.5,11.25c0,9.094-6,19.781-6,25.5c0,1.875-0.039,3.208,0.375,4.5     c0,0,0.375-0.375,0.75-1.125c0.375,0.75,0.266,1.766-0.375,2.25l1.151,1.127l1.535-1.496c3.251,4.661,9.313,14.244,9.313,16.119     c0,3.563,5.25,16.5,5.25,20.625c0,3.281,0.408,10.384-3.818,11.841c0.068,0.534,0.178,1.02,1.372,0.205     c-1.124,6.595-14.147,15.704-21.179,15.704c-1.875,0-2.25-0.75-24-0.75c-13.031,0-49.125-2.25-49.125-28.875     c0-8.625,12-30.094,12-39.375c0-8.25-10.5-17.25-10.5-30C97.973,184.031,102.955,187.424,114.036,176.255z"/>
      <path fill-rule="evenodd" clip-rule="evenodd" fill="#E5E5E5" d="M171.02,189.86c1.578-0.11,3.245,1.43,4.578,2.515     c-1.668-0.414-2.369-1.144-4.392-1.945l-0.187,2.32V189.86z"/>
      <path fill-rule="evenodd" clip-rule="evenodd" fill="#E5E5E5" d="M176.592,194.34c0.131,1.034,0.881,1.409,0.881,3.284     s-1.391,1.766-2.222,0.607c1.097-0.232,1.472,0.893,1.472-0.982C176.723,196.968,173.854,194.629,176.592,194.34z"/>
      <path fill-rule="evenodd" clip-rule="evenodd" fill="#72685D" d="M129.501,84.231c1.097-0.231,2.764-0.192,4.461,0.98     C132.098,85.5,130.333,85.39,129.501,84.231z"/>
      <path fill-rule="evenodd" clip-rule="evenodd" fill="#72685D" d="M134.718,95.685c-1.87,0.315-4.12,0.315-6.735,0.026     C129.68,94.54,132.216,94.519,134.718,95.685z"/>
      <path fill-rule="evenodd" clip-rule="evenodd" fill="#72685D" d="M126.848,122.625c1.667,0.415,3.167-0.335,4.5,0.75     C129.68,122.96,128.18,123.71,126.848,122.625z"/>
      <path fill-rule="evenodd" clip-rule="evenodd" fill="#72685D" d="M132.848,122.625c1.5-0.375,3.75,0.375,6,0.75     C136.598,123.75,134.348,123,132.848,122.625z"/>
      <path fill-rule="evenodd" clip-rule="evenodd" fill="#72685D" d="M130.598,138.375c2.369,0.394,5.25-0.375,7.87-0.06     C135.966,139.481,132.729,139.481,130.598,138.375z"/>
      <path fill-rule="evenodd" clip-rule="evenodd" fill="#72685D" d="M128.043,151.656c1.972,0.634,3.304-0.156,4.804,0.219     C131.348,152.25,128.833,152.89,128.043,151.656z"/>
      <path fill-rule="evenodd" clip-rule="evenodd" fill="#72685D" d="M134.732,151.789c1.115-0.289,2.615,0.461,4.115,0.836     C138.098,153,136.43,152.96,134.732,151.789z"/>
      <path fill-rule="evenodd" clip-rule="evenodd" fill="#72685D" d="M144.704,179.279c2.189,1.862,1.383,1.343,2.767,3.314     c-0.975,2.074-4.475,3.025-6.747,2.131h4.609c-0.111-0.6,0.749-1.614,1.389-2.1C146.082,182.14,144.473,180.375,144.704,179.279z     "/>
      <path fill-rule="evenodd" clip-rule="evenodd" fill="#72685D" d="M139.093,183.841c0.129,1.033-1.41,1.616-0.996,3.283     c-1.085-1.332-3-1.875-4.874-2.215L139.093,183.841z"/>
      <path fill-rule="evenodd" clip-rule="evenodd" fill="#72685D" d="M146.791,191.249c-0.818-1.03-2.775-2.228,0-5.209V191.249z"/>
      <path fill-rule="evenodd" clip-rule="evenodd" fill="#72685D" d="M139.251,188.482c1.097-0.232,2.597,0.518,4.097,0.893     C141.848,189.75,140.083,189.64,139.251,188.482z"/>
      <path fill-rule="evenodd" clip-rule="evenodd" fill="#72685D" d="M145.303,192.143c1.045-0.144,2.061,0.497,1.662,1.101v4.78     c0.617-0.664,0.508-1.149,0.936-1.899v2.61C145.845,195.953,145.889,195.182,145.303,192.143z"/>
      <path fill-rule="evenodd" clip-rule="evenodd" fill="#72685D" d="M183.141,195.375v5.616     C182.012,199.292,182.723,196.875,183.141,195.375z"/>
      <path fill-rule="evenodd" clip-rule="evenodd" fill="#72685D" d="M146.713,204.461c-1.865,0.288-3.365,0.288-5.23,0     C143.18,203.29,145.015,203.29,146.713,204.461z"/>
      <path fill-rule="evenodd" clip-rule="evenodd" fill="#514B46" d="M139.684,13.51c0.289,1.115,0.25,2.783-0.922,4.48     C138.473,16.875,138.512,15.208,139.684,13.51z"/>
      <path fill-rule="evenodd" clip-rule="evenodd" fill="#514B46" d="M135.848,145.875h-9     C129.098,145.5,132.848,145.5,135.848,145.875z"/>
      <path fill-rule="evenodd" clip-rule="evenodd" fill="#514B46" d="M149.46,184.517c0.075,5.341,1.013,3.076,1.013,3.357     c0,1.875-1.5-0.75-1.5,1.125c0,0.281,1.5,5.438,1.211,8.241c-1.172-1.698-1.191-3.997-1.613-5.991c0,0-0.348,0.375-0.71,1.5     C147.38,190.994,148.188,185.985,149.46,184.517z"/>
      <path fill-rule="evenodd" clip-rule="evenodd" fill="#514B46" d="M179.933,184.538c1.978,2.379,3.521,4.719,4.245,7.266     c-3.797,1.122-1.74,6.344-2.613,9.945c-0.248-3.012,0.023-9.804-2.576-11.516C179.664,188.56,179.835,185.275,179.933,184.538z"/>
      <path fill-rule="evenodd" clip-rule="evenodd" fill="#514B46" d="M146.923,200.625c0.55,1.5,2.05,2.25,1.818,4.097l-1.818-1.713     V200.625z"/>
      <path fill-rule="evenodd" clip-rule="evenodd" fill="#514B46" d="M177.241,222.029c0.231,1.096,0.192,2.429,0.606,3.721     c0,0,0.375-0.375,0.75-1.125c0.375,0.75-0.375,0.75-0.375,2.625s1.5,0.375,1.5,2.25s-0.958,2.961-2.929,3.595     c0.788-1.234-0.071-2.47-0.071-4.345s0.375-0.75-1.431-0.859v-4.16L177.241,222.029z"/>
      <path fill-rule="evenodd" clip-rule="evenodd" fill="#514B46" d="M189.295,246.056c0,0,0.928-0.057,0.928,1.818     s-1.5,0.375-1.5,2.25s0.375,2.25,1.875,3.75c-1.5-0.75-2.586-2.832-3.22-4.804c1.235,0.789,2.095,1.429,2.095-0.446     S188.348,246,189.295,246.056z"/>
      <path fill-rule="evenodd" clip-rule="evenodd" fill="#514B46" d="M134.504,255.753v3.108c0.594-0.112,1.609-0.002,2.094,0.638     l1.526-1.498c0.989,0.858,2.224,0.748,3.724,1.123c-1.5,0.375-3.812,1.121-8.607,0.115     C134.083,258.11,134.504,255.753,134.504,255.753z"/>
      <path fill-rule="evenodd" clip-rule="evenodd" fill="#514B46" d="M149.348,264.375c1.016,0.485,1.5,1.125,3.347,1.357     c-0.831,1.158-2.112,0.408-2.597-0.232l-1.783,1.371C149.082,265.61,149.832,265.39,149.348,264.375z"/>
      <path fill-rule="evenodd" clip-rule="evenodd" fill="#353331" d="M130.963,2.54c-0.649,0.542-3.392,0.412-4.936,3.453     c-0.304-1.118,0.653-2.954,1.965-3.487c0,0-0.769-0.631-0.538-1.728C128.707,1.704,129.207,2.54,130.963,2.54z"/>
      <path fill-rule="evenodd" clip-rule="evenodd" fill="#353331" d="M125.348,130.125c0.375,1.5,1.125,3,0.836,4.865     C125.012,133.293,124.973,131.625,125.348,130.125z"/>
      <path fill-rule="evenodd" clip-rule="evenodd" fill="#353331" d="M175.427,182.967c2.213,0.26,3.224,5.923,4.75,4.946v4.836     c-0.454-2.625-1.892-4.666-3.316-7.414c1.253,0.774,1.472,0.774,2.117,0.229C178.262,184.292,176.93,183.71,175.427,182.967z"/>
      <path fill-rule="evenodd" clip-rule="evenodd" fill="#353331" d="M148.598,191.625c0.375,1.5,0.313,3.542,1.537,5.627     c0.447-0.642,0.338-1.877,0.713-2.627c0.375,1.5,0.375,3,0.375,4.875s1.708,0.063,2.998,1.089     c-0.857,1.052-2.287,1.704-3.154,2.732c0.266-0.711,0.266-1.461,0.92-1.846c0,0-0.389-0.476-2.373-0.585     c0.109,1.234,0.109,1.984-0.266,2.734c-0.375-0.75-0.266-1.984-0.69-2.629c0,0-0.435,0.379-0.764,0.758     C148.234,199.034,148.223,195.375,148.598,191.625z"/>
      <path fill-rule="evenodd" clip-rule="evenodd" fill="#353331" d="M139.944,211.695c-0.832,1.195-0.722,2.805-2.597,2.805     s1.125-1.5-0.75-1.5s0.375,1.5-1.5,1.5s-1.015-0.859-1.44-1.504c0,0-0.435,0.379-0.545,1.388h-2.794c0,0,0.673-0.14-0.027-2.688     H139.944z"/>
      <path fill-rule="evenodd" clip-rule="evenodd" fill="#353331" d="M176.419,228.007c0.304,1.117,0.194,2.133-0.446,2.617     l1.151,1.127l1.565-1.49c3.25,6.866,10.596,13.199,10.468,21.734c-2.48-7.011-13.935-20.246-13.935-21.746L176.419,228.007z"/>
      <path fill-rule="evenodd" clip-rule="evenodd" fill="#353331" d="M135.098,237.952h3.144l1.73,1.702     c-0.859,0.986-2.139,1.736-2.971,0.578c1.097-0.232,1.472-0.607,1.528-1.16c0,0,0.694-0.572-1.181-0.572s-1.125,1.125-1.5,1.875     C135.473,239.625,135.848,238.5,135.098,237.952z"/>
      <path fill-rule="evenodd" clip-rule="evenodd" fill="#353331" d="M136.598,241.875c0.375,1.5,0.375,3.75,0,5.25V241.875z"/>
      <path fill-rule="evenodd" clip-rule="evenodd" fill="#353331" d="M133.465,246.375c0.508,0.75,0.618,1.235,1.633,0.75     c-0.485,1.016-1.125,1.125-1.125,3s0.11,1.235,1.125,0.75c-0.485,1.016-0.75,1.875-1.633,1.766V246.375z"/>
      <path fill-rule="evenodd" clip-rule="evenodd" fill="#353331" d="M136.771,249.375v2.107c0.842,0.628,0.577-0.232,2.452-0.232     s2.792,2.29,4.481,3.257c-0.771,1.786-3.091,1.884-4.481,3.118c0.64,0.485,1.875,0.375,3.375,0.75     c-1.5,0.375-3.485,0.266-4.875,1.5l1.371,1.783c-1.261-0.768-2.496-0.658-3.564-0.836c0,0,0.054-1.212,0.699-1.637     c0,0-0.38-0.436-1.13-0.811c0.75-0.375,1.765,0.485,2.25,1.125l1.189-1.292v-1.839c-0.439,0.131-0.439,0.881-2.314,0.881     s-2.25-3.375-2.279-2.768c0.669,0.628,2.239,0.726,2.714,2.022c0.425-0.645,1.175-0.645,1.843-1.272     c-0.028-2.107,1.097-2.482-0.778-2.482s-0.86,0.11-0.594,0.821C136.262,252.542,136.223,250.875,136.771,249.375z"/>
      <path fill-rule="evenodd" clip-rule="evenodd" fill="#353331" d="M169.98,252.956h3.635c0.107,0.919,0.068,2.587-1.104,4.285     C172.223,254.25,171.697,254.125,169.98,252.956z"/>
      <path fill-rule="evenodd" clip-rule="evenodd" fill="#353331" d="M147.828,255.75c1.035,0.859,1.785,2.359,2.27,2.999     c0.484-0.64,1.234-2.14,2.484-2.917c-1.23,2.556,0.367,2.612-2.117,3.371c0.648,0.406,1.883,0.296,2.979,0.528     c-0.831,1.158-2.972-0.607-2.972,1.268s0.75,0.75,0.75,2.625c0,1.5,1.604,0.232,3.626,3.279     c-1.267-0.764-3.251-2.154-5.017-2.264c-0.109-1.766-0.109-4.016,0-6c-0.484,0.109,0.266-0.641-1.609-0.641     c-3.469,0-1.5,2.25-8.251,1.907C144.629,260.349,144.744,259.358,147.828,255.75z"/>
      <path fill-rule="evenodd" clip-rule="evenodd" fill="#353331" d="M140.08,261.643c2.033,0.967,3.58,2.523,4.805,4.608     c0.448-0.642,1.948-0.642,3.713-1.877c-0.484,1.016-1.234,1.235-0.467,2.496C145.373,265.238,141.208,262.765,140.08,261.643z"/>
      <path fill-rule="evenodd" clip-rule="evenodd" fill="#353331" d="M138.848,264.375c-0.485,1.016-0.438,0.917,0.027,1.877     c2.226-2.689,1.154-0.278,2.608,0.286c-2.004-0.307-4.135-1.038-5.635-1.413C136.598,264.75,137.833,264.86,138.848,264.375z"/>
      <path fill-rule="evenodd" clip-rule="evenodd" fill="#353331" d="M170.348,265.125c1.766,1.235,2.25,1.125,4.097,1.357     c-1.581,1.908-2.261,4.061-3.229,5.749c0,0-0.868-0.731-1.618-1.106c0.75-0.375,1.234-0.265,1.875-0.75l-1.37-1.783     c1.261,0.769,1.479,0.019,2.12-0.467C171.582,267.64,170.832,266.14,170.348,265.125z"/>
      <path fill-rule="evenodd" clip-rule="evenodd" fill="#1E1F1E" d="M128.262,1.49c0,0,0.351,0.65-0.289,1.135l1.371,1.783     c-1.261-0.768-1.48-0.018-2.496,0.467l1.13-1.44c0,0-0.38-0.435-1.13-0.81C128.348,2.25,127.973,1.875,128.262,1.49z"/>
      <path fill-rule="evenodd" clip-rule="evenodd" fill="#1E1F1E" d="M124.902,184.344c0.711,0.266,1.946,0.155,3.792,0.388     C127.863,185.89,125.93,185.21,124.902,184.344z"/>
      <path fill-rule="evenodd" clip-rule="evenodd" fill="#1E1F1E" d="M176.536,188.2c0.897,1.008,2.374,3.217,3.924,5.771     c0,0-1.487-0.097-1.776,0.289c0,0,0.289,0.739,0.289-1.136S177.535,190.333,176.536,188.2z"/>
      <path fill-rule="evenodd" clip-rule="evenodd" fill="#1E1F1E" d="M180.918,196.529v6.721c-0.445-0.75-0.532-3.212-1.945-4.87     L180.918,196.529z"/>
      <path fill-rule="evenodd" clip-rule="evenodd" fill="#1E1F1E" d="M154.725,199.523c0.248,1.852,0.209,3.52-0.964,5.218     c-0.288-1.116,0.571-1.601,0.087-2.241c-1.234,1.391-0.623,2.718-4.096,2.771c1.414-1.556,1.946-1.479,1.737-3.537l-1.625,1.434     C150.512,201.208,152.435,201.884,154.725,199.523z"/>
      <path fill-rule="evenodd" clip-rule="evenodd" fill="#1E1F1E" d="M143.348,212.25c0.375,0,3.453,0.298,4.208,2.167     c-0.724-0.776-0.458,0.833-2.333,0.833s0.375-1.5-1.5-1.5s0.75,1.5-1.125,1.5s-3-0.75-4.865-1.038     C139.43,213.04,141.473,212.25,143.348,212.25z"/>
      <path fill-rule="evenodd" clip-rule="evenodd" fill="#1E1F1E" d="M134.491,237.779c0.872,0.831,0.872,2.331,1.356,2.971     c0.485-0.64,0.75-2.25,2.597-2.018c-0.832,1.158-1.847,2.768-2.74,2.739c-0.872-0.831-2.106-0.722-2.856-1.097     C133.598,240,133.598,237.75,134.491,237.779z"/>
      <path fill-rule="evenodd" clip-rule="evenodd" fill="#1E1F1E" d="M139.251,238.795h11.972c-4.837,0.921-3.844,0.454-5.625,0.454     c-1.875,0-2.625,3.75-4.5,3.75s-0.265-0.859-0.75-1.5c-0.485,0.641-1.125-0.375-1.125,1.5s0.375,0.75,1.472,0.982     c-0.832,1.158-2.972-0.232-2.972-2.107S140.083,239.89,139.251,238.795z"/>
      <path fill-rule="evenodd" clip-rule="evenodd" fill="#1E1F1E" d="M165.544,239.406c0,0,1.054,0.594,2.169,0.883     c0,0-0.85,0.352-1.49,0.836c0.641,0.485,1.391,1.235,2.564,2.63c0.475-1.297,0.545-3.645,1.704-4.476     c0.231,1.096,0.872,2.331,1.731,3.346l-1.5,1.521c0.641,0.464,2.141,1.214,3,2.229c-0.859,1.016-2.458,1.086-3.755,1.561     c0.646,0.425,1.88,1.064,2.63,1.439c-0.75,0.375-2.254-0.417-2.966,2.624c-1.14-2.505-1.909-5.624-1.8-7.608     c-0.484,0.109-0.969,1.5-2.128,2.331c-0.231-1.847,0.558-3.179,0.083-4.476l-1.43,1.504c-2.101-1.38-4.135-1.5-4.51-1.875     c1.5-0.375,3.917-0.335,5.189,0.38C165.582,241.61,166.332,240.64,165.544,239.406z"/>
      <path fill-rule="evenodd" clip-rule="evenodd" fill="#1E1F1E" d="M133.054,241.503c0,0,0.809,0.856,1.293,1.871     c-1.015-0.484-1.125-1.125-1.125,0.75s0.11,1.235,0.821,0.97c0,0-0.446,0.905-0.989,0.772V241.503z"/>
      <path fill-rule="evenodd" clip-rule="evenodd" fill="#1E1F1E" d="M144.848,243.75c0,1.875-1.333,2.961-3.119,3.731     c0,0-1.006-1.106-0.717-2.221c0,0,0.351,0.85,0.896,1.494C143.18,246.04,144.848,245.625,144.848,243.75z"/>
      <path fill-rule="evenodd" clip-rule="evenodd" fill="#1E1F1E" d="M181.916,245.822c0.322-0.087,5.301-0.79,4.236,3.924     C185.012,248.042,183.729,246.731,181.916,245.822z"/>
      <path fill-rule="evenodd" clip-rule="evenodd" fill="#1E1F1E" d="M135.628,246.821c4.516,4.07,7.438,5.929,7.719,5.929     c1.875,0,0.375-0.375,0.75-1.125c0.375,0.75,0.265,1.235,0.75,1.875c0.485-0.64,1.234-2.14,2.25-2.625     c-0.484,1.016-1.125,1.5-1.181,2.054c0,0-0.694,0.571,1.181,0.571s2.31-1.495,2.31-1.495c0.956,0.855,1.44,1.495,2.448,1.605     v2.746h-3.585c0,0,0.062-1.246,0.751-1.546c-2.208,0.835-1.946,0.906-1.674,2.346c-1.918-0.695-4.119-0.675-6.554-1.562     c-0.071-0.97,2.929,1.28,2.929-0.595s-1.46-3.207-1.935-4.504c-0.425,0.645-1.925,0.645-2.88,1.5c0,0-0.81-0.746-1.56-1.121     c0.75-0.375,1.235-0.265,1.88-0.689C137.93,249.71,136.262,248.792,135.628,246.821z"/>
      <path fill-rule="evenodd" clip-rule="evenodd" fill="#1E1F1E" d="M136.103,249.85c0,0,0.01,1.29-0.635,1.715     c0,0,0.634,0.815,2.999,1.491c-1.391,1.139-0.975,3.511-4.658,1.879c0.164,1.939-0.586,4.189-0.961,5.689     c-0.375-2.25,1.875-4.875,1.875-6.75s-1.5,1.125-1.5-0.75C133.223,252.843,134.249,250.648,136.103,249.85z"/>
      <path fill-rule="evenodd" clip-rule="evenodd" fill="#1E1F1E" d="M192.098,255.375c-0.75,0-1.234,1.016-1.875,1.5     c0.641,0.485,1.875,0.75,1.875,2.25l-3.347-3.143C190.598,255.75,190.598,254.625,192.098,255.375z"/>
      <path fill-rule="evenodd" clip-rule="evenodd" fill="#1E1F1E" d="M174.322,258.11v3.592c-1.893-0.741-2.1-2.577-1.952-4.375     C172.37,257.327,173.348,258,174.322,258.11z"/>
      <path fill-rule="evenodd" clip-rule="evenodd" fill="#1E1F1E" d="M154.598,258.75c0,0,0.266,0.86,1.097,2.02     c-1.097,0.23-1.472,1.355-1.847,2.105C153.473,262.125,153.512,260.458,154.598,258.75z"/>
      <path fill-rule="evenodd" clip-rule="evenodd" fill="#1E1F1E" d="M169.598,258.75c1.016,0.86,1.125,2.625,0.894,4.472     c-1.159-0.831-2.019-0.722-2.019-2.597S168.582,259.61,169.598,258.75z"/>
      <path fill-rule="evenodd" clip-rule="evenodd" fill="#1E1F1E" d="M138.762,259.51c1.171,1.697,2.1,0.767,4.146,1.655     c0.064,0.959-1.229,0.545-2.5-0.17l-1.187,1.1c1.294,0.444,1.876,1.904,3.751,1.904c2.531,0,1.797-0.827,5.685-4.495     c0,0-0.06,1.495,0.344,1.728c-0.669-0.342-0.028,0.518-1.903,0.518c-2.438,0-1.313,3-3.75,3c-3.094,0-3.078-0.672-6.375-4.146     C136.973,260.603,138.473,260.625,138.762,259.51z"/>
      <path fill-rule="evenodd" clip-rule="evenodd" fill="#1E1F1E" d="M192.848,261.375c0,3,0,6.75,0,10.5c-0.75-3-0.75-6.75-1.5-9.75     C191.348,262.125,192.848,262.125,192.848,261.375z"/>
      <path fill-rule="evenodd" clip-rule="evenodd" fill="#1E1F1E" d="M134.348,262.125c-0.485,1.016-0.583,2.586-1.88,3.061     c0.645,0.425,1.505,0.689,1.273,1.786l-2.019-1.856C132.583,264.11,133.333,262.61,134.348,262.125z"/>
      <path fill-rule="evenodd" clip-rule="evenodd" fill="#1E1F1E" d="M168.848,263.625c0.375,0.75-0.375,2.25-0.75,3.75     c-0.375-0.75-0.266-1.234-1.097-2.393C168.848,264.75,168.473,264.375,168.848,263.625z"/>
      <path fill-rule="evenodd" clip-rule="evenodd" fill="#1E1F1E" d="M175.048,273.779v2.869c-0.95,0.102-1.435-0.008-2.075,0.477     c0.641,0.485,2.25,0.75,2.18,1.72c-2.437,0.887-4.924,0.887-7.358,0c-0.071-0.97,0.304-2.095-0.446-2.47     c0.75-0.375,0.375-1.125,2.25-1.125s-0.375,1.5,1.5,1.5S173.832,274.61,175.048,273.779z"/>
      <path fill-rule="evenodd" clip-rule="evenodd" fill="#1E1F1E" d="M105.098,282.375c1.015,0.485,2.515,1.235,3.75,3     C107.833,284.89,106.333,284.14,105.098,282.375z"/>
      <path fill-rule="evenodd" clip-rule="evenodd" fill="#B2A79A" d="M140.348,24.375c0.375,0.75,0.373,2.208,1.029,9.25     c-1.029,0.125-1.514,0.015-2.764,0.792C140.032,31.579,139.973,29.25,140.348,24.375z"/>
      <path fill-rule="evenodd" clip-rule="evenodd" fill="#B2A79A" d="M131.204,36.779c1.909,1.581,3.262,2.99,5.454,3.726     c0.69-0.005,1.175-0.865,0.343-2.023c1.097-0.231,1.582-0.872,2.794-1.675c-0.873,3.531-2.088,7.363-4.001,12.69     c-0.321-2.621-0.302-5.74-0.114-7.785v-1.212c-0.997,1.294-0.957,2.626-1.332,4.126c-0.375-0.75-0.265-1.985-0.75-2.625     c-1.047,1.203-2.26,1.695-2.293,3.002c-0.332-0.377-0.222-0.862-0.646-1.507c-0.475,1.298-0.454,3.499-1.665,5.99     c0.491-3.451,0.48-8.235,0.48-10.11S130.973,37.875,131.204,36.779z"/>
      <path fill-rule="evenodd" clip-rule="evenodd" fill="#B2A79A" d="M133.4,58.556c0,0,0.947,0.694,2.062,0.983     c0,0-0.85,0.351-1.49,0.836l2.182,2.123v10.121h-7.363c1.448-5.229,1.32-9.183,5.183-11.533     C133.333,60.64,133.223,59.625,133.4,58.556z"/>
      <path fill-rule="evenodd" clip-rule="evenodd" fill="#B2A79A" d="M127.18,66.001c0.792,2.624,0.753,5.042,0,6.733V66.001z"/>
      <path fill-rule="evenodd" clip-rule="evenodd" fill="#B2A79A" d="M125.316,74.255c1.137,2.501,0.406,5.62,0,8.245V74.255z"/>
      <path fill-rule="evenodd" clip-rule="evenodd" fill="#B2A79A" d="M128.434,74.26c0.289,1.865,0.25,4.283-0.922,5.98     C127.223,78.375,127.262,75.958,128.434,74.26z"/>
      <path fill-rule="evenodd" clip-rule="evenodd" fill="#B2A79A" d="M130.669,74.26v6.735     C129.492,78.494,129.512,75.958,130.669,74.26z"/>
      <path fill-rule="evenodd" clip-rule="evenodd" fill="#B2A79A" d="M131.828,74.364h4.293c0.101,2.511,0.832,5.392,1.591,7.847     l-1.745,1.72h-4.139V74.364z"/>
      <path fill-rule="evenodd" clip-rule="evenodd" fill="#B2A79A" d="M128.348,85.875c0.375,1.5,1.121,3.053-0.026,8.624     C127.973,91.875,127.973,89.625,128.348,85.875z"/>
      <path fill-rule="evenodd" clip-rule="evenodd" fill="#B2A79A" d="M137.599,85.597c0.124,1.778,0.124,3.278-0.251,4.778     c-0.375-0.75-0.335-2.082-0.81-3.38c-0.425,0.645-0.315,0.38-0.315,2.255s0.375,2.25,1.125,2.625     c-0.75,0.375-1.235,0.265-1.875,0.75c0.64,0.485,1.125,1.125,1.875,1.633h-2.515c-0.11-1.164,1.119-3.905-0.429-5.762     c-0.47,1.297-1.181,3.379-1.475,5.263c0.235-1.199-2.696-3.86-3.39-7.347L137.599,85.597z"/>
      <path fill-rule="evenodd" clip-rule="evenodd" fill="#B2A79A" d="M131.417,96.029v5.221     C130.973,99.375,130.333,96.86,131.417,96.029z"/>
      <path fill-rule="evenodd" clip-rule="evenodd" fill="#B2A79A" d="M134.643,104.056h-3.647c0.836-1.196,2.977,0.194,2.977-1.681     s-1.5-3.75-1.211-6.365C133.933,97.708,133.961,100.784,134.643,104.056z"/>
      <path fill-rule="evenodd" clip-rule="evenodd" fill="#B2A79A" d="M135.628,96.071c0.969-0.071-0.156,1.429,1.719,1.429     s0.375-0.375,0.69-0.755c-0.334,1.999,0.435,4.88,0.06,7.13c-0.375-1.5-0.335-3.582-0.75-4.875     c-0.415,1.293-0.415,3.543-1.586,5.24C135.473,101.625,134.742,98.506,135.628,96.071z"/>
      <path fill-rule="evenodd" clip-rule="evenodd" fill="#B2A79A" d="M138.363,115.614c0.11,1.011-0.75,5.246-0.265,5.886     c0.485-0.64,1.125-1.125,1.632-1.875v2.475h-3.459c0.741-1.892-0.009-3.807-0.483-5.104c-0.425,0.645-0.315,1.88-0.546,2.977     c-1.159-0.832-1.269-2.597-1.167-4.357H138.363z"/>
      <path fill-rule="evenodd" clip-rule="evenodd" fill="#B2A79A" d="M139.598,166.125c1.667,0.415,2.25,1.875,3.75,2.25     C141.848,168.75,140.93,167.21,139.598,166.125z"/>
      <path fill-rule="evenodd" clip-rule="evenodd" fill="#B2A79A" d="M130.598,214.875c1.106,2.132,1.106,4.382,1.5,6.75     C130.992,219.494,130.992,217.244,130.598,214.875z"/>
      <path fill-rule="evenodd" clip-rule="evenodd" fill="#96877A" d="M138.848,2.625c0,0-0.485,0.265-1.13,0.69     c1.297,0.475,3.746,1.674,3.746,1.674h-3.771c0.67,0.371,1.155,0.261,1.905,0.708h-3.403c0,0,0.138,1.913,1.153,1.428     c-0.485,1.015-0.386,1.409-0.255,2.645c0,0,0.74-0.66,1.755-1.145c-0.485,1.015,1.085,1.333,1.819,3.197     c-1.069,0.178-1.819,0.928-5.084,0.818c-0.11-2.515-0.11-4.39-0.11-6.265s-1.39-1.985-1.875-2.625l-3.185,2.951     c0.003-1.424,0.749-1.61,0.583-4.206c0.836-0.885,2.434-0.206,4.162-0.99C136.113,2.36,137.18,3.04,138.848,2.625z"/>
      <path fill-rule="evenodd" clip-rule="evenodd" fill="#96877A" d="M134.58,12.981v2.75l-3.239-2.981     c-0.478,0.64-1.908,0.543-3.08,2.24c-0.289-1.115,1.321-2.13,1.966-2.675c0,0-0.755-0.69-0.55-1.774     C132.786,12.54,132.644,10.891,134.58,12.981z"/>
      <path fill-rule="evenodd" clip-rule="evenodd" fill="#96877A" d="M137.204,13.529c1.159,0.831,1.229,2.764,0.204,4.466     l-1.9-2.029C137.348,15.75,136.973,14.625,137.204,13.529z"/>
      <path fill-rule="evenodd" clip-rule="evenodd" fill="#96877A" d="M128.488,40.527c-0.908,4.023,2.339,10.447-1.272,11.528     c0.381-0.306,0.756,0.819,0.756-1.056c0-4.594-4.181-4.758-2.093-8.32c-0.267,0.71-0.197,1.777,0.278,3.075     C127.333,44.36,127.262,42.208,128.488,40.527z"/>
      <path fill-rule="evenodd" clip-rule="evenodd" fill="#96877A" d="M126.469,50.574c-0.889,1.735-1.497,4.082-1.805,4.92     c-0.98-1.737,0.824-3.076-1.171-4.993C124.598,50.25,125.613,49.61,126.469,50.574z"/>
      <path fill-rule="evenodd" clip-rule="evenodd" fill="#96877A" d="M122.707,55.231c0.016,0.644-1.277-0.521-2.975-1.692     c1.115-0.289,2.35-0.929,2.995-1.354c0,0-0.38-0.435-0.806-0.622C122.673,52.501,123.881,53.455,122.707,55.231z"/>
      <path fill-rule="evenodd" clip-rule="evenodd" fill="#96877A" d="M131.896,50.279c1.217,0.831,1.217,1.581,1.702,2.221     c0.485-0.64,0.375-1.125,0.664-2.24c0,0-1.039,1.49,0.836,1.49s0.375-0.375,0.701-0.753c0.036,1.131-0.334,1.174,1.92,2.575     c-1.606,1.818-1.496,3.053-1.871,4.553c-0.375-0.75-0.335-2.082-0.75-3.375c0,0-0.375,0.375-0.485,1.39     c-1.015,0.11-1.015-1.39-2.717-1.495V50.279z"/>
      <path fill-rule="evenodd" clip-rule="evenodd" fill="#96877A" d="M132.462,58.039c-1.697,1.171-4.115,1.211-6.235,1.101v7.61     c-0.504-2.625-0.485-5.506-1.184-8.094C126.098,58.5,126.848,57.75,132.462,58.039z"/>
      <path fill-rule="evenodd" clip-rule="evenodd" fill="#96877A" d="M122.954,61.529c1.229,1.679,1.269,4.096,0.894,6.346     C123.473,66.375,123.492,64.244,122.954,61.529z"/>
      <path fill-rule="evenodd" clip-rule="evenodd" fill="#96877A" d="M123.848,74.625c0.375,1.5,1.125,3.75,0.836,5.615     C123.512,78.543,123.473,76.125,123.848,74.625z"/>
      <path fill-rule="evenodd" clip-rule="evenodd" fill="#96877A" d="M128.305,115.125c0.418,2.25,1.128,4.668,0,6.365V115.125z"/>
      <path fill-rule="evenodd" clip-rule="evenodd" fill="#96877A" d="M130.538,114.755c1.166,2.501,1.185,4.87,0.81,7.12     C130.973,119.625,130.223,117.375,130.538,114.755z"/>
      <path fill-rule="evenodd" clip-rule="evenodd" fill="#96877A" d="M129.241,123.779c0.231,1.846,0.962,4.215-0.117,6.72     c-1.112-1.706,1.72-3.021-2.062-4.567c0.16,0.443,0.871,2.111-0.301,3.808C126.473,128.625,127.52,125.172,129.241,123.779z"/>
      <path fill-rule="evenodd" clip-rule="evenodd" fill="#96877A" d="M132.241,132.779c0.231,1.846,0.942,3.514-0.229,5.211     C131.723,136.125,131.083,133.61,132.241,132.779z"/>
      <path fill-rule="evenodd" clip-rule="evenodd" fill="#96877A" d="M127.41,138.836c1.757,0.201,2.438,1.414,4.341,1.645     l-1.408-1.632c1.27,0.76,1.754,0.65,2.77,0.76c0.11,1.015-1.39-0.11-1.39,1.765s1.5,2.25,1.322,3.319     c-1.865-0.733-2.655-3.007-4.661-4.446c-0.521,0.642-0.412-0.373-0.412,1.502s1.39,1.61,1.875,2.625     c-1.015-0.485-1.235-0.485-2.438,0.35V138.836z"/>
      <path fill-rule="evenodd" clip-rule="evenodd" fill="#96877A" d="M135.848,147.375c-0.75,0.375-1.985,0.266-2.63,0.69     c1.297,0.475,3.38,0.435,6.002,0.763c-2.058,0.879-3.979-0.712-5.321,1.771c-0.786,0.791-0.301-0.6-2.176-0.6     s-1.125,1.5-2.14,1.391c-0.11-1.766-0.188-2.438-1.582-4.159C130.598,147,133.598,147,135.848,147.375z"/>
      <path fill-rule="evenodd" clip-rule="evenodd" fill="#96877A" d="M135.762,153.01c0.609,0.572,0.366,2.929,1.928,5.035h-2.917     C135.512,156.208,135.473,154.875,135.762,153.01z"/>
      <path fill-rule="evenodd" clip-rule="evenodd" fill="#96877A" d="M130.598,154.125c0.375,0.75,1.125,2.25,0.75,3.75     C130.973,157.125,130.223,155.625,130.598,154.125z"/>
      <path fill-rule="evenodd" clip-rule="evenodd" fill="#96877A" d="M133.741,153.779c0.231,1.846,0.122,3.611-1.037,4.443     C132.473,156.375,132.583,154.61,133.741,153.779z"/>
      <path fill-rule="evenodd" clip-rule="evenodd" fill="#96877A" d="M133.598,159.472l4.097-0.169     c-0.832,1.087-0.722,1.571-1.229,2.321v-2.152H133.598z"/>
      <path fill-rule="evenodd" clip-rule="evenodd" fill="#96877A" d="M133.327,165.22h3.643c-2.503,1.261-2.247,0.154-2.247,2.029     s1.125,1.5,1.875,1.875c-1.5,0.375-3.75,0.375-6.347,0.145c0.832-1.159,1.847-1.27,3.076-1.148V165.22z"/>
      <path fill-rule="evenodd" clip-rule="evenodd" fill="#96877A" d="M130.279,170.339h10.444c1.875-0.09,0.86,2.271,1.875,1.785     c-0.485,1.016,0.375,1.5,0.086,2.616c0,0-0.351-0.851-0.979-1.519c-0.606,0.027-1.091,0.138-0.327,1.402     c-0.982-0.332-1.59-0.281-1.381-2.37c-0.663-0.614-1.148-1.255-2.383-1.364c0.11,0.484,0,1.72,0.855,2.795     c-1.703,1.025-4.87-1.186-4.87,0.689c0-1.875-1.985-0.484-3,0c0.485-1.015,1.985-0.265,2.63-0.81     C132.512,172.292,131.012,172.292,130.279,170.339z"/>
      <path fill-rule="evenodd" clip-rule="evenodd" fill="#96877A" d="M129.848,175.875c-0.485,1.016-0.485,1.985,0.144,2.654     c0.606-0.029,1.021-1.321,1.909-2.938h3.475c0.097,1.034-1.403,0.284-1.403,2.159l1.407,1.373     c-2.574-1.544-1.803-1.619-2.561-2.873c-0.456,0.641-1.304,2.211-3.031,2.996C128.833,178.39,128.833,176.36,129.848,175.875z"/>
      <path fill-rule="evenodd" clip-rule="evenodd" fill="#96877A" d="M138.579,175.674h5.868c-0.834,1.216-0.725,0.2-0.725,2.075     s0.731,4.007,1.429,6.479l-3.679-0.175h2.342c-0.839-5.126-0.842-5.93-0.786-7.232c0,0,0.694-0.572-1.181-0.572     s-2.881,2.231-4.88,2.467h1.611V175.674z"/>
      <path fill-rule="evenodd" clip-rule="evenodd" fill="#96877A" d="M132.848,180.375c1.015,0.485,2.625,0.75,2.515,1.985     c0.485-0.11,1.235-1.61,2.993-1.5v2.843h-2.883c-1.875,0.047-1.125-1.453-1.542-1.532v1.575     C132.583,182.89,133.333,181.39,132.848,180.375z"/>
      <path fill-rule="evenodd" clip-rule="evenodd" fill="#96877A" d="M130.598,189.375c0.75-0.375,0.375,1.875,2.25,1.875     s-0.375-1.5,1.5-1.5c0.75,0-0.442,1.506,3.378,1.072c0,0-0.378-0.322-1.128-0.697c0.75-0.375,1.235,0.485,2.25,0l-1.13,1.44     c1.297,0.475,2.797-0.275,4.495,0.896c-4.115,0.288-7.865-1.212-11.98-1.5c0,0,0.85-0.352,1.495-0.776     C131.728,190.185,131.348,189.75,130.598,189.375z"/>
      <path fill-rule="evenodd" clip-rule="evenodd" fill="#96877A" d="M129.098,193.875c0.75-0.375,1.015,0.485,2.25,1.875     c0.485-0.64,1.235-0.859,0.391-1.982c3.471-0.916,3.266,1.982,5.234,1.982c1.875,0,5.417-0.687,7.912-2.248     c0.979,0.858,1.088,1.873,0.979,2.889C133.598,196.5,135.098,195,133.223,195s-0.75,0.375-0.86,1.384h-2.794     C129.473,195.375,129.848,194.25,129.098,193.875z"/>
      <path fill-rule="evenodd" clip-rule="evenodd" fill="#96877A" d="M130.263,197.457l7.458,0.876     C135.229,199.57,132.572,200.317,130.263,197.457z"/>
      <path fill-rule="evenodd" clip-rule="evenodd" fill="#96877A" d="M138.586,197.362h7.281c0.105,1.013-0.645,1.763-0.755,2.783     h-6.526V197.362z"/>
      <path fill-rule="evenodd" clip-rule="evenodd" fill="#96877A" d="M139.341,201.113h6.527c0,0-0.755,0.747,0.076,1.975h-6.603     V201.113z"/>
      <path fill-rule="evenodd" clip-rule="evenodd" fill="#96877A" d="M135.848,204.75c1.875,0-1.125,1.5,0.75,1.5     s-1.125-1.5,0.75-1.5s1.765,1.61,2.25,2.25c0.485-0.64,0.375-1.125,0.485-2.14c1.015-0.11,3.604-0.181,5.653-0.834     c0,0,0.127,0.834,0.982,1.909c-1.703,1.025-3.37,1.814-5.245,1.814c-2.531,0-9.358-2.046-9.677-3.598     C133.598,204,133.973,204.75,135.848,204.75z"/>
      <path fill-rule="evenodd" clip-rule="evenodd" fill="#96877A" d="M134.468,24.024c0,0,1.379,0.726,2.329,0.835v5.115     c-1.214-0.835-2.824-1.85-2.329-3.725V24.024z M133.327,21.056c1.938,0.733,3.271,1.444,5.09,1.554v5.421     c0.055,1.875-1.445,0.844-1.445,2.719s1.5,1.875,1.211,2.26c0,0,0.289-0.385,0.664-1.135c0.375,0.75,0,1.125-1.875,1.125     s-0.75,1.875-0.981,3.722c-1.909-1.582-1.812-3.011-2.946-3.778c0.178,1.181,0.138,2.849-0.947,4.181     c0.415-1.667,0.415-2.832-0.319-4.697c1.069-0.178,0.319-0.928,2.194-0.928s0.64,0.86,1.125,1.5     c0.485-0.64,1.125,0.375,1.125-1.5s-1.39-3.11-2.896-4.725V21.056z"/>
      <path fill-rule="evenodd" clip-rule="evenodd" fill="#96877A" d="M134.468,24.024c0,0,1.379,0.726,2.329,0.835v5.115     c-1.214-0.835-2.824-1.85-2.329-3.725V24.024z"/>
      <path fill-rule="evenodd" clip-rule="evenodd" fill="#96877A" d="M133.327,21.056c1.938,0.733,3.271,1.444,5.09,1.554v5.421     c0.055,1.875-1.445,0.844-1.445,2.719s1.5,1.875,1.211,2.26c0,0,0.289-0.385,0.664-1.135c0.375,0.75,0,1.125-1.875,1.125     s-0.75,1.875-0.981,3.722c-1.909-1.582-1.812-3.011-2.946-3.778c0.178,1.181,0.138,2.849-0.947,4.181     c0.415-1.667,0.415-2.832-0.319-4.697c1.069-0.178,0.319-0.928,2.194-0.928s0.64,0.86,1.125,1.5     c0.485-0.64,1.125,0.375,1.125-1.5s-1.39-3.11-2.896-4.725V21.056z"/>
      <path fill-rule="evenodd" clip-rule="evenodd" fill="#83786C" d="M135.414,0.923c-1.536,2.139-2.006,2.402-2.416,3.609     C133.688,3.318,132.832,1.422,135.414,0.923z"/>
      <path fill-rule="evenodd" clip-rule="evenodd" fill="#83786C" d="M134.001,12.174h2.92v3.013     c0.051,1.875-0.809,0.453-1.449,0.938l2.128,2.527c-1.268-0.762-1.488,0.738-2.503,1.223c0.485-1.015,1.125-0.375,1.125-2.25     s-1.46-1.332-2.094-3.304c1.234,0.789,1.454,0.789,2.123,0.161C136.223,13.875,134.833,13.39,134.001,12.174z"/>
      <path fill-rule="evenodd" clip-rule="evenodd" fill="#83786C" d="M135.168,24.007c0.304,1.868,1.015,3.951,1.648,5.922     c-1.234-0.789-2.844-1.804-2.844-3.679L135.168,24.007z"/>
      <path fill-rule="evenodd" clip-rule="evenodd" fill="#83786C" d="M125.062,51.133c1.036-0.133,1.372,1.575,1.864,2.875     c0.716-0.767,3.013-1.872,4.096-1.318c-0.689-0.3,0.701,1.31-1.174,1.31s-0.265-0.86-0.75-1.5     c-0.485,0.64-1.125,0.844-1.252,2.719v3.261c-1.263-0.84-0.623-1.48-2.498-1.48s-0.375,0.375-0.75,1.125     C124.223,56.906,126.103,58.187,125.062,51.133z"/>
      <path fill-rule="evenodd" clip-rule="evenodd" fill="#83786C" d="M131.867,54.83c0.981-0.08,1.246,0.78,1.875,1.449     c0.606-0.029,1.356-1.529,3.203-1.297c-1.394,1.721-1.371,2.259-2.64,3.516c0,0-0.222-0.857-0.744-1.5     c0,0-0.545,0.712-2.517,1.346C131.833,57.11,131.867,54.83,131.867,54.83z"/>
      <path fill-rule="evenodd" clip-rule="evenodd" fill="#83786C" d="M132.848,94.875c1.5-0.375,3.167-0.335,4.5,0.75     C135.68,95.21,134.348,95.25,132.848,94.875z"/>
      <path fill-rule="evenodd" clip-rule="evenodd" fill="#83786C" d="M124.598,108.375c1.085,1.333,1.125,3,1.015,5.126h3.109     l-3.641,0.388C124.973,112.125,125.012,110.043,124.598,108.375z"/>
      <path fill-rule="evenodd" clip-rule="evenodd" fill="#83786C" d="M145.902,187.656l-1.809,2.094     c-1.011-0.859-1.496-0.75-2.246-1.125C142.598,188.25,143.93,188.29,145.902,187.656z"/>
      <path fill-rule="evenodd" clip-rule="evenodd" fill="#83786C" d="M129.776,189.375l0.219,2.02     c2.943,0.617,5.761,0.617,9.212,0.127c-2.491,1.21-5.684,1.222-9.431,0.342V189.375z"/>
      <path fill-rule="evenodd" clip-rule="evenodd" fill="#83786C" d="M136.944,189.173c-0.832,1.217,0.403,2.076-1.472,2.076     s0.75-1.5-1.125-1.5s-1.875,0.375-1.77-0.576H136.944z"/>
      <path fill-rule="evenodd" clip-rule="evenodd" fill="#83786C" d="M135.848,193.875c0.75-0.375,2.25-0.375,4.097-0.143     C139.113,194.89,137.348,194.25,135.848,193.875z"/>
      <path fill-rule="evenodd" clip-rule="evenodd" fill="#83786C" d="M180.848,206.625c0.375,0.75,0.336,2.418-0.837,4.116     C179.723,209.625,180.473,208.125,180.848,206.625z"/>
      <path fill-rule="evenodd" clip-rule="evenodd" fill="#040404" d="M109.817,183.821c0,0,0.046,1.319-0.604,1.718     c2.004,0.48,4.885-0.289,7.135,0.086c-0.75,0.375-1.985,0.266-2.63,0.69c0,0,0.38,0.435,1.342,0.545v2.854     c-2.67-1.527-5.087-4.465-6.962-4.465c-0.094,0-2.438,0.75-3.75,0.75c-1.875,0-2.625,1.5-2.625,3.375s0.11,1.235,1.125,0.75     c-0.485,1.016,0.375,3.375-1.5,3.375s-0.265-0.859-0.75-1.5c-0.485,0.641-1.125-0.375-1.125,1.5s1.5,1.125,1.269,2.222     c-1.159-0.831-2.019-1.097-2.019-2.972s1.61-1.39,2.278-2.018c-0.028-0.607,0.082-1.092-0.403-1.732l-1.783,1.371     c1.518-2.011,3.283-2.871,4.166-2.715v-2.36c0.882,0.814,1.467-0.782,1.467-0.782l1.426,1.488     c0.458-0.642,1.208-0.642,1.991-1.421C107.865,184.581,108.583,184.61,109.817,183.821z"/>
      <path fill-rule="evenodd" clip-rule="evenodd" fill="#040404" d="M116.083,186.866h3.541c0.1,1.009,1.225,2.134,3.083,2.4     c-4.461,3.326-3.733,0.483-3.733,3.108c0,1.875-1.575,0.976-2.097,1.656c-0.725,3.393,1.513,8.177-0.908,10.287     c0,0,0.379,0.432,0.764,0.721c-1.303-0.328-2.26-2.539-2.26-4.414s1.5-2.25,1.5-4.125s-1.5-1.125-1.5-3     C114.473,193.218,115.973,190.968,116.083,186.866z"/>
      <path fill-rule="evenodd" clip-rule="evenodd" fill="#040404" d="M101.143,197.311c2.044,0.722,2.548,0.688,3.955,1.197h-1.985     c0.11,2.866,0.11,5.866-0.179,9.982c0,0-1.961-1.491-1.961-3.366s1.5-2.25,1.5-4.125S100.973,198.375,101.143,197.311z"/>
      <path fill-rule="evenodd" clip-rule="evenodd" fill="#040404" d="M158.348,202.5c1.016,0.86,2.625,1.125,2.394,2.222     c-1.159-0.831-0.894-1.472-2.769-1.472l-1.269,1.472C156.473,203.625,158.348,202.5,158.348,202.5z"/>
      <path fill-rule="evenodd" clip-rule="evenodd" fill="#040404" d="M108.012,210.76c0,0,0.351,0.85,1.183,2.009     c-1.847,0.23-2.972,1.355-2.943,0.75l-1.395-1.932L106.6,213C107.083,212.36,107.723,211.875,108.012,210.76z"/>
      <path fill-rule="evenodd" clip-rule="evenodd" fill="#040404" d="M108.848,214.125l-1.153,1.645     c0.028,0.605,0.138,1.091,1.297,0.26c0.231,1.096-1.269,1.096-1.644,2.596C106.973,217.125,107.833,214.61,108.848,214.125z"/>
      <path fill-rule="evenodd" clip-rule="evenodd" fill="#040404" d="M153.511,242.461c1.087-0.212,2.103,0.648,2.73,1.317     c0.606-0.029,1.091-0.139,0.26-1.297c2.597-0.232,4.965,0.537,7.471,1.617c-1.707,1.111-3.374,1.9-5.249,1.9     C157.691,246,154.96,244.638,153.511,242.461z"/>
      <path fill-rule="evenodd" clip-rule="evenodd" fill="#040404" d="M181.213,251.539c-1.698,1.172-4.865,1.211-7.485,0.896     C176.229,251.269,178.598,251.25,181.213,251.539z"/>
      <path fill-rule="evenodd" clip-rule="evenodd" fill="#040404" d="M187.963,253.789c0.721,1.419,2.26,3.086,2.26,4.961     s-1.5-1.125-1.5,0.75l1.43,1.345c-1.973-0.634-3.68-1.345-3.68-3.22S187.973,253.125,187.963,253.789z"/>
      <path fill-rule="evenodd" clip-rule="evenodd" fill="#040404" d="M163.598,292.875h5.25H163.598z M164.348,290.625     c-2.132,1.106-4.5,1.125-6.75,0.75C159.848,291,161.979,291.019,164.348,290.625z M151.598,289.875h11.25H151.598z      M134.348,289.875c-2.25,0.375-5.25,0.375-7.5,0C129.098,289.5,132.098,289.5,134.348,289.875z M180.848,271.875v4.5V271.875z      M138.934,267.76c0.289,1.114,0.289,2.614-0.086,4.114C138.473,271.125,137.762,269.458,138.934,267.76z M102.098,253.125     c0.375,1.5,1.015,4.016-0.219,4.805C102.512,255.958,101.723,254.625,102.098,253.125z M157.598,244.125h5.25H157.598z      M107.16,219.8c6.468,6.826,4.313,14.48,4.242,20.355c2.064,0.613,4.196-0.156,6.82,0.191c-2.851,0.773,3.593,3.424,5.932,4.311     c0.069,0.967-1.638,1.303-2.932,1.691c1.995,0.42,4.007,1.17,6.595,0.472c0.156,1.054,0.116,2.387,0.531,3.679     c0.415-1.292,1.125-2.625,1.5-4.125c0.375,0.75,0.372,2.204,1.048,8.479c-0.901,0.237-2.47-1.996-3.748,1.904h3.824     c-2.482,0.771-1.274,0.512-3,1.594c0.468,0.073,1.854,0.809,0.742,3.693l1.165,1.207c0.454-0.642,0.454-2.142,1.613-2.973     c0.231,1.846,0.231,4.096,0.122,6.831c1.235-0.11,2.735-0.11,4.235,0.265c-0.75,0.375-1.875,0.75-1.931,1.304     c0,0-0.694,0.571,1.181,0.571s1.875-2.25,3.75-2.25s0,1.5,1.875,1.5s0.86-0.109,0.028-1.268c1.097-0.232,2.182,1.476,2.657,2.772     c0.425-0.645,1.065-1.13,1.175-2.145c1.015-0.11,2.14,1.39,4.015,1.39s0.375-1.5,2.25-1.5s-1.125,1.5,0.75,1.5     s-0.375-1.5,1.5-1.5s2.082,1.54,3.38,1.065l-1.505-1.462c0.859-0.993,2.359-1.743,3-2.229c-0.641-0.484-0.859-1.234-1.875-0.75     l0.884-1.6v-2.545c-0.618,0.66-0.884,2.27-2.709,2.081c0.939-1.97,1.288-5.383,2.371-7.372l-1.304,1.561     c-1.008-0.859-1.758-2.359-2.242-3.375c1.016,0.485,1.766,1.985,2.25,2.625c0.484-0.64,1.125,0.375,1.125-1.5     s-1.488-5.533-2.175-8.85c11.162-0.524,10.425,10.162,10.425,17.1c0,1.875,1.5,7.875,1.5,9.75s-0.958,2.961-2.25,3.395     c3.105,1.727,3.188,4.855,7.5,4.855c1.875,0,2.625-1.5,4.5-1.5s1.391,1.61,1.875,2.25l1.127-1.17     c-1.605-1.779-2.252-4.268-2.252-5.58c0-1.875,0.803-6.567,3.049-9.939c-1.174,0.189-3.257,0.15-5.151,0.863     c0.61-4.121-0.136-8.64,1.133-11.92v5.314h4.96c0.619-0.708,0.51-1.193,0.688-2.262c3.552,1.577,3.666,4.548,3.546,7.681     c0.667,0.623-0.349,0.513,1.526,0.513s2.359-2.14,3.435-2.995c0,0,0.69,1.12,0.69,1.87c0,0-0.266-0.484-0.75-1.125     c-1.234,1.391-1.125,3.375-1.125,5.25c0,1.031,0.281,4.031,1.875,4.875c-1.406,2.344-0.375,4.125-0.664,4.866     c0,0-0.352-0.851-0.836-1.491l-1.126,1.152l1.462,1.64c-1.836,0.208-0.711-0.167-0.711,1.708s-0.859,0.641-1.5,1.125l1.482,1.613     c-3.992,1.463-2.154,1.465-3.41,3.155l-0.363-1.735V283.5c-0.818,0.641-2.318,0.641-2.964,1.065c1.297,0.475,1.297,1.975,3,3     c-0.854,1.075-1.495,2.31-1.604,3.325c-1.016,0.109-2.781-0.75-4.016-2.141c-0.484,0.641-1.125,1.875-1.356,3.722     c-1.159-0.831-2.303,0.018-5.624,0.699c-0.145-1.046,0.715-2.28,0.241-2.921c-1.23,1.563-1.701,1.825-2.016,3.659l-26.87-1.04     c1.125-0.369,1.707-1.829,3.005-2.304c-0.646-0.425-2.145-0.425-2.546-1.074c-0.667,2.476-0.455,0.253-2.041,2.118     c0,0,0.457,1.641-1.418,1.626h-2.024c-0.725-0.523-5.851-2.235-6.226-2.235c-1.875,0-3,1.5-4.875,1.5     c-0.656,0-4.934-1.06-5.255-2.25c0,0-0.37,0.375-0.544,1.442c-13.112-6.072-17.169-14.192-18.95-14.192     c-1.875,0-0.375,0.375-0.75,1.125c-0.375-1.5-1.875-4.125-1.875-6s-1.39-2.734-3-4.51c2.843-2.707,0.75-3.553,0.75-3.74     c0-1.875,1.61-1.015,2.255-1.439c0,0-0.38-0.436-1.434-0.545v-4.17c0.789-0.86,2.289-0.86,2.957-1.488     c-0.028-0.607-1.153-0.982-2.231-1.175c1.885-3.381,0.058-10.494,5.984-10.081c0,0,0.344-0.977-1.452-1.12     c0,0-0.04-1.898,0.827-2.927c-0.266,0.711,0.484,0.931,0.969,1.57c0.485-0.64,0.375,0.375,0.375-1.5s-0.375-1.5-1.125-1.875     c0.75-0.375,3.75-1.5,3.75,0.375c0-1.875-0.75-0.75-1.847-0.98c0.832-1.159,2.261-2.227,1.787-3.523l-3.212,2.888     c0.757-1.273,0.687-2.676,1.772-4.384c0,0,0.265,0.86,0.606,1.529c-0.231-2.654,1.269-7.154,1.269-9.029     S107.742,222.494,107.16,219.8z"/>
      <path fill-rule="evenodd" clip-rule="evenodd" fill="#040404" d="M163.598,292.875h5.25H163.598z"/>
      <path fill-rule="evenodd" clip-rule="evenodd" fill="#040404" d="M164.348,290.625c-2.132,1.106-4.5,1.125-6.75,0.75     C159.848,291,161.979,291.019,164.348,290.625z"/>
      <path fill-rule="evenodd" clip-rule="evenodd" fill="#040404" d="M151.598,289.875h11.25H151.598z"/>
      <path fill-rule="evenodd" clip-rule="evenodd" fill="#040404" d="M134.348,289.875c-2.25,0.375-5.25,0.375-7.5,0     C129.098,289.5,132.098,289.5,134.348,289.875z"/>
      <path fill-rule="evenodd" clip-rule="evenodd" fill="#040404" d="M180.848,271.875v4.5V271.875z"/>
      <path fill-rule="evenodd" clip-rule="evenodd" fill="#040404" d="M138.934,267.76c0.289,1.114,0.289,2.614-0.086,4.114     C138.473,271.125,137.762,269.458,138.934,267.76z"/>
      <path fill-rule="evenodd" clip-rule="evenodd" fill="#040404" d="M102.098,253.125c0.375,1.5,1.015,4.016-0.219,4.805     C102.512,255.958,101.723,254.625,102.098,253.125z"/>
      <path fill-rule="evenodd" clip-rule="evenodd" fill="#040404" d="M157.598,244.125h5.25H157.598z"/>
      <path fill-rule="evenodd" clip-rule="evenodd" fill="#040404" d="M107.16,219.8c6.468,6.826,4.313,14.48,4.242,20.355     c2.064,0.613,4.196-0.156,6.82,0.191c-2.851,0.773,3.593,3.424,5.932,4.311c0.069,0.967-1.638,1.303-2.932,1.691     c1.995,0.42,4.007,1.17,6.595,0.472c0.156,1.054,0.116,2.387,0.531,3.679c0.415-1.292,1.125-2.625,1.5-4.125     c0.375,0.75,0.372,2.204,1.048,8.479c-0.901,0.237-2.47-1.996-3.748,1.904h3.824c-2.482,0.771-1.274,0.512-3,1.594     c0.468,0.073,1.854,0.809,0.742,3.693l1.165,1.207c0.454-0.642,0.454-2.142,1.613-2.973c0.231,1.846,0.231,4.096,0.122,6.831     c1.235-0.11,2.735-0.11,4.235,0.265c-0.75,0.375-1.875,0.75-1.931,1.304c0,0-0.694,0.571,1.181,0.571s1.875-2.25,3.75-2.25     s0,1.5,1.875,1.5s0.86-0.109,0.028-1.268c1.097-0.232,2.182,1.476,2.657,2.772c0.425-0.645,1.065-1.13,1.175-2.145     c1.015-0.11,2.14,1.39,4.015,1.39s0.375-1.5,2.25-1.5s-1.125,1.5,0.75,1.5s-0.375-1.5,1.5-1.5s2.082,1.54,3.38,1.065     l-1.505-1.462c0.859-0.993,2.359-1.743,3-2.229c-0.641-0.484-0.859-1.234-1.875-0.75l0.884-1.6v-2.545     c-0.618,0.66-0.884,2.27-2.709,2.081c0.939-1.97,1.288-5.383,2.371-7.372l-1.304,1.561c-1.008-0.859-1.758-2.359-2.242-3.375     c1.016,0.485,1.766,1.985,2.25,2.625c0.484-0.64,1.125,0.375,1.125-1.5s-1.488-5.533-2.175-8.85     c11.162-0.524,10.425,10.162,10.425,17.1c0,1.875,1.5,7.875,1.5,9.75s-0.958,2.961-2.25,3.395c3.105,1.727,3.188,4.855,7.5,4.855     c1.875,0,2.625-1.5,4.5-1.5s1.391,1.61,1.875,2.25l1.127-1.17c-1.605-1.779-2.252-4.268-2.252-5.58     c0-1.875,0.803-6.567,3.049-9.939c-1.174,0.189-3.257,0.15-5.151,0.863c0.61-4.121-0.136-8.64,1.133-11.92v5.314h4.96     c0.619-0.708,0.51-1.193,0.688-2.262c3.552,1.577,3.666,4.548,3.546,7.681c0.667,0.623-0.349,0.513,1.526,0.513     s2.359-2.14,3.435-2.995c0,0,0.69,1.12,0.69,1.87c0,0-0.266-0.484-0.75-1.125c-1.234,1.391-1.125,3.375-1.125,5.25     c0,1.031,0.281,4.031,1.875,4.875c-1.406,2.344-0.375,4.125-0.664,4.866c0,0-0.352-0.851-0.836-1.491l-1.126,1.152l1.462,1.64     c-1.836,0.208-0.711-0.167-0.711,1.708s-0.859,0.641-1.5,1.125l1.482,1.613c-3.992,1.463-2.154,1.465-3.41,3.155l-0.363-1.735     V283.5c-0.818,0.641-2.318,0.641-2.964,1.065c1.297,0.475,1.297,1.975,3,3c-0.854,1.075-1.495,2.31-1.604,3.325     c-1.016,0.109-2.781-0.75-4.016-2.141c-0.484,0.641-1.125,1.875-1.356,3.722c-1.159-0.831-2.303,0.018-5.624,0.699     c-0.145-1.046,0.715-2.28,0.241-2.921c-1.23,1.563-1.701,1.825-2.016,3.659l-26.87-1.04c1.125-0.369,1.707-1.829,3.005-2.304     c-0.646-0.425-2.145-0.425-2.546-1.074c-0.667,2.476-0.455,0.253-2.041,2.118c0,0,0.457,1.641-1.418,1.626h-2.024     c-0.725-0.523-5.851-2.235-6.226-2.235c-1.875,0-3,1.5-4.875,1.5c-0.656,0-4.934-1.06-5.255-2.25c0,0-0.37,0.375-0.544,1.442     c-13.112-6.072-17.169-14.192-18.95-14.192c-1.875,0-0.375,0.375-0.75,1.125c-0.375-1.5-1.875-4.125-1.875-6s-1.39-2.734-3-4.51     c2.843-2.707,0.75-3.553,0.75-3.74c0-1.875,1.61-1.015,2.255-1.439c0,0-0.38-0.436-1.434-0.545v-4.17     c0.789-0.86,2.289-0.86,2.957-1.488c-0.028-0.607-1.153-0.982-2.231-1.175c1.885-3.381,0.058-10.494,5.984-10.081     c0,0,0.344-0.977-1.452-1.12c0,0-0.04-1.898,0.827-2.927c-0.266,0.711,0.484,0.931,0.969,1.57c0.485-0.64,0.375,0.375,0.375-1.5     s-0.375-1.5-1.125-1.875c0.75-0.375,3.75-1.5,3.75,0.375c0-1.875-0.75-0.75-1.847-0.98c0.832-1.159,2.261-2.227,1.787-3.523     l-3.212,2.888c0.757-1.273,0.687-2.676,1.772-4.384c0,0,0.265,0.86,0.606,1.529c-0.231-2.654,1.269-7.154,1.269-9.029     S107.742,222.494,107.16,219.8z"/>
      <path fill-rule="evenodd" clip-rule="evenodd" fill="#A39580" d="M138.098,4.743h2.515c0.11,0.882,0.86,0.882,0.86,2.757     s-1.5-0.375-1.5,1.5s0.375,0.75,1.472,0.981c-0.832,1.159-1.679-0.271-3.651,0.363l1.476-1.539c0,0-1.656,0.084-2.671,0.569     c0.485-1.015,1.125-0.375,1.125-2.25s-0.375-0.375-1.125-0.75c1.5-0.375,1.667,0.415,2.94,1.13l1.186-1.16     C140.083,5.89,138.848,5.25,138.098,4.743z"/>
      <path fill-rule="evenodd" clip-rule="evenodd" fill="#A39580" d="M139.598,22.176h-4.111     C138.088,20.306,136.035,21.75,139.598,22.176z"/>
      <path fill-rule="evenodd" clip-rule="evenodd" fill="#A39580" d="M132.402,35.406c-0.789,1.234-1.539,2.734-2.698,3.566     c-0.231-1.097-0.606-2.222-1.356-2.597C129.098,36,130.43,36.04,132.402,35.406z"/>
      <path fill-rule="evenodd" clip-rule="evenodd" fill="#A39580" d="M131.833,39.11c1.015-0.11,1.39,1.015,1.361,1.909     c-0.831,0.872-2.764,0.942-4.461-0.229c1.115-0.289,2.615,0.461,3.222,0.49C132.583,40.61,131.833,39.11,131.833,39.11z"/>
      <path fill-rule="evenodd" clip-rule="evenodd" fill="#A39580" d="M133.598,42.375c0.375,2.25,1.125,4.875,1.125,6.75     s0.375,0.375,1.444,0.553c0,0-0.694,0.947-0.983,2.062c0,0-0.351-0.85-0.836-1.49c-0.485,0.64-0.375,1.125-0.75,1.875     c-0.375-1.5-1.5-0.375-2.615-0.664c0,0,0.85-0.352,1.49-0.836c-0.64-0.485-1.125,0.375-1.125-1.5c0,1.875,0.75,0.375,1.356,0.404     c0.628-0.669,0.519-0.029,0.519-1.904s-1.5-1.875-1.5-3.75S133.223,43.125,133.598,42.375z"/>
      <path fill-rule="evenodd" clip-rule="evenodd" fill="#A39580" d="M128.348,67.125c0.375,1.5,0.375,3.75,0,5.25     C127.973,70.875,127.973,68.625,128.348,67.125z"/>
      <path fill-rule="evenodd" clip-rule="evenodd" fill="#A39580" d="M132.23,96.375v4.235c0.618-0.11,0.883,0.75,1.308,1.395     c0.475-1.297-0.315-3.38-0.259-5.077c0,0,0.804-0.068,2.016-0.872c-0.591,2.688-0.591,4.7-0.054,7.416     c0,0-0.409-0.832-0.894-1.472c-0.485,0.64-1.985,0.64-4.32,2.236v-3.6c0.57-0.136,0.835,1.474,1.233,2.124     C131.742,100.756,131.723,98.625,132.23,96.375z"/>
      <path fill-rule="evenodd" clip-rule="evenodd" fill="#A39580" d="M132.848,105.75c1.875,0,4.113,1.033,4.113,1.033     c-0.848,1.107-1.488,1.592-1.598,2.827c0.485-0.11-0.265,0.64,1.61,0.64s0.75-1.125,1.071-1.504     c-0.055,1.329-1.936,3.559-3.24,3.669v-4.655c-0.721-0.62,0.294-0.51-1.581-0.51s-1.5,0.375-1.875,1.125     C130.973,106.875,130.973,105.75,132.848,105.75z"/>
      <path fill-rule="evenodd" clip-rule="evenodd" fill="#A39580" d="M129.848,107.625c0.375,0.75,0.375,2.25,0.144,4.097     C128.833,110.89,129.473,109.125,129.848,107.625z"/>
      <path fill-rule="evenodd" clip-rule="evenodd" fill="#A39580" d="M129.991,114.779c0.231,1.096-0.519,2.596-0.894,4.096     C128.723,117.375,128.833,115.61,129.991,114.779z"/>
      <path fill-rule="evenodd" clip-rule="evenodd" fill="#A39580" d="M138.098,121.125c0.415-1.667,1.5-3,1.5-4.875     c0,1.875,0.375-0.844,0.375,1.031S139.183,119.793,138.098,121.125z"/>
      <path fill-rule="evenodd" clip-rule="evenodd" fill="#A39580" d="M136.973,125.625c0,1.875-0.75,2.25-0.86,4.015     c-1.015,0.11-1.5-1.28-1.015-0.64c0.485-0.64,0.375,0,0.375-1.875s-0.375-1.875-1.875-2.25     C135.098,124.5,136.973,123.75,136.973,125.625z"/>
      <path fill-rule="evenodd" clip-rule="evenodd" fill="#A39580" d="M130.684,124.51c0.289,1.865,0.082,3.029,1.779,4.201     c-1.115,0.289-1.6,0.929-2.758,1.761C129.473,128.625,129.512,126.208,130.684,124.51z"/>
      <path fill-rule="evenodd" clip-rule="evenodd" fill="#A39580" d="M140.46,126.01v4.463     C139.333,129.64,139.262,127.708,140.46,126.01z"/>
      <path fill-rule="evenodd" clip-rule="evenodd" fill="#A39580" d="M128.288,132.005c1.075,0.855,2.575,1.605,3.358,2.477v3.438     h-3.509C127.262,136.293,127.262,133.708,128.288,132.005z"/>
      <path fill-rule="evenodd" clip-rule="evenodd" fill="#A39580" d="M134.348,132c1.015,0.86,1.125,1.5,3,1.5     s1.985-0.64,3.144-1.471c0.231,1.846,0.122,4.581,0.953,5.74c-1.097,0.231-2.182-0.726-2.597-2.019     c-0.415,1.293-2.083,1.46-3.664,2.18h-2.653v-4.191L134.348,132z"/>
      <path fill-rule="evenodd" clip-rule="evenodd" fill="#A39580" d="M134.779,139.605h4.969l1.684,1.94     c-1.834,0.205-2.417,1.666-3.714,2.14c0.645,0.425,1.395,0.425,1.88,1.44c-1.015-0.485-2.25-0.375-3.197-0.431     c0,0-0.068-0.804-0.553-1.819c1.015,0.485,1.235,0.485,1.875,0C137.083,142.39,135.512,141.543,134.779,139.605z"/>
      <path fill-rule="evenodd" clip-rule="evenodd" fill="#A39580" d="M140.613,146.364c0.11,1.011,0.485,2.136,1.235,2.511     c-0.75,0.375-1.381,1.856-4.097,2.395c0,0,0.832-0.409,1.477-0.834c-1.298-0.475-3.212-0.475-4.505-0.061     c0,0,0.375,0.375,1.125,0.75c-0.75,0.375-1.765-0.484-2.597-1.643c2.597-0.232,4.728-0.213,6.722-0.607     c-1.994-0.394-4.125-0.375-6.375-0.75c0.75-0.375,1.875,0,1.978-1.761H140.613z"/>
      <path fill-rule="evenodd" clip-rule="evenodd" fill="#A39580" d="M127.598,153.375c0.75-0.375,2.417-0.335,3.446,0.531     C130.333,153.64,129.098,153.75,127.598,153.375z"/>
      <path fill-rule="evenodd" clip-rule="evenodd" fill="#A39580" d="M134.879,153.175v4.324c0,0-0.844-1.666-2.371-4.324H134.879z"/>
      <path fill-rule="evenodd" clip-rule="evenodd" fill="#A39580" d="M136.338,153.11c1.01-0.11,2.135,1.39,4.01,1.39     s1.125-0.375,1.5-1.125c0.375,0.75,0.265,1.985,1.12,3.061c-1.703,1.025-3.37,1.814-4.87,1.439     c0.75-0.375,1.235-0.265,1.875-0.75c-0.64-0.484-1.875-0.375-3.635-0.474V153.11z"/>
      <path fill-rule="evenodd" clip-rule="evenodd" fill="#A39580" d="M142.152,159.906c-0.789,1.234-0.789,1.984-1.948,2.816     c-0.231-1.098-0.606-2.223-2.106-2.598C139.598,159.75,140.18,160.54,142.152,159.906z"/>
      <path fill-rule="evenodd" clip-rule="evenodd" fill="#A39580" d="M132.848,160.875c1.015,0.485,0,1.125,1.875,1.125     s0.75-0.375,1.125-1.125c0.375,0.75,0.485,1.235,1.5,0.75c-0.485,1.016-0.375,1.875-2.25,1.875S133.333,161.89,132.848,160.875z"/>
      <path fill-rule="evenodd" clip-rule="evenodd" fill="#A39580" d="M134.84,165.86c1.008-0.11,2.508,0.64,4.273,0.75     c0.11,1.015-1.39,1.765-1.622,2.862c-1.159-0.832-1.644-0.723-2.651-0.818V165.86z"/>
      <path fill-rule="evenodd" clip-rule="evenodd" fill="#A39580" d="M143.408,170.254c1.025,1.703,0.315,3.37-0.06,4.12     c-0.375-0.75-0.265-1.765,0.375-2.25c-0.64-0.484-1.875,0.375-2.625,0C141.848,171.75,142.333,171.11,143.408,170.254z"/>
      <path fill-rule="evenodd" clip-rule="evenodd" fill="#A39580" d="M143.667,190.678c0,0-0.054,1.212-1.069,2.071     c-1.015-0.859-2.25-1.5-4.097-1.73C139.333,189.86,142.598,190.5,143.667,190.678z"/>
      <path fill-rule="evenodd" clip-rule="evenodd" fill="#B7BDC9" d="M129.458,197.524c-3.541,2.483-4.882,3.038-6.424,6.471     c-0.312-1.87,1.188-4.12,1.366-6.688C126.265,198.04,128.348,197.25,129.458,197.524z"/>
      <path fill-rule="evenodd" clip-rule="evenodd" fill="#B7BDC9" d="M170.348,232.125c0.375,0.75,0.266,1.766-0.385,2.164     c2.003,0.48,3.503,3.48,6,4.5c-0.85,1.102-1.49,1.586-1.801,2.706c-1.542-3.335-4.658-5.245-5.314-5.245     c-1.875,0-0.375,0.375-0.606,1.472c-1.159-0.831-1.159-1.581-1.99-2.739c1.097-0.232,1.362,0.628,1.786,1.272     C168.512,234.958,169.973,233.625,170.348,232.125z"/>
      <path fill-rule="evenodd" clip-rule="evenodd" fill="#B7BDC9" d="M143.348,224.625v3.75V224.625z M141.848,216.375     c0.375,2.25,0.375,5.25,0,7.5V216.375z M136.598,216.375c-0.38,4.563-1.125,9.75-1.5,14.25     C134.723,226.125,135.478,220.814,136.598,216.375z M129.848,201.375c-0.485,1.016,0.375,1.5,0.086,2.616     c0,0-0.351-0.851-0.836-1.491c-0.485,0.641-1.875-0.75-1.875,1.125s0.375,0.375,1.125,0.75c-0.75,0.375-2.083-0.414-3.389,0.102     c0.426,0.45,2.493,2.339,4.514,2.92c-1.125,0.354-2.25,1.479-2.278,2.086c0.669,0.628,1.154,0.518,3.029,0.518     c1.688,0,4.207-0.233,3.125-2.154c1.265,0.765,1.375,1.779,1.265,2.795c-4.203,0.109-3.828,0.859-4.015,0.859     c-1.875,0,0.75-1.5-1.125-1.5s-2.458,1.461-3.806,2.072c0.056,0.553-0.054,1.038,0.575,1.707     c0.606-0.029,1.091-1.419,2.326-2.208c0,0-0.594-0.071-0.594,1.804s1.46,1.668,0.784,2.624c0,0-0.674-0.858-1.073-1.508     c-0.48,2.003,0.27,4.016,0.69,6.011c0.388-1.294,0.556-3.712,2.496-4.385c-0.322,1.101-1.583,2.372,0.37,3.649     c0.522-1.309,1.342-2.906,2.994-4.499c2.333,0.363,4.988,1.951,4.988,2.232c0,4.781-3.1,3.683-1.849,12.002     c1.118-4.245,1.868-9.495,3.543-14.205c4.021,0.902,2.349,6.563,4.641,9.705c0.454-1.294,0.415-1.877,0.415-3.752     c0-1.688,0.856-4.183-1.306-3.046c-0.194-1.079,1.416-1.563,0.931-2.579l1.5,1.125c0.484-0.64,1.016-1.39,1.861-0.475     c0,0-1.486,0.1-1.489,6.054c0.741,2.955,1.491,5.955,1.892,8.672c0.381-1.994,0.361-4.876,0.664-8.243     c1.264,2.288,4.76,9.742,13.088,9.853c0.109,1.015,0,2.03-0.641,2.515c0.641,0.485,2.25,0.75,2.625,0     c0.375,0.75,1.125,1.5,0.947,2.569c-1.865-0.733-2.182,0.166-1.697,1.181c-1.016-0.484-1.766-0.484-2.25-1.125     c-0.484,0.641-1.125,1.125-1.016,0.641c-0.484,0.109-1.984-0.641-2.591-0.669c-0.628,0.669-0.628,0.889,0.172,2.107     c-3.447-0.978-7.286-2.812-8.604-5.08c-0.445,0.642-0.544,2.212-2.376,2.964c-0.952-4.014-0.955-8.525-1.342-12.713     c-0.375,3.449-0.368,7.875-0.6,11.222c-1.159-0.831-1.644-1.472-2.878-1.581c0.11,0.484,0,1.72,0.802,2.936     c-1.755-0.316-3.26,0.748-4.859-2.078c-0.442,0.643-0.54,1.463-2.405,2.196c-0.178-1.819-0.159-3.95-0.613-5.948     c-0.765,1.354,1.022,3.876-2.365,5.962c-0.2-6.333-0.95-13.083-0.669-18.72c-2.391,4.882-0.657,13.204-0.5,18.729     c-1.171-0.826-2.406-1.467-3.646-1.576v3.76c-1.01,0.1-0.525-1.51-1.07-2.154c-1.272,0.715-3.69,2.254-5.565,2.254     c-3.281,0-3.75-5.813-3.75-7.875c0-1.406-1.5-5.813-1.5-7.875c0-3.469,0.54-7.153,3.001-8.659     c-0.642-0.45-1.126-1.091-2.179-1.244c0.508-2.115,1.428-5.847,1.428-6.972c0-1.875,2.25,0.75,2.25-1.125s-1.5,0.75-1.5-1.125     s1.5-2.25,1.875-3c0.375,0.75-0.375,1.5-0.404,2.107c0.669,0.628-0.346,0.518,1.529,0.518s1.5-3,3.375-3s-1.125,1.5,0.75,1.5     S128.833,201.86,129.848,201.375z"/>
      <path fill-rule="evenodd" clip-rule="evenodd" fill="#B7BDC9" d="M143.348,224.625v3.75V224.625z"/>
      <path fill-rule="evenodd" clip-rule="evenodd" fill="#B7BDC9" d="M141.848,216.375c0.375,2.25,0.375,5.25,0,7.5V216.375z"/>
      <path fill-rule="evenodd" clip-rule="evenodd" fill="#B7BDC9" d="M136.598,216.375c-0.38,4.563-1.125,9.75-1.5,14.25     C134.723,226.125,135.478,220.814,136.598,216.375z"/>
      <path fill-rule="evenodd" clip-rule="evenodd" fill="#B7BDC9" d="M129.848,201.375c-0.485,1.016,0.375,1.5,0.086,2.616     c0,0-0.351-0.851-0.836-1.491c-0.485,0.641-1.875-0.75-1.875,1.125s0.375,0.375,1.125,0.75c-0.75,0.375-2.083-0.414-3.389,0.102     c0.426,0.45,2.493,2.339,4.514,2.92c-1.125,0.354-2.25,1.479-2.278,2.086c0.669,0.628,1.154,0.518,3.029,0.518     c1.688,0,4.207-0.233,3.125-2.154c1.265,0.765,1.375,1.779,1.265,2.795c-4.203,0.109-3.828,0.859-4.015,0.859     c-1.875,0,0.75-1.5-1.125-1.5s-2.458,1.461-3.806,2.072c0.056,0.553-0.054,1.038,0.575,1.707     c0.606-0.029,1.091-1.419,2.326-2.208c0,0-0.594-0.071-0.594,1.804s1.46,1.668,0.784,2.624c0,0-0.674-0.858-1.073-1.508     c-0.48,2.003,0.27,4.016,0.69,6.011c0.388-1.294,0.556-3.712,2.496-4.385c-0.322,1.101-1.583,2.372,0.37,3.649     c0.522-1.309,1.342-2.906,2.994-4.499c2.333,0.363,4.988,1.951,4.988,2.232c0,4.781-3.1,3.683-1.849,12.002     c1.118-4.245,1.868-9.495,3.543-14.205c4.021,0.902,2.349,6.563,4.641,9.705c0.454-1.294,0.415-1.877,0.415-3.752     c0-1.688,0.856-4.183-1.306-3.046c-0.194-1.079,1.416-1.563,0.931-2.579l1.5,1.125c0.484-0.64,1.016-1.39,1.861-0.475     c0,0-1.486,0.1-1.489,6.054c0.741,2.955,1.491,5.955,1.892,8.672c0.381-1.994,0.361-4.876,0.664-8.243     c1.264,2.288,4.76,9.742,13.088,9.853c0.109,1.015,0,2.03-0.641,2.515c0.641,0.485,2.25,0.75,2.625,0     c0.375,0.75,1.125,1.5,0.947,2.569c-1.865-0.733-2.182,0.166-1.697,1.181c-1.016-0.484-1.766-0.484-2.25-1.125     c-0.484,0.641-1.125,1.125-1.016,0.641c-0.484,0.109-1.984-0.641-2.591-0.669c-0.628,0.669-0.628,0.889,0.172,2.107     c-3.447-0.978-7.286-2.812-8.604-5.08c-0.445,0.642-0.544,2.212-2.376,2.964c-0.952-4.014-0.955-8.525-1.342-12.713     c-0.375,3.449-0.368,7.875-0.6,11.222c-1.159-0.831-1.644-1.472-2.878-1.581c0.11,0.484,0,1.72,0.802,2.936     c-1.755-0.316-3.26,0.748-4.859-2.078c-0.442,0.643-0.54,1.463-2.405,2.196c-0.178-1.819-0.159-3.95-0.613-5.948     c-0.765,1.354,1.022,3.876-2.365,5.962c-0.2-6.333-0.95-13.083-0.669-18.72c-2.391,4.882-0.657,13.204-0.5,18.729     c-1.171-0.826-2.406-1.467-3.646-1.576v3.76c-1.01,0.1-0.525-1.51-1.07-2.154c-1.272,0.715-3.69,2.254-5.565,2.254     c-3.281,0-3.75-5.813-3.75-7.875c0-1.406-1.5-5.813-1.5-7.875c0-3.469,0.54-7.153,3.001-8.659     c-0.642-0.45-1.126-1.091-2.179-1.244c0.508-2.115,1.428-5.847,1.428-6.972c0-1.875,2.25,0.75,2.25-1.125s-1.5,0.75-1.5-1.125     s1.5-2.25,1.875-3c0.375,0.75-0.375,1.5-0.404,2.107c0.669,0.628-0.346,0.518,1.529,0.518s1.5-3,3.375-3s-1.125,1.5,0.75,1.5     S128.833,201.86,129.848,201.375z"/>
      <line fill="none" stroke="#000000" x1="145" y1="43.339" x2="252" y2="32.339"/>
      <line fill="none" stroke="#000000" x1="146" y1="151.839" x2="250.5" y2="139.839"/>
      <line fill="none" stroke="#000000" x1="198" y1="259.339" x2="250" y2="251.839"/>
      <text transform="matrix(1 0 0 1 261.5 33.3394)">
         <tspan x="0" y="0" font-family="'Myriad-Roman'" font-size="12">Head</tspan>
      </text>
      <text transform="matrix(1 0 0 1 258.5 141.3394)">
         <tspan x="0" y="0" font-family="'Myriad-Roman'" font-size="12">Neck</tspan>
      </text>
      <text transform="matrix(1 0 0 1 258.5 252.8394)">
         <tspan x="0" y="0" font-family="'Myriad-Roman'" font-size="12">Body</tspan>
      </text>
      <text transform="matrix(1 0 0 1 0 100.3394)">
         <tspan x="0" y="0" font-family="'Myriad-Roman'" font-size="12">In the original version </tspan>
         <tspan x="0" y="14.4" font-family="'Myriad-Roman'" font-size="12">the Telecaster possesses </tspan>
         <tspan x="0" y="28.8" font-family="'Myriad-Roman'" font-size="12">two single-coil </tspan>
         <tspan x="0" y="43.2" font-family="'Myriad-Roman'" font-size="12">pick-ups.</tspan>
      </text>
   </g>
</svg>
