<?xml version="1.0" encoding="utf-8"?>
<!-- (c) Bryan Schnabel 2008 -->
<svg xmlns="http://www.w3.org/2000/svg" 
     xmlns:x="http://ns.adobe.com/Extensibility/1.0/" 
     xmlns:i="http://ns.adobe.com/AdobeIllustrator/10.0/" 
     xmlns:graph="http://ns.adobe.com/Graphs/1.0/" 
     xmlns:xlink="http://www.w3.org/1999/xlink" 
     xmlns:a="http://ns.adobe.com/AdobeSVGViewerExtensions/3.0/" 
     width="275.388" height="322.687" 
     viewBox="0 0 275.388 322.687" 
     overflow="visible" 
     enable-background="new 0 0 275.388 322.687" 
     xml:space="preserve">
   <g id="Background">
   </g>
   <g id="Guides">
   </g>
   <g id="Foreground">
      <path fill-rule="evenodd" clip-rule="evenodd" fill="#686260" d="M119.471,224.625c-0.375-4.5-0.375-9.75,0-15     C119.846,214.125,119.846,219.375,119.471,224.625z"/>
      <path fill-rule="evenodd" clip-rule="evenodd" fill="#686260" d="M122.618,211.609c0.603-0.109,0.868,0.75,1.353,1.391     c0.485-0.641,1.125-1.875,1.5-2.625c0.375,0.75-0.375,1.125,1.5,1.125s1.235-0.11,0.75-1.125c1.016,0.484,1.5,1.125,2.516,1.234     c0.109,1.016-0.433,2.101-1.567,1.334c0.177,0.432,0.067,0.916,0.552,1.932c-1.015-0.485,0-2.625-1.875-2.625     c-1.688,0-1.125,0.75-3.375,0.75c-1.875,0-1.125,1.125-1.5,1.875c-0.375-1.5-1.11-2.728,0.147-5.624V211.609z"/>
      <path fill-rule="evenodd" clip-rule="evenodd" fill="#686260" d="M125.699,225.827c-1.402,3.109-1.171,6.176-2.614,7.397     c-0.239-1.1-0.989-1.85-0.811-6.669c0,0,1.212,0.054,1.693,0.694L125.699,225.827z"/>
      <path fill-rule="evenodd" clip-rule="evenodd" fill="#686260" d="M128.614,226.528c0.231,1.097,0.342,1.581,1.5,0.75     c0.231,1.847-1.308,3.93-0.674,5.901l-2.095-1.81c0.86-1.011,1.125-3.37,1.529-3.139c-0.669-0.342-1.154-0.231-1.639-0.342     c0.109,1.235-0.75,3.75-1.967,4.582v-4.366C126.221,228,127.456,227.359,128.614,226.528z"/>
      <path fill-rule="evenodd" clip-rule="evenodd" fill="#686260" d="M146.6,234.772c0.526,3.602,6.812,6.389,9.224,9.222     c0.022,0.881-0.728,2.381-1.103,3.881c-0.375-1.5-1.855-2.369-1.054-4.28c-0.446,0.155-0.446,0.905-2.321,0.905     s-1.39-0.86-1.875-1.5c-0.484,0.64-0.484,1.39-1.5,1.875c0.485-1.016,1.125-0.75,1.125-2.625s-2.14-3.11-4.499-5.612     L146.6,234.772z"/>
      <path fill-rule="evenodd" clip-rule="evenodd" fill="#686260" d="M127.356,263.539c1.114-0.289,2.447,0.5,4.419-0.134     C130.986,264.64,129.054,264.71,127.356,263.539z M161.471,253.125c0.375,1.5,1.125,3,0.75,4.5     C161.846,256.125,161.096,254.625,161.471,253.125z M123.745,249.056c1.895,0.733,2.476,1.444,4.351,1.444s1.5-0.375,1.731-1.472     l2.013,1.918c-1.7,1.014-2.244,1.804-4.119,1.804s-1.5-0.75-3.976-0.85V249.056z M115.986,231.859     c0.109,1.016,0.82,2.684-1.134,5.871C114.853,237.73,114.971,231.75,115.986,231.859z M115.903,206.297     c0.192,1.828-0.558,4.453-0.558,6.328s1.5,6,1.5,7.875c0,2.813-1.72,6.409-0.56,9.761c-1.688-19.859-1.69-21.386-1.655-23.324     L115.903,206.297z M113.096,208.125c0,1.875-1.5,2.25-1.5,4.125s1.391,2.359,2.18,3.231v12.412     c-1.055,0.106-1.319-0.754-1.805-1.394c-0.484,0.64-1.667,1.46-2.802,0.693c0.177,0.432-0.573,1.932-0.629,2.484     c0,0-0.694,0.572,1.181,0.572s1.875-1.125,2.25-1.875c0.375,1.5,1.125,3.75,1.125,5.625c0,3.75-4.5,6-4.5,9.75     c0,1.875,2.25,0.75,2.25,2.625s-0.859,0.265-1.5,0.75c0.641,0.484,0.86,0.484,2.106-0.296c-1.315,2.832-2.309,1.502-1.638,4.433     l2.313-2.228c0.219,1.091,0.109,1.575,0.941,2.734c-1.098,0.231-2.332,0.871-3.407,1.727c-1.025-1.702-2.309-3.015-4.786-3.977     c0,0,0.081-1.159,0.807-1.404c-2.406,2.04-1.219,1.154-2.001,3.134c-0.335-1.123-1.085-0.373-1.085-2.248     c0-0.75,3.015-2.147,2.531-4.512c-0.391,0.651-1.141,2.151-2.013,2.983c-0.894,0.028-1.644-0.722-2.564-0.832v-5.882     c0,0,0.437,0.852,0.921,1.492l1.876-1.892c-0.641-0.469-1.876-0.358-2.937-0.523c1.463-4.1,2.955-8.579,4.726-13.325     c1.101,0.85,1.171,1.698,1.585,2.99c0.415-1.292,1.895-2.744,2.804-4.557l-2.202,2.276c-0.227-1.095,0.587-2.012,0.112-2.972     c-0.448,0.642-0.714,1.502-1.753,1.365c0.672-4.062,1.42-8.55,2.297-13.274c0,0,1.575,0.7,2.883,0.179     c-1.276-1.954-3.016-1.58-3.016-2.518c0-1.875-2.25-9.375-2.25-11.25s1.125-0.75,2.065-0.671v-3.053     C110.265,195.977,113.096,205.031,113.096,208.125z M81.367,192.779c2.289,16.235,7.729,11.783,7.729,24.346     c0,4.313-4.83,19.967-7.225,23.611c0.006-12.558-0.369,13.611-1.025-40.106c0-2.345-1.5-4.505-1.5-6.38L81.367,192.779z      M157.898,190.544c0.197,2.581,0.947,4.831,0.947,6.706s-1.511,7.216-2.584,10.498c0,0-0.306-0.858-0.791-1.498     c-0.484,0.64,0.375,1.875,0,3.375c-0.375-0.75-2.25,1.5-2.25-0.375c0,1.875,1.875,0,1.875,1.875s-4.5,11.25-4.5,13.125     s2.25,7.5,2.25,9.375s-1.539,0.918-2.255,2.189c0.646,0.545,1.615,1.295,2.63,0.436c1.016,0.859,1.016,2.89,0.373,3.33     c5.072,2.912,2.275,3.763,5.961,9.216c-1.084,0.204-2.415-0.586-3.714-0.111c0.646,0.425,2.049,1.104,3.745,2.368h-2.354     c0.114,0.572-0.646,0.481-0.5,1.723c0.782-0.712,2.904-0.567,4.076-2.266c0.288,1.115-1.212,1.49-1.212,3.365     s0.641,2.734,1.444,3.947c-2.688-0.592-5.569,0.928-7.819,0.553c0.75-0.375,1.125,0.375,1.125-1.5s-0.75-1.125-0.75-3     c0-2.438-1.781-4.875-4.875-4.875c-1.875,0-3.394,3.493-4.28,5.93c-0.97,0.07-1.345-1.805-1.113-2.958     c-1.091,1.418-1.548,2.145-1.86,3.715h-3.403c-1.607-1.547-6.218-4.437-6.218-6.312s1.5,1.125,1.5-0.75s-1.5,0.75-1.5-1.125     c0-0.281,0.75,0.281,0.929-2.944c0,0,0.946,0.694,2.044,0.926c-0.832,1.158-0.723,0.894-0.723,2.769c0,3.188,6,4.688,6,4.5     c0-1.875-0.375-0.75-1.125-1.125c0.75-0.375,1.766-0.266,2.25,0.375c0.485-0.641,0.375-1.125,0.375-3     c0-2.156,0.379-6.294-6.603-4.578c-0.147-1.047-0.037-2.063,0.603-2.547c-0.64-0.485-0.64-1.235-1.125-1.875l-1.164,1.293     c0,0,0.414,0.957-0.601,0.847c-0.11-1.015,0-2.03,0.642-2.484c-0.5-0.193-3.563-1.507-3.75-4.561     c0.289-1.272-3.268,0.465-0.799,2.464c-3.209-1.158-2.562-2.637-3.328-3.559c-0.484,0.64-0.414,1.708,0.319,3.572     c-1.069,0.178-2.084-0.683-2.509-1.327c0,0-0.436,0.38-0.545,1.325h-2.868c0.838-1.211,0.838-1.961,0.933-2.445v-1.126     c-0.994,1.294-1.814,2.891-2.724,3.713v-6.364c0.269-0.723,0.763,0.421,2.75,1.181c0,0,0.519,0.722,0.519-1.153     s-0.687-3.542-1.852-5.626c-0.438,1.294-0.438,2.794-1.608,4.491c-0.29-2.615-0.289-5.6-0.935-23.875     c7.863-0.115,9.926-2.365,13.02-2.365c1.875,0,7.5,2.25,9.375,2.25C148.252,206.25,149.732,195.719,157.898,190.544z M126.971,0     c6.094,0,9.375,3.469,9.375,9c0,10.406-6,2.438-6,12.75c0,1.875,0.75,7.875,0.75,9.75s3,7.875,3,9.75     c0,7.781-3.396,0.688-7.334,11.751c-1.5,4.219-0.166,12.624-0.166,14.499l2.221,128.479c0.67,0.63,3.029-0.229,3.029,1.646     s-0.859,0.265-1.514,0.65c2.73,0.485,6.764,1.975,8.639,1.975c10.125,0,14.063-18.75,16.875-18.75c7.5,0,7.5,15,7.5,16.5     c0,9.938-6.75,17.719-6.75,28.125c0,14.438,13.5,18.375,13.5,40.125c0,25.5-28.313,28.5-42.375,28.5     c-8.25,0-39.524-9.465-44.976-14.251c-7.622,8.504-6.117,20.251-19.617,20.251H48.315c-1.875,0-4.219-1.5-6.094-1.5     s-2.082-0.04-3.378,0.422c2.781,2.201,8.523,3.891,11.805,3.797C64.055,303.094,82.534,306,98.564,306h14.063     c1.875,0,4.219,1.5,4.219,3.375s-0.75,3.75-0.75,5.625c0,7.5-3.563,7.5-8.625,7.5c-1.875,0-3.75-0.75-19.5-0.75     c-0.938,0-60.375-4.781-60.375-18.75c0-5.438,11.906-13.5,13.875-13.5c1.875,0,15,2.25,16.875,2.25     c9.469,0,20.25-7.688,20.25-17.25c0-16.594-1.219,13.032-1.5-48.374c0-2.719-4.5-32.626-4.5-40.501c0-6.938,0-25.125,13.5-25.125     c1.875,0,5.625,0.75,8.823,0.806c0,0,0.927-0.056,0.927,1.819s-4.5,3-4.5,4.875c0,10.594,6.375,18,15.75,18     c1.406,0,4.515,0.647,5.252-1.927V62.531c-0.002-1.875-3.431-6.301-5.024-9.488c-0.656-1.313-0.22-3.995,0.247-6.102     c-0.417-0.617-1.767-1.23-3.418-2.119c-0.057-0.947,0.693-2.447,0.804-3.462c1.015-0.11,2.515,0.64,3.871,0.668l1.28-1.245     c-0.722-1.24-2.901-2.643-4.512-4.408c3.485-3.64,3.72-1.993,7.502-4.531c-1.204-1.017-3.658-1.844-4.387-1.954v-3.541     c1.01-0.099,0.26-0.849,2.135-0.849s1.875,2.25,3.11,2.36c-0.11-1.235-0.07-2.902,0.646-4.175     c-0.646-0.545-1.131-0.435-2.896-0.545c-0.11-1.015-0.86-1.765-0.75-4.28c1.015-0.11,0.265-0.86,2.14-0.86     s2.141,1.61,2.565,2.255c0.475-1.297,1.19-3.318,1.036-5.286c-0.768,0.718-2.477,1.531-3.491,1.421     c-0.11-1.015-0.75-5.78,0.121-6.612c0.894-0.028,2.659,0.832,3.894,2.222l1.903-2.034V7.248     c-0.668-0.607-1.903,0.252-2.797,0.224c-0.871-0.832-1.731-2.597-1.702-3.49L117.24,1.5c0.996,0.859,1.48,2.25,3.355,2.25     S125.096,0,126.971,0z"/>
      <path fill-rule="evenodd" clip-rule="evenodd" fill="#4D473F" d="M123.486,81.86c0.109,1.015,0.484,1.39,1.234,1.765     c-0.75,0.375-2.25,1.125-3.364,0.836c0,0,0.85-0.351,1.489-0.836c-0.64-0.485-1.125-0.375-1.875-0.75     C121.721,82.5,122.471,81.75,123.486,81.86z"/>
      <path fill-rule="evenodd" clip-rule="evenodd" fill="#4D473F" d="M112.458,84.115h3.539c0.099,1.01,1.599,1.479,1.539,3.354     v5.431c-1.065,0.101-1.815,0.851-5.078,0.745V84.115z"/>
      <path fill-rule="evenodd" clip-rule="evenodd" fill="#4D473F" d="M124.336,94.211c-1.115,0.289-2.615,0.289-4.461,0.058     C120.706,93.11,122.64,93.04,124.336,94.211z"/>
      <path fill-rule="evenodd" clip-rule="evenodd" fill="#4D473F" d="M112.451,94.675h5.87c-0.835,1.215-1.476,0.575-1.476,2.45     s1.5,0,1.438,1.875v3.654c-1.063,0.096-2.827,0.736-3.607-0.509c3.018,1.407,3.984,7.295,5.332,5.039     c-0.271,0.707,0.588,0.066,0.588,1.941s-2.344,3.375-4.219,3.314h-3.926V94.675z"/>
      <path fill-rule="evenodd" clip-rule="evenodd" fill="#4D473F" d="M119.471,224.625c-0.375-4.5-0.375-9.75,0-15     C119.846,214.125,119.846,219.375,119.471,224.625z"/>
      <path fill-rule="evenodd" clip-rule="evenodd" fill="#4D473F" d="M122.618,211.609c0.603-0.109,0.868,0.75,1.353,1.391     c0.485-0.641,1.125-1.875,1.5-2.625c0.375,0.75-0.375,1.125,1.5,1.125s1.235-0.11,0.97-0.82c0,0,0.905,0.445,0.796,1.46     c-1.016,0.11-3.641-1.765-3.641,0.11s0.375,0.75,1.125,1.125c-0.563,0.375-2.106-0.76-3.842,1.864     c-0.283-1.864-1.019-3.092,0.239-5.988V211.609z"/>
      <path fill-rule="evenodd" clip-rule="evenodd" fill="#4D473F" d="M125.699,225.827c-1.402,3.109-1.171,6.176-2.614,7.397     c-0.239-1.1-0.989-0.35-0.989-2.225s1.5,0.375,1.5-1.5s-1.5-1.875-1.321-2.944c0,0,1.212,0.054,1.693,0.694L125.699,225.827z"/>
      <path fill-rule="evenodd" clip-rule="evenodd" fill="#4D473F" d="M128.614,226.528c0.231,1.097,0.342,1.581,1.5,0.75     c0.231,1.847-1.308,3.93-0.674,5.901l-2.095-1.81c0.86-1.011,1.125-3.37,1.529-3.139c-0.669-0.342-1.154-0.231-1.639-0.342     c0.109,1.235-0.75,3.75-1.967,4.582v-4.366C126.221,228,127.456,227.359,128.614,226.528z"/>
      <path fill-rule="evenodd" clip-rule="evenodd" fill="#4D473F" d="M146.986,237.833c2.693,1.48,5.71,3.742,8.82,6.125     c0.039,0.917-0.711,2.417-1.086,3.917c-0.375-0.75-0.265-1.766,0.375-2.25c-2.14-1.985-3.984-1.207-5.604-2.626     c-0.506,0.641-0.506,1.391-1.521,1.876c0.485-1.016,1.125-0.75,1.125-2.625C149.096,242.063,147.716,240.418,146.986,237.833z"/>
      <path fill-rule="evenodd" clip-rule="evenodd" fill="#4D473F" d="M128.261,261.064c0.96-0.064,1.71,1.436,3.469,1.545v2.782     h-3.535C128.096,264.375,127.373,263.11,128.261,261.064z M113.226,260.342l5.854,0.922c-0.844,1.126-0.734,1.236-2.609,1.236     S113.096,261.375,113.226,260.342z M124.163,261.697c0,0,0.183-0.697-1.692-0.697s-1.875,1.125-2.25,1.875     c-0.375-0.75,0.266-2.516,0.811-1.87C120.991,260.946,124.439,258.575,124.163,261.697z M114.364,255.028     c0.231,1.097-0.894,1.472,0.981,1.472s7.125-1.5,9-1.5c1.031,0,4.694,1.072,4.893,1.501l1.65-1.462     c0.207,1.086-0.543,1.836-0.703,2.895c-4.096-1.364-6.965,0.816-6.965,0.816c-1.875,0-3.167-1.54-4.381-2.27     c-0.533,1.313-0.494,2.27-2.369,2.27s1.125-1.5-0.75-1.5c-0.375,0-0.046,1.122-3.373,0.352     C114.221,257.25,113.206,255.859,114.364,255.028z M161.471,253.125c0.375,1.5,1.125,3,0.75,4.5     C161.846,256.125,161.096,254.625,161.471,253.125z M126.372,252.778l5.468,1.99h-5.468V252.778z M123.745,249.056     c1.895,0.733,2.476,1.444,4.351,1.444s1.5-0.375,1.731-1.472l2.013,1.918c-1.7,1.014-2.244,1.804-4.119,1.804     s-1.5-0.75-3.976-0.85V249.056z M115.986,231.859c0.109,1.016,0.859,2.516,0.628,6.612l-2.005-1.751     C114.609,236.721,114.971,231.75,115.986,231.859z M115.903,206.297c0.192,1.828-0.558,4.453-0.558,6.328s1.5,6,1.5,7.875     c0,2.813-1.72,6.409-0.56,9.761c-1.688-19.859-1.69-21.386-1.655-23.324L115.903,206.297z M128.775,198.155     c-0.789,1.234-2.555,1.345-4.4,1.113C125.206,198.109,126.804,198.789,128.775,198.155z M121.27,198.147     c0,0-0.674,0.978-0.905,2.074c-1.158-0.832-2.394-0.722-3.516-1.053L121.27,198.147z M108.077,194.278     c1.909,1.581,4.909,2.331,6.519,4.097c-0.859,1.015-1.609,1.015-2.25,1.5c2.141,1.984,4.649,1.504,7.499,2.277     c-2.624,0.348-5.624,0.348-8.276,0.116c1.418,1.091,1.527,3.231,1.527,5.106s-1.5,3-1.5,4.875s1.391,2.359,2.18,3.231v12.412     c-1.055,0.106-1.319-0.754-1.805-1.394c-0.484,0.64-1.667,1.46-2.802,0.693c0.177,0.432-0.573,1.932-0.629,2.484     c0,0-0.694,0.572,1.181,0.572s1.875-1.125,2.25-1.875c0.375,1.5,1.125,3.75,1.125,5.625c0,3-3.75,4.781-3.75,7.125     c0,1.875,1.5-0.75,1.432,1.125v2.165c-1.057,0.085-1.057-0.665-2.291-0.775c0.109,0.485,2.359,0.485,2.359,2.36     s-0.859,0.64-1.5,1.125c0.641,0.484,0.86,0.484,2.106-0.296c-1.315,2.832-2.309,1.502-1.638,4.433l2.313-2.228     c0.219,1.091,0.109,1.575,0.941,2.734c-1.098,0.231-2.332,0.871-3.407,1.727c-1.025-1.702-2.309-3.015-4.786-3.977     c0,0,0.081-1.159,0.807-1.404c-2.406,2.04-1.219,1.154-2.001,3.134c-0.335-1.123-1.085-0.373-1.085-2.248     c0-0.75,3.015-2.147,2.531-4.512c-0.391,0.651-1.141,2.151-2.013,2.935h-3.423c-0.096-1.798,0.654-4.048,0.944-6.663     c0,0,0.351,0.85,0.835,1.49l1.898-1.748c-1.148,0.248-3.398-1.252-2.867-1.181c0.613-2.065,0.594-3.071,0.594-4.946     s0.75-0.375,0.75-2.25s2.27-3.119,3.29-5.615c1.101,0.85,1.171,1.698,1.585,2.99c0.415-1.292,1.895-2.744,2.804-4.557     l-1.999,2.303c0,0-0.805-0.746-1.873-0.856v-4.791c0.32-4.412,2.758-6.559,3.062-9.997c1.007-0.102,1.007,0.648,2.142,0.941     c-1.765-0.517-2.166-1.043-3.615-1.122c-0.883-3.205-0.895-8.171-0.895-10.046s-0.375-1.125-1.486-1.402     c2.891-2.015,1.044-1.654,2.986-2.351c0,0-0.375-0.372-1.489-0.661c0,0,1.489,1.039,1.489-0.836s-0.375-0.375-1.478-0.625     C106.368,195.5,107.846,195.375,108.077,194.278z M158.697,190.575c-1.389,3.557-0.602,10.425-0.602,14.55     c0,1.875-1.5,1.5-1.644,2.546c0,0-1.731,1.204-1.731-0.671c0,1.875,1.016,1.609,1.848,2.769     c-1.098,0.231-2.332-0.629-2.973-0.144c0.641,0.484,1.391,0.484,2.248,1.458c-4.461,7.272-4.498,7.354-4.498,14.292     c0,0.375,0.725,5.913,2.244,7.434c-0.783,1.734-2.283,1.734-2.999,3.006c0.646,0.545,1.615,1.295,2.63,0.436     c1.016,0.859,1.016,2.89,0.348,3.231c1.152-0.231,2.821,2.058,4.522,3.083c-0.854,1.075-1.495,1.186-1.495,3.061     s1.294,1.164,2.911,2.053v3.477h-2.286c0.125,0.471-0.636,0.38-0.453,1.637c1.564-0.765,3.036-1.502,5.008-2.136     c-0.789,1.234-2.18,1.345-2.18,3.22s0.641,2.734,1.444,3.947c-2.688-0.592-5.569,0.928-7.819,0.553     c0.75-0.375,1.125,0.375,1.125-1.5s-0.75-1.125-0.75-3c0-2.438-1.781-4.875-4.875-4.875c-1.875,0-3.394,3.493-4.28,5.93     c-0.97,0.07-1.345-1.805-1.113-2.958c-1.091,1.418-1.548,2.145-1.86,3.672h-3.522c-0.099-1.769,1.026-1.394-0.849-1.394     s-2.625,2.25-4.125,1.875c0,0,0.266-1.016,0.75-0.375c0.485-0.641,1.125-0.75,1.125-2.625s-3-1.875-3-3.75s1.5,1.125,1.5-0.75     s-1.5,1.125-1.5-0.75s0.75-2.25,0.929-3.319c0,0,0.946,0.694,2.044,0.926c-0.832,1.158-0.723,0.894-0.723,2.769     c0,3.188,6,4.688,6,4.5c0-1.875-0.375-0.75-1.125-1.125c0.75-0.375,1.766-0.266,2.25,0.375c0.485-0.641,0.375-1.125,0.375-3     c0-2.156,0.379-6.294-6.603-4.578c-0.147-1.047-0.037-2.063,0.603-2.547c-0.64-0.485-0.64-1.235-1.125-1.875l-1.164,1.293     c0,0,0.414,0.957-0.601,0.847c-0.11-1.015,0-2.03,0.642-2.484c-0.5-0.193-3.563-1.507-3.75-4.561     c0.289-1.272-3.268,0.465-0.799,2.464c-3.209-1.158-2.562-2.637-3.328-3.559c-0.484,0.64-0.414,1.708,0.319,3.572     c-1.069,0.178-2.084-0.683-2.509-1.327c0,0-0.436,0.38-0.545,1.325h-2.868c0.838-1.211,0.838-1.961,0.933-2.445v-1.126     c-0.994,1.294-1.814,2.891-2.724,3.713v-6.364c0.269-0.723,0.909,0.512,1.537,1.181c0.606-0.028,1.092-0.669,1.735-1.104     c-1.127-0.474-3.16-1.759-5.095-1.244c-0.159-1.056,1.451-1.321,2.097-1.866c-0.716-1.271-1.506-2.471-1.449-4.346v-18.362     c4.068-0.106,9.693-0.106,11.568-0.106s1.125-1.5,3-1.5c0.281,0,7.031,2.25,7.875,2.25     C150.877,206.25,151.846,196.314,158.697,190.575z M116.471,190.875c6.75-0.375,7.5,0.375,8.25,0.883h-2.734     c0.109,0.617-0.641,2.117-0.75,3.488h6.109c-3.375,0.504-7.198,0.497-10.514-0.519c3.051,0.765,2.44-1.264,4.515-2.335     C120.054,191.96,117.971,191.25,116.471,190.875z M79.506,190.504c5.824,17.512,9.59,11.152,9.59,26.621     c0,4.313-4.83,19.967-7.175,23.622c-1.109-4.057-1.51-5.104-1.58-6.175c-0.145-2.219,1.138-4.53,0.505-33.939     c0-1.5-1.5-3.289-1.34-5.164V190.504z M114.971,187.125h5.25H114.971z M120.971,186.276h4.069c0,0-0.694,0.849-0.926,1.945     C122.956,187.39,121.721,186.75,120.971,186.276z M113.471,182.625h7.5H113.471z M113.471,178.125h6.75H113.471z M122.856,172.79     h5.23C126.39,173.96,124.554,173.96,122.856,172.79z M116.471,172.875c1.669,0.414,3.919-0.336,5.615,0.836     C120.221,174,117.804,173.96,116.471,172.875z M123.606,167.513h4.463C127.236,168.64,125.304,168.71,123.606,167.513z      M116.471,167.625c1.669,0.414,3.75-0.375,6.37-0.06C120.34,168.73,117.804,168.71,116.471,167.625z M121.721,157.125     c-1.5,0.375-3.75,0.375-6,0H121.721z M125.471,151.168h-4.864C122.304,150.04,123.971,150.75,125.471,151.168z M115.721,150.375     h4.5C118.721,150.75,117.221,150.75,115.721,150.375z M113.471,143.625c4.5-0.375,8.939,0.38,13.5,0     C122.533,144.745,117.971,144,113.471,143.625z M121.793,137.404c-0.407-0.361,0.678-0.904-1.197-0.904s-2.625,1.5-4.21,1.49     c0,0-0.665-0.74-1.415-1.115C115.721,136.5,117.278,136.504,121.793,137.404z M118.721,127.5c1.875,0,5.369,0.769,7.87,1.935     c-1.12,0.315-1.87-0.435-3.745-0.435s-2.25,1.5-4.125,1.5s-3.75-0.75-5.25-1.125C118.533,129,118.064,127.5,118.721,127.5z      M115.346,121.148l5.995,0.664c0,0,0.005,1.188-1.87,1.188S116.471,121.5,115.346,121.148z M125.471,67.875v4.5V67.875z      M120.93,66.01c1.127,1.697,0.416,3.365,0,5.24V66.01z M123.886,65.26c1.171,1.697,0.46,4.115,0.122,5.988     c-0.779-2.174-0.344-2.502-1.908-4.928C122.1,66.32,123.596,66.375,123.886,65.26z M113.471,64.125v6.75V64.125z M113.471,59.625     h11.25C120.971,60,116.471,60,113.471,59.625z M113.6,57.11c0,0,2.496-0.485,2.387,0.525h-3.541c-0.1-2.51,0.65-4.01,1.154-6.635     V57.11z M110.471,45.375c0.75-0.375,2.419-0.335,4.115,0.836C113.471,46.5,111.971,45.75,110.471,45.375z M116.422,2.253     c1.064,0.856,2.453,1.53,2.453,1.53s0.596,0.717,4.202,0.745c0.629-0.668-0.231-1.903-0.121-2.958h7.915     c2.178,2.102,5.475,7.43,5.475,9.305c0,0.281-0.938,0.255-0.814,3.211c-4.979,1.646-5.936,2.507-5.936,7.289     c0,1.875,0.75,5.625,0.75,7.5s0.11,1.235,1.125,0.75c-0.484,1.015-0.375,0-0.375,1.875c0,2.625,1.934,5.657,2.939,6.171     c0.061,0.954-0.799,1.219-1.439,1.704c0.641,0.485,1.5,1.125,1.5,3c0,5.063-5.556,4.446-6.81,7.704     c-0.8,0.811,0.06,0.171,0.06,2.046s-1.5-1.125-1.5,0.75l1.394,59.513c-1.019,0.112-1.503,0.002-2.144,0.487     c0.641,0.485,1.125,0.375,2.141,0.485c0.109,1.765,0.103,3.192,0.774,7.271h-3.782c0.117,0.495-0.742,0.76-1.388,1.185     c1.299,0.475,3.38-0.315,5.521-0.205v56.031c-0.641,0.109-1.875-0.001-2.516,0.484c0.641,0.484,1.125,0.375,2.932,0.484v18.125     c0.709,0.625,1.943,0.516,2.693,0.891c-0.75,0.375-1.125,0.75-1.302,1.931c0,0-0.573-0.806,1.302-0.806s4.5,1.5,6.375,1.5     c12.188,0,14.813-18.75,18-18.75c6.75,0,7.5,14.906,7.5,16.875c0,1.875-7.5,25.5-7.5,27.375c0,6.656,12.75,23.531,12.75,31.875     c0,3.094,1.5,6,1.5,9c0,25.031-28.313,28.125-42.375,28.125c-8.25,0-39.524-9.465-44.976-14.251     c-7.622,8.504-6.117,20.251-19.617,20.251H48.315c-1.875,0-4.219-1.5-6.094-1.5s-2.082-0.04-3.381,0.44     c2.811,2.771,8.559,3.591,11.824,3.778C63.867,303.094,83.096,306,97.814,306h14.813c1.875,0,2.609,1.609,4.215,3.32     c-2.01,3.889-0.746,4.367-0.746,5.68c0,7.5-3.563,7.5-8.625,7.5c-1.875,0-3.88,0.748-18.786-0.752     c-10.688-1.031-16.557-4.498-23.213-4.498c-1.875,0-3,1.5-4.875,1.5c-3.469,0-33-7.875-33-15.75c0-5.438,11.906-13.5,13.875-13.5     c1.875,0,15,2.25,16.875,2.25c9.469,0,20.25-7.688,20.25-17.25c0-16.594-1.406,13.032-1.5-48.374c0-2.156-4.5-34.501-4.5-40.876     c0-6.469,0-24.75,13.5-24.75c1.875,0,6.543,0.79,9.746,2.567c-4.421,4.545-4.496,0.995-4.496,5.683c0,8.531,6.75,18,14.625,18     c1.125,0,4.985-1.391,6.445-2.769v-21.873c2.367-0.108,7.583,3.439,9.707,0.405c-2.742-0.524-6.321-0.522-9.648,0.06v-4.97     c0.996-0.104,1.481,0.006,2.121-0.479c-2.327-2.172-3-4.313-2.508-5.625v-39.723c4.364,3.454,8.695-0.027,10.868,0.083     c-0.11-0.485,0.75-1.5,1.39-1.985c-0.64-0.485-1.875-1.125-2.994-1.44c2.501-1.166,5.244-3.06,5.244-4.935     c0-4.594-0.75-10.219-0.75-15.375c0-4.313,0.552-11.953-2.744-16.145l-2.524,0.514c0.659,0.365,2.269,0.63,2.159,1.578h-3.617     c0.837-1.212,0.727-0.947,0.727-2.822s-1.5-3.75-1.5-5.625s0.79-2.417,1.506-3.69l-1.259-1.208c0,0-1.856-0.087-2.502,0.337     c0,0,0.38,0.435,1.13,0.943h-1.984c0.109,0.617-0.641,0.242-0.641,2.117s1.5-1.125,1.5,0.75s-1.5,1.5-1.5,3.375     s-0.206,2.29,1.49,3.461c-1.115,0.289-2.279,0.082-2.995,1.354c0.646,0.545,1.88-0.315,2.949-0.137     c-0.733,1.865-1.444,3.197-1.472,4.554l1.186,1.27c0.452-0.642,1.092-1.876,1.453-3.001c0.482,1.564-0.231,2.551-2.612,4.152     c0.642,0.457,1.126,0.347,2.224,0.579c-0.832,1.159-0.723,1.644-0.832,2.653h-3.59V62.531c-0.051-1.875-2.301-5.531-2.301-7.406     s-1.292-1.165-2.972-2.053v-2.635c-0.028-1.875,1.472,0.563,1.472-1.313c0-3.563-3.937-1.605-3.636-7.77     c1.761-0.105,3.526,0.754,4.761,2.145c0.485-0.64-0.375,0-0.375-1.875s1.5-0.75,1.557-1.303c-1.349-0.612-3.767-2.279-5.25-5.645     c1.068-0.178,1.068-0.928,2.943-0.928s2.084,1.563,3.948,3.044c-0.198-0.419-0.948-0.044-0.948-1.919s1.5-0.75,1.5-2.625     c0-2.531-2.12-2.439-4.378-2.348V26.35c1.003-0.1,1.488,0.01,2.646-0.821c0.231,1.097,1.525,2.261,2.738,2.991     c0.533-1.312,1.243-1.894,1.243-3.769s-1.993-2.269-4.401-3.156v-2.797h3.183c1.875-0.047,1.859,1.563,2.284,2.208     c0.475-1.297,1.185-3.38,1.56-4.88c0.375,0.75,0.266,1.985,0.891,2.641l-0.506-3.292v-1.245     c-2.151,0.567-4.521-1.195-3.949,2.222c-1.2-0.811-2.061-1.451-2.061-3.326s0.75-2.25,0.87-3.274     c2.907,0.088,5.804,5.579,7.172,7.438c0.583-0.039,1.708,1.086,1.708-0.789s-0.109-0.86-1.125-0.375     c0.485-1.015,1.915-1.667,2.631-2.94l-1.16-1.186c-0.455,0.641-0.552,1.461-2.417,2.195c-0.179-1.069-0.818-2.834,0.151-3.691     c3.52,2.02,2.489,0.533,2.122-2.96c1.188,0.817,1.938,0.817,2.798,1.832c-0.859,1.015-1.609,1.015-2.25,1.5     c0.641,0.485,0.641,1.235,1.186,1.88c1.272-0.715,1.814-1.505,1.814-3.38s-2.042-2.665-3.314-3.38l-1.444,1.479h-4.772     c-0.858-0.833-1.719-0.349-1.719-2.224S116.422,2.253,116.422,2.253z"/>
      <path fill-rule="evenodd" clip-rule="evenodd" fill="#A59D9A" d="M114.094,10.522c1.143,0.837,1.893,0.837,2.752,1.853     c-0.859,1.015-0.109,1.765-1.142,2.625C114.496,13.74,113.66,12.903,114.094,10.522z"/>
      <path fill-rule="evenodd" clip-rule="evenodd" fill="#A59D9A" d="M118.781,53.255c0.314,1.87,1.025,3.538-0.148,5.234     C118.633,58.489,117.615,55.756,118.781,53.255z"/>
      <path fill-rule="evenodd" clip-rule="evenodd" fill="#A59D9A" d="M123.486,81.86c0.109,1.015,0.484,1.39,1.234,1.765     c-0.75,0.375-2.25,1.125-3.364,0.836c0,0,0.85-0.351,1.489-0.836c-0.64-0.485-1.125-0.375-1.875-0.75     C121.721,82.5,122.471,81.75,123.486,81.86z"/>
      <path fill-rule="evenodd" clip-rule="evenodd" fill="#A59D9A" d="M124.336,94.211c-1.115,0.289-2.615,0.289-4.461,0.058     C120.706,93.11,122.64,93.04,124.336,94.211z"/>
      <path fill-rule="evenodd" clip-rule="evenodd" fill="#A59D9A" d="M127.092,122.998V142.5c0.727-4.922-1.246-7.407-1.246-7.875     C125.846,132,129.132,140.685,127.092,122.998z"/>
      <path fill-rule="evenodd" clip-rule="evenodd" fill="#A59D9A" d="M114.197,151.125c0.398,1.313,0.949,2.438,0,4.872V151.125z"/>
      <path fill-rule="evenodd" clip-rule="evenodd" fill="#A59D9A" d="M127.721,151.875c0.375,0.75-0.414,2.083,0,3.75     C126.636,154.293,127.346,152.625,127.721,151.875z"/>
      <path fill-rule="evenodd" clip-rule="evenodd" fill="#A59D9A" d="M125.518,163.503c0.328,1.122,0.219,1.606,0.644,2.252     c0,0,0.435-0.38,0.666-1.477c1.159,0.831,0.519,1.847,0.409,2.861c-1.766,0.11-3.266-0.64-4.393-0.976     C124.33,166.133,124.639,165.659,125.518,163.503z"/>
      <path fill-rule="evenodd" clip-rule="evenodd" fill="#A59D9A" d="M119.471,224.625c-0.375-4.5-0.375-9.75,0-15     C119.846,214.125,119.846,219.375,119.471,224.625z"/>
      <path fill-rule="evenodd" clip-rule="evenodd" fill="#A59D9A" d="M122.618,211.609c0.603-0.109,0.868,0.75,1.353,1.391     c0.485-0.641,1.125-1.875,1.5-2.625c0.375,0.75-0.375,1.125,1.5,1.125s1.235-0.11,0.97-0.82c0,0,0.905,0.445,0.796,1.46     c-1.016,0.11-3.641-1.765-3.641,0.11s0.375,0.75,1.125,1.125c-0.563,0.375-2.106-0.76-3.842,1.864     c-0.283-1.864-1.019-3.092,0.239-5.988V211.609z"/>
      <path fill-rule="evenodd" clip-rule="evenodd" fill="#A59D9A" d="M125.699,225.827c-1.402,3.109-1.171,6.176-2.614,7.397     c-0.239-1.1-0.989-0.35-0.989-2.225s1.5,0.375,1.5-1.5s-1.5-1.875-1.321-2.944c0,0,1.212,0.054,1.693,0.694L125.699,225.827z"/>
      <path fill-rule="evenodd" clip-rule="evenodd" fill="#A59D9A" d="M128.614,226.528c0.231,1.097,0.342,1.581,1.5,0.75     c0.231,1.847-1.308,3.93-0.674,5.901l-2.095-1.81c0.86-1.011,1.125-3.37,1.529-3.139c-0.669-0.342-1.154-0.231-1.639-0.342     c0.109,1.235-0.75,3.75-1.967,4.582v-4.366C126.221,228,127.456,227.359,128.614,226.528z"/>
      <path fill-rule="evenodd" clip-rule="evenodd" fill="#A59D9A" d="M146.986,237.833c2.693,1.48,5.71,3.742,8.82,6.125     c0.039,0.917-0.711,2.417-1.086,3.917c-0.375-0.75,0.375-2.25,0.485-3.485c-1.798,0.11-5.212-0.166-5.78-1.393     c-0.439,0.643-0.439,1.393-1.455,1.878c0.485-1.016,1.125-0.75,1.125-2.625C149.096,242.063,147.716,240.418,146.986,237.833z"/>
      <path fill-rule="evenodd" clip-rule="evenodd" fill="#A59D9A" d="M120.525,257.404c-0.144,0.829-0.868,1.874-1.07,3.597     C119.096,259.781,118.79,257.345,120.525,257.404z"/>
      <path fill-rule="evenodd" clip-rule="evenodd" fill="#A59D9A" d="M131.818,260.481c-0.832,1.158-2.223,0.144-2.332,1.02h-4.39     C126.971,261,129.221,260.25,131.818,260.481z"/>
      <path fill-rule="evenodd" clip-rule="evenodd" fill="#A59D9A" d="M48.662,315.163c3.4,0.598,5.392,1.376,6.713,1.105     C54.715,316.855,49.79,317.185,48.662,315.163z"/>
      <path fill-rule="evenodd" clip-rule="evenodd" fill="#A59D9A" d="M151.346,269.25c0,1.875-0.859,0.64-1.5,1.125     c1.391,1.234,2.834,2.688,5.131,4.323v3.506c-1.923-0.744-4.381-1.079-4.381-2.954s0.86,0.109,1.5-0.375     c-1.39-1.235-1.875-2.625-3.231-2.653l-2.556,2.241c-0.213-1.838,1.287-1.088,1.287-2.963s-1.5-1.875-1.321-2.944     C148.14,269.289,151.346,267.375,151.346,269.25z M158.471,266.625c1.669,0.414,3.169-0.336,4.865,0.836     C161.471,267.75,159.804,267.71,158.471,266.625z M147.077,256.528c1.159,0.831,2.729,0.93,3.427,2.842     c-0.964-0.077-2.139-0.715-4.331-0.768C146.173,258.603,146.846,257.625,147.077,256.528z M143.775,255.905     c-0.789,1.234-2.555,1.345-4.055,0.97C140.471,256.5,141.804,256.539,143.775,255.905z M161.471,253.125     c0.375,1.5,1.125,3,0.75,4.5C161.846,256.125,161.096,254.625,161.471,253.125z M123.745,249.056     c1.895,0.733,2.476,1.444,4.351,1.444s1.5-0.375,1.731-1.472l2.013,1.918c-1.7,1.014-2.244,1.804-4.119,1.804     s-1.5-0.75-3.976-0.85V249.056z M115.986,231.859c0.109,1.766,0.102,3.56,0.727,6.729l14.386,0.996     c-4.93-0.339-11.628-0.335-18.378-0.71c0.75-0.375,2.083-0.336,3.381-0.811l-1.495-1.354     C114.606,236.71,114.971,231.75,115.986,231.859z M115.903,206.297c0.192,1.828-0.558,4.453-0.558,6.328s1.5,6,1.5,7.875     c0,2.813-1.72,6.409-0.56,9.761c-1.688-19.859-1.69-21.386-1.655-23.324L115.903,206.297z M104.358,198.74v-4.463     C105.486,195.109,105.557,197.043,104.358,198.74z M83.594,171.771c-1.262,5.707-3.498,15.729-3.498,17.604     c0,8.906,9,14.438,9,30c0,1.969-6.438,21.021-7.973,22.862c-1.026-13.09-1.777-36.737-1.777-38.612     C79.346,193.219,78.812,182.482,83.594,171.771z M87.418,166.556c0.178,1.819-2.112,3.487-3.283,5.185     C83.846,169.875,85.554,167.289,87.418,166.556z M82.815,160.559h6.18c0.102,1.816-0.648,2.191,1.227,2.191s0.375-1.5,2.25-1.5     s2.585,0.958,3.319,2.822c-2.569,0.178-5.45,0.908-7.454,1.39c0.65,0.397,2.971,0.497,2.971,0.497     c-3.648,8.846,7.726,21.541,15.788,21.541c1.875,0,3.86-1.391,5.87-2.972v9.493c-0.729,0.868-1.479,0.868-2.125,1.294     c0,0,0.38,0.435,1.13,0.81c-1.5,0.375-2.417-1.915-3.835-2.635c-0.665,0.01-1.149-0.101-1.795,0.325c0,0,0.38,0.435,1.495,0.724     c0,0-0.85,0.351-1.495,0.776c0,0,0.38,0.435,1.495,0.724c0,0-1.49-1.039-1.49,0.836s0.375,0.375,0.761,0.664     c0,0-0.65,0.351-1.136-0.289c-0.484,0.64-1.125,1.5-1.125,3.375s-0.109,0.484,0.315,1.13c0,0,0.435-0.38,0.81-1.13     c0.375,1.5-0.414,2.833,0,4.125c0,0,0.375-0.375,0.724-0.751c-0.353,4.93-0.351,10.83,0.004,16.502     c-0.353-0.376-0.242-0.861-0.862-1.523v7.025c0.4,0.606,1.15,0.606,1.635,1.247l2.527-2.128     c-0.762,1.268-2.191,2.671-3.277,4.003c0,0-0.265-1.016,0.375-1.5c-0.64-0.485-1.39-0.485-1.847-1.126     c-2.069,3.036-4.282,3.591-2.863,7.464c0,0-0.43-0.823-0.915-1.463c-0.484,0.64-0.414,1.708,0,3.375c0,0-0.265-0.485-0.689-1.13     c-0.475,1.298,0.314,2.63,0.026,4.495c0,0-0.352-0.851-0.776-1.495c0,0-0.436-0.745-0.436,1.13c0,0.75,0.924,1.22,3.719,1.35     l-1.914,2.019c0,0-0.194-0.854-0.593-1.503c-0.48,2.003-1.212,4.135-1.212,6.01s-0.109,0.859,0.375,1.5     c1.235-1.391,3.438-1.333,5.359-3.733c0.266,1.108-1.344,2.873-2.762,4.252c0.027,0.606,0.571,1.771,1.843,2.486     c0.545-0.646-0.315-1.88-0.137-2.949c1.865,0.733,4.259,3.111,5.483,5.196c0.448-0.643,2.046-1.463,3.344-1.938     c-0.646-0.425-0.646-1.925-1.131-2.564l-2.526,2.128c0.762-1.269,1.421-2.622,2.223-4.533c-1.196,0.155-1.196,0.905-2.311,0.616     c0,0,0.85-0.352,1.519-0.979c-0.029-0.606-1.489-1.188-1.817-2.491c0.288,0.385,0.663,0.76,1.27,0.788     c0.629-0.669,0.519,0.347,0.519-1.528s-0.375-1.5-1.469-1.728c4.479-5.001,3.719-3.147,3.719-7.272c0-1.875-0.73-4.007-1.21-6.01     c-0.399,0.649-1.415,2.26-3.173,2.149v-2.793c1.008-0.097,0.258,0.653,2.133,0.653s-0.75-1.5,1.125-1.5s0.75,1.5,1.235,1.609     c-0.11-1.984,0.64-4.609,0.64-6.484c0-0.844-2.25-9.094-2.25-9.375c0-2.063,3.027-2.111,0.919-8.188l1.855,1.502h3.349     c-0.123-0.438,0.252-2.313,1.35-2.082c-0.832,1.158-1.582,2.658-2.236,3.287v17.013c0.014,1.875,1.514,2.719,1.514,4.594     s-2.25,0.75-2.359,1.234c0.391-0.109,2.753-0.055,4.57,2.683c-1.086,0.208-1.351-1.402-1.775-2.047     c-0.475,1.298-1.186,2.63-1.186,4.505s-0.109,2.359,0.436,3.005c1.272-0.716,2.189-3.005,3.287-2.773     c-0.832,1.158-1.098,2.769-1.5,2.537c0.668,0.341-0.348,0.231,1.527,0.231s0-1.5,1.875-1.5s1.5,1.5,2.106,1.528     c0.629-0.669-0.231-1.903,0-3.75c1.159,0.831,0.519,1.847,0.491,2.453c0.668,0.628,1.902,1.269,2.509,1.297     c0.629-0.669-0.121-2.169,1.001-3.013c1.01,3.845,1.507,4.354,3.812,7.524c0.581-0.04,1.066,0.069,1.712-0.476     c0,0-0.756-0.689-0.381-1.439c0.375,0.75,0.375,0.75,0.375,2.625c0,3.656,6.75,0.188,6.75,6c0,1.875-0.64,2.89-1.269,2.222     c-0.606,0.028-1.091-0.082-1.731,0.403c0.641,0.484,1.5,0.75,1.323,1.818c-2.615-1.108-9.115-2.896-5.072-7.798     c-0.641-0.506-1.391-0.506-1.876-1.146c-0.484,0.64,0.375,0,0.375,1.875s-1.5-0.75-1.5,1.125s1.5-0.75,1.5,1.125     s-1.5-1.125-1.5,0.75c0,0.938,3.088,1.569,1.995,5.645c0,0-0.385-0.66,0.255-1.145c-0.64-0.485-1.594-1.125-3.469-1.125     s-19.406,0-19.575-0.137v3.157c0.654-0.661,1.669-1.521,2.767-1.289c-1.77,2.096-2.223,2.581-2.223,3.894     c0,1.875,0.73,3.122,0.73,3.122c-0.84,0.893-0.757,1.613-0.279,3.261l1.704-1.383c-0.765,1.265-0.015,1.484,0.47,2.125     l2.527-2.128c-0.762,1.268-0.012,1.487,0.473,2.128c0.485-0.641,1.235-0.86,0.75-1.875c1.016,0.484,1.766,1.234,2.394,1.903     c0.606-0.028,1.092,0.081,1.731-0.403l-1.37-1.783c1.261,0.768,2.761,1.518,3.245,2.158c0.485-0.641,0.485-0.86-0.304-2.095     c1.973,0.634,3.679,2.845,5.554,2.845s2.625-1.125,2.856-2.278c-0.341,0.668-1.356,0.778,0.519,0.778s1.875-0.75,3.068-0.641     v-4.85c-0.708-0.62-1.193-2.01-2.693-2.385c1.5-0.375,3-2.625,5.25-2.25c-0.75,0.375-1.984,0.265-2.625,0.75     c0.641,0.484,1.125,0.375,3,0.375c3.188,0,4.617-0.154,3.925-2.941c1.216,0.801,0.466,1.551,0.987,2.193     c2.006-1.438,2.756-4.438,5.25-6c0.979,0.857,0.338,0.748,2.213,0.748c2.531,0,1.875,4.594,1.875,5.625     c0,1.875,1.5-0.375,1.5,1.5s-0.859,1.015-1.5,1.5l1.232,1.141c4.921-1.868,7.018-1.328,7.018-2.266c0-1.875-1.5-1.5-1.5-3.375     c0-0.375,1.879-1.821,1.757-4.145c-1.116,1.409-3.463,2.229-4.782,2.508c2.732-1.161,3.025-0.801,3.025-2.863     c0-1.875-1.292-1.915-2.943-2.803c-0.057-1.697,0.733-3.364,1.5-4.5c-1.182,0.178-2.682-2.072-4.5-2.25     c0,0,0.693,0.178,0.693-1.697c0-3-1.794-0.808-3.747-2.208c0.857-1.058,1.291-1.878,2.426-1.111     c-0.179-0.431,0.571-0.431,0.571-2.306c0-0.281-2.25-4.688-2.25-7.125c0-1.875,0.75-4.875,0.75-6.75s0.75-0.375,0.75-2.25     s0.75-0.375,0.75-2.25s2.25-0.375,2.25-2.25s-1.125-1.875-1.875-2.25c0.75-0.375,1.985,0.484,2.625,0     c-0.64-0.485-1.5-2.25-1.21-3.365c0,0,0.351,0.85,0.716,1.51c0.029-1.758,2.971-0.512,1.454-4.48c0,0,0.431,0.82,0.855,1.466     c0.475-1.297-0.315-1.505-0.315-3.38c0-3,2.832-2.694,1.099-8.626c0,0-0.349,0.376-0.724,1.126c-0.375-1.5,0.415-2.832-0.06-4.13     c-1.175,1.395-3.315,1.88-3.69,3.38c-0.375-0.75-0.265-1.985-0.689-2.63c-0.475,1.298,0.314,2.63,0.314,4.505     c0,6.188-13.986,14.938-20.968,9.975c3.435,0.536,7.02,0.532,10.478,0.067c-2.484-1.586-4.791-1.792-5.635-1.792     c-1.875,0-0.375,1.5-2.25,1.5s-3.581-1.54-4.875-1.125c0,0,0.375,0.375,1.125,0.75c-0.75,0.375-0.75-0.375-2.625-0.375     s-1.609,0.109-1.125,1.125l-1.5-1.125c-0.484,0.64-1.234,0.859-0.402,2.019c-1.848,0.231-3.348-1.269-3.724-1.617     c2.305-0.022,0.282,0.349,1.876,0.349c1.875,0,4.382-1.481,6.386-1.961c-0.65-0.399-2.261-0.664-2.082-1.846     c-1.135,0.767-3.554,1.557-5.054,1.182c0.75-0.375,2.083-0.336,3.375-0.75c-1.292-0.415-2.625-1.875-4.5-1.875     s-1.609,0.64-2.844,1.43c0.634-1.972,2.134-1.972,3.306-3.67c0.288,1.115-1.212,0.74,0.663,0.74s3.336,1.708,3.75,3     c0.415-1.292,1.165-2.457,0.567-4.452c2.189,2.849,8.151,4.452,9.558,4.452c12.938,0,13.955-15.979,16.698-19.456     c6.431-0.512,8.802,12.237,8.802,15.706c0,3.281-8.25,24.094-8.25,28.5c0,1.875,0.75,3,0.75,4.875     c0,1.969,14.25,20.438,14.25,36.375c0,23.813-27.938,27.75-43.5,27.75c-9.75,0-38.997-7.812-44.546-14.258     c-5.253,16.904-12.641,20.258-24.829,20.258c-1.875,0-12.046-1.503-17.878-2.271l-1.247,1.159     c13.458,10.947,27.582,5.518,43.894,6.362c26.25,1.313,29.23,0.749,33.179,0.805c0.888,1.652,0.177,4.444,0.177,6.319     s-1.5,3-1.556,4.697c0,0-0.804,0.067-1.841,0.928c-6.365-7.829-20.134-3.75-28.478-3.75c-1.875,0-24.259-0.944-36.071-3.288     c-5.156-0.938-6.491-2.712-9.679-2.712c-1.875,0,0-1.5-1.235-1.61c0.11,0.485-0.75,0.75-1.392,1.198     c2.084,1.226,4.392,2.771,5.917,4.775c-4.998-2.926-9.524-5.945-13.412-9.191c4.291-5.896,6.56-14.672,13.872-14.672     c1.875,0,14.625,2.25,16.5,2.25c7.969,0,20.625-5.719,20.625-17.25c0-16.969,2.438,13.617-1.499-49.102     c-0.656-10.781-1.863-22.612-4.499-32.232c0.748-15.809-0.002-16.541,0.008-17.377C74.042,172.896,77.19,160.5,82.815,160.559z      M120.93,66.01c1.127,1.697,0.416,3.365,0,5.24V66.01z M114.221,60.242h10.763v5.654c-1.763,0.104-2.247-0.006-2.893,0.418     c0,0,0.38,0.435,1.458,0.628c-0.947,1.88-2.051,2.839,1.075,4.367l0.182-3.811v5.141c-0.835,0.109-3.569-0.75-4.21-0.266     c0.641,0.485,2.25,0.75,2.141,1.697h-3.617c0.837-1.212,0.727-0.947,0.727-2.822s-1.5-3.75-1.5-5.625s0.79-2.417,1.506-3.69     C118.456,60.64,116.471,60.75,114.221,60.242z M110.471,45.375c0.75-0.375,2.419-0.335,4.115,0.836     C113.471,46.5,111.971,45.75,110.471,45.375z M128.096,1.5c2.531,0,5.25,1.406,5.25,3.375c0,1.875,2.25,2.25,2.25,4.125     c0,6.469-6.75,7.313-6.75,10.875c0,1.875,0.75,4.875,0.75,6.75c0,2.906,4.5,9.094,4.5,12c0,0.938,0.975,3.668-1.832,7.873     L130.73,45c-1.959,2.85-4.903,7.244-6.54,11.93h-2.686c-0.869-1.637-1.619-3.887-2.134-5.194c-4.104,2.767-2.525,5.264-2.9,5.264     c-1.875,0-0.265-0.86-0.75-1.5c-0.484,0.64-0.75,1.5-1.765,1.39c-0.11-1.765-0.091-3.896-0.512-5.891     c-0.388,1.294-0.349,3.376-0.513,5.937c-2.225-0.712-5.836-4.342-5.836-6.311c0-1.875,1.563-3.958,3.002-5.963     c-0.642-0.522-1.611-1.272-2.846-0.483c0,0,0.594-1.054,0.884-2.169c0,0,0.351,0.85,0.896,1.495     c1.272-0.715,1.814-1.13,1.814-3.005s-2.89-3.11-4.483-4.983l4.023-0.895v3.031c0.085-0.153,0.351,0.707,0.775,1.352     c1.225-2.797,1.946-6.471,2.699-9.28c-1.404-1.335-3.654-0.585-5.259-2.41c0,0-0.006-1.065,1.869-1.065s2.516,1.61,3,2.25     c1.235-1.39,1.895-4.244,2.636-6.289c-1.4-1.321-2.803-0.5-4.136-1.586c1.669,0.415,3.169-0.335,4.382,0.394     c0.533-1.312,1.243-3.394,1.618-4.894c0.375,0.75,0.266,1.985,0.75,2.625c0.485-0.64,0.375,0,0.375-1.875     s-0.64-2.515,0.519-3.347c0.231,1.847,0.192,3.179,0.667,4.477c0.425-0.645,1.814,0.37,1.814-1.505s-0.109-0.86-1.125-0.375     c0.485-1.015,1.915-1.667,2.631-2.94l-1.16-1.186c-0.455,0.641-0.552,1.461-2.417,2.195c-0.179-1.069-0.818-2.834,0.152-3.691     c3.802,2.208,2.687-1.12,4.875-1.307c-0.815,1.194-1.565,1.194-2.206,1.679c0.641,0.485,0.641,1.235,1.186,1.88     c1.272-0.715,1.814-1.505,1.814-3.38S124.346,6,122.471,6s-1.984,0.64-3,1.125c0.485-1.015,1.875-0.375,1.875-2.25     s2.36-1.235,1.529-2.394C124.721,2.25,126.221,1.5,128.096,1.5z"/>
      <path fill-rule="evenodd" clip-rule="evenodd" fill="#0E0E0E" d="M110.471,26.25c1.016,0.86,1.766,0.86,2.611,1.975     c-3.27,1.014-3.361,0.275-4.376,0.165C108.596,27.375,109.456,27.11,110.471,26.25z"/>
      <path fill-rule="evenodd" clip-rule="evenodd" fill="#0E0E0E" d="M107.197,34.62h3.505v4.331     C109.741,38.679,107.285,37.527,107.197,34.62z"/>
      <path fill-rule="evenodd" clip-rule="evenodd" fill="#0E0E0E" d="M118.781,53.255c0.314,1.87,1.025,3.538-0.148,5.234     C118.633,58.489,117.615,55.756,118.781,53.255z"/>
      <path fill-rule="evenodd" clip-rule="evenodd" fill="#0E0E0E" d="M127.092,122.998V142.5c0.727-4.922-1.246-7.407-1.246-7.875     C125.846,132,129.132,140.685,127.092,122.998z"/>
      <path fill-rule="evenodd" clip-rule="evenodd" fill="#0E0E0E" d="M114.197,151.125c0.398,1.313,0.949,2.438,0,4.872V151.125z"/>
      <path fill-rule="evenodd" clip-rule="evenodd" fill="#0E0E0E" d="M127.721,151.875c0.375,0.75-0.414,2.083,0,3.75     C126.636,154.293,127.346,152.625,127.721,151.875z"/>
      <path fill-rule="evenodd" clip-rule="evenodd" fill="#0E0E0E" d="M125.518,163.503c0.328,1.122,0.219,1.606,0.644,2.252     c0,0,0.435-0.38,0.666-1.477c1.159,0.831,0.519,1.847,0.409,2.861c-1.766,0.11-3.266-0.64-4.393-0.976     C124.33,166.133,124.639,165.659,125.518,163.503z"/>
      <path fill-rule="evenodd" clip-rule="evenodd" fill="#0E0E0E" d="M128.79,203.428c-0.804,1.212-2.304,1.212-3.176,1.933h-3.496     C122.956,204.109,126.103,204.019,128.79,203.428z"/>
      <path fill-rule="evenodd" clip-rule="evenodd" fill="#0E0E0E" d="M48.662,315.163c3.4,0.598,5.392,1.376,6.713,1.105     C54.715,316.855,49.79,317.185,48.662,315.163z"/>
      <path fill-rule="evenodd" clip-rule="evenodd" fill="#0E0E0E" d="M151.346,269.25c0,1.875-0.859,0.64-1.5,1.149     c1.516,1.809,5.987,3.449,4.632,7.827c-1.464-0.79-3.882-1.102-3.882-2.977s0.86,0.109,1.5-0.375     c-0.64-0.485-1.39-1.985-2.625-3.375l-3.154,2.967c-0.221-1.842,1.279-1.092,1.279-2.967s-1.5-1.875-1.321-2.944     C148.14,269.289,151.346,267.375,151.346,269.25z M101.206,189.859c1.765-0.109,4.015,0.641,6.265,1.016     c-1.5,0.375-2.625,1.125-4.5,1.125S101.096,190.875,101.206,189.859z M83.594,171.771c-1.262,5.707-3.498,15.729-3.498,17.604     c0,8.906,9,14.438,9,30c0,1.969-6.438,21.021-7.973,22.862c-1.026-13.09-1.777-36.737-1.777-38.612     C79.346,193.219,78.812,182.482,83.594,171.771z M87.418,166.556c0.178,1.819-2.112,3.487-3.283,5.185     C83.846,169.875,85.554,167.289,87.418,166.556z M82.815,160.559h6.18c0.102,1.816-0.648,2.191,1.227,2.191s0.375-1.5,2.25-1.5     s2.585,0.958,3.319,2.822c-2.569,0.178-5.45,0.908-7.454,1.39c0.65,0.397,2.972,0.5,2.972,0.5     c-4.776,11.004,9.975,21.538,15.787,21.538c1.875,0,3.86-1.391,5.856-2.972v9.547c0,0,0.144,0.925-1.731,0.925     s-1.875-1.5-3.75-1.5s-3.375,1.5-3.375,3.375s2.25,13.125,2.25,15c0,12.75-6.75,20.156-6.75,31.125     c0,7.594,2.438,14.25,10.875,14.25c1.875,0,1.333-2.211,3.305-2.845c-1.727,2.172-2.18,2.657-2.18,3.97c0,1.875,1.5,1.125,1.5,3     s-1.5-0.75-1.528,1.125v1.675c5.745,1.336,15.778,2.075,17.653,2.075c3.094,0,6.375-3.281,6.375-4.875     c0-0.281,0.403-2.661-2.99-4.582c14.24-0.293,24.271,10.957,28.49,10.957c3.844,0,4.5-3.75,4.5-5.25     c0-10.969-13.5-27.188-13.5-38.25c0-7.406,7.5-19.313,7.5-27.375c0-3.094-2.943-10.116-4.114-12.375     c-3.149,6.18-0.943,14.01-9.568,19.166c-1.554,0.906-1.947-0.622-2.042-0.604c-0.043,0.009-0.025,0.326-0.025,1.313     c0-1.875-3.75-1.125-5.625-1.125s-0.375,1.5-2.25,1.5s-6.811-3.755-10.916-4.703c0.682,0.313,2.252-0.339,2.666,0.953     c0.415-1.292,1.165-2.457,0.567-4.452c2.189,2.849,8.151,4.452,9.558,4.452c12.938,0,13.955-15.979,16.698-19.456     c6.431-0.512,8.802,12.237,8.802,15.706c0,3.281-8.25,24.094-8.25,28.5c0,1.875,0.75,3,0.75,4.875     c0,1.969,14.25,20.438,14.25,36.375c0,23.813-27.938,27.75-43.5,27.75c-9.75,0-38.997-7.812-44.546-14.258     c-5.253,16.904-12.641,20.258-24.829,20.258c-1.875,0-12.046-1.503-17.878-2.271l-1.247,1.159     c13.458,10.947,27.582,5.518,43.894,6.362c26.25,1.313,29.23,0.749,33.179,0.805c0.888,1.652,0.177,4.444,0.177,6.319     s-1.5,3-1.556,4.697c0,0-0.804,0.067-1.841,0.928c-6.365-7.829-20.134-3.75-28.478-3.75c-1.875,0-24.259-0.944-36.071-3.288     c-5.156-0.938-6.491-2.712-9.679-2.712c-1.875,0,0-1.5-1.235-1.61c0.11,0.485-0.75,0.75-1.392,1.198     c2.084,1.226,4.392,2.771,5.917,4.775c-4.998-2.926-9.524-5.945-13.412-9.191c4.291-5.896,6.56-14.672,13.872-14.672     c1.875,0,14.625,2.25,16.5,2.25c7.969,0,20.625-5.719,20.625-17.25c0-16.969,2.438,13.617-1.499-49.102     c-0.656-10.781-1.863-22.612-4.499-32.232c0.748-15.809-0.002-16.541,0.008-17.377C74.042,172.896,77.19,160.5,82.815,160.559z"/>
      <path fill-rule="evenodd" clip-rule="evenodd" fill="#E3E6E9" d="M157.036,191.256c0.31,1.119,1.06,2.244,1.06,4.119     c0,1.781-0.943,2.415-1.793,5.616c-1.415-1.551,0.02-4.358-2.626-3.135c0.779-1.247,0.669-2.481,0.779-3.497     c1.015-0.109,1.351,1.599,1.825,2.896c0.425-0.646,0.314-0.38,0.314-2.255C156.596,191.063,155.4,194.872,157.036,191.256z"/>
      <path fill-rule="evenodd" clip-rule="evenodd" fill="#E3E6E9" d="M105.971,198.375c1.086,1.333,1.086,3.583,1.5,5.25     C106.386,202.293,106.386,200.043,105.971,198.375z"/>
      <path fill-rule="evenodd" clip-rule="evenodd" fill="#E3E6E9" d="M112.318,202.731c-0.832,1.158-1.473,0.519-1.473,2.394     s1.391,1.984,2.245,2.939c-0.784,1.729-2.501,2.666-5.015,3.365v-2.923c0,0,0.41,0.853,1.038,1.521     c0.606-0.028,2.481-0.403,2.481-2.278s-1.5-0.75-1.5-2.625S111.221,202.5,112.318,202.731z"/>
      <path fill-rule="evenodd" clip-rule="evenodd" fill="#E3E6E9" d="M157.453,202.606c-0.217,1.283-0.146,2.687-1.232,4.394     c0,0-0.265-0.86-1.124-1.853L157.453,202.606z"/>
      <path fill-rule="evenodd" clip-rule="evenodd" fill="#E3E6E9" d="M128.471,205.875c0.75-0.375,2.25,1.125,3.75,1.5     c-1.5,0.375-2.625,2.625-4.5,2.625s-1.875-1.125-1.765-2.141c1.015-0.109-0.485,1.391,1.39,1.391s1.61-0.641,3-1.875     C129.706,206.89,129.221,206.25,128.471,205.875z"/>
      <path fill-rule="evenodd" clip-rule="evenodd" fill="#E3E6E9" d="M135.586,211.211c-1.115,0.289-1.115-1.211-2.99-1.211     s-2.21,0.958-1.322-0.694C132.221,209.25,133.89,210.039,135.586,211.211z"/>
      <path fill-rule="evenodd" clip-rule="evenodd" fill="#E3E6E9" d="M154.721,211.125c-1.234,1.765-1.164,3.168-2.25,4.5     C152.886,213.958,153.706,211.609,154.721,211.125z"/>
      <path fill-rule="evenodd" clip-rule="evenodd" fill="#E3E6E9" d="M148.721,213.375c0.375,0.75,0.336,2.418-0.53,3.446     C148.456,216.109,148.346,214.875,148.721,213.375z"/>
      <path fill-rule="evenodd" clip-rule="evenodd" fill="#E3E6E9" d="M121.721,220.125c0.375,0.75,0.336,2.418-0.835,4.115     C120.596,223.125,121.346,221.625,121.721,220.125z"/>
      <path fill-rule="evenodd" clip-rule="evenodd" fill="#847F7C" d="M125.099,0.915h5.528c1.969-0.165,6.178,5.829,5.367,8.085     c-0.655-0.993-2.006-4.703-3.549-5.324c0.15,0.449,0.041,1.684,0.525,2.699l-1.875-1.5l1.513-1.595     C131.217,0.047,127.256,1.958,125.099,0.915z"/>
      <path fill-rule="evenodd" clip-rule="evenodd" fill="#847F7C" d="M121.327,5.745c2.215,1.363,4.706,1.026,4.258,4.738     c0,0-1.879-2.342-3.114-3.732c-0.484,0.64-1.125-0.375-1.125,1.5s0.375,0.75,1.125,1.125c-0.75,0.375-1.765-0.485-2.596-1.644     c1.846-0.231,1.581-0.872,2.225-1.304C122.1,6.428,121.721,6,121.327,5.745z"/>
      <path fill-rule="evenodd" clip-rule="evenodd" fill="#847F7C" d="M123.481,12.981v2.726c-1.928-0.747-1.86,0.779-1.86,0.779     c-0.915-0.846-2.485-2.443-3.119-4.416c1.234,0.789,1.888,1.469,3.101,2.198c0,0,0.493,0.731,0.493-1.144s-0.375-1.125-1.125-1.5     C121.721,11.25,122.736,12.11,123.481,12.981z"/>
      <path fill-rule="evenodd" clip-rule="evenodd" fill="#847F7C" d="M129.308,20.26c0.288,1.115-0.462,2.615-0.837,4.115     C128.096,23.625,128.136,21.958,129.308,20.26z"/>
      <path fill-rule="evenodd" clip-rule="evenodd" fill="#847F7C" d="M110.068,44.769c1.321,0.271,3.611,0.294,5.977,2.295     C114.054,46.46,111.853,45.731,110.068,44.769z"/>
      <path fill-rule="evenodd" clip-rule="evenodd" fill="#847F7C" d="M113.515,56.99c-1.129-1.697-0.419-3.365,0-5.99V56.99z"/>
      <path fill-rule="evenodd" clip-rule="evenodd" fill="#847F7C" d="M119.681,61.563c-0.309,3.094-1.303,1.647-2.836,2.592     c1.392,1.205,2.251,4.188,2.24,6.063v3.531c0.651,0.61,0.011,0.5,1.886,0.5s2.25-1.5,3.952-1.39v10.363     c-1.217-0.833-2.659-2.286-4.621-3.768l-0.214,2.294v-5.481l-1.398-1.27c-0.453,0.642-0.344,1.126-0.719,1.876     c-0.375-1.5-1.875-3.375-1.875-5.25s1.5,0.375,1.5-1.5s-1.5-2.625-1.5-4.5C116.096,64.406,117.022,62.963,119.681,61.563z"/>
      <path fill-rule="evenodd" clip-rule="evenodd" fill="#847F7C" d="M123.168,64.504c1.068,0.856,1.928,0.746,1.928,2.621     s-0.859,3.265-2.019,4.097c-0.231-1.847-0.231-3.347-0.053-4.528c-1.135,0.767-1.679,2.681-2.023,4.555     C120.227,68.59,121.768,66.758,123.168,64.504z"/>
      <path fill-rule="evenodd" clip-rule="evenodd" fill="#847F7C" d="M119.917,84.136h5.064v2.769     c-1.011,0.096-1.386,0.471-1.893,1.221V86.14c-0.618,0.11-1.633-0.75-2.058-1.395c-0.475,1.298-0.454,3.261,0.083,5.977     C119.886,89.043,120.615,86.744,119.917,84.136z"/>
      <path fill-rule="evenodd" clip-rule="evenodd" fill="#847F7C" d="M120.568,93.231c-0.832,1.159-2.598,1.269-4.098,0.894     C117.221,93.75,118.721,93,120.568,93.231z"/>
      <path fill-rule="evenodd" clip-rule="evenodd" fill="#847F7C" d="M117.971,143.625c1.5-0.375,3.169-0.335,4.5,0.75     C120.804,143.96,119.471,144,117.971,143.625z"/>
      <path fill-rule="evenodd" clip-rule="evenodd" fill="#847F7C" d="M122.856,172.834h4.489     C126.221,173.25,124.554,173.96,122.856,172.834z"/>
      <path fill-rule="evenodd" clip-rule="evenodd" fill="#847F7C" d="M125.471,195.392h-5.623     C122.313,194.631,123.127,195,125.471,195.392z"/>
      <path fill-rule="evenodd" clip-rule="evenodd" fill="#847F7C" d="M130.721,255.375c0.375,1.5-0.375,1.5-0.484,2.515     c-1.766,0.11-3.266-1.39-4.766-1.765c0.75-0.375,1.875,0.375,3.75,0.375S130.346,256.125,130.721,255.375z"/>
      <path fill-rule="evenodd" clip-rule="evenodd" fill="#574F4F" d="M126.221,61.125c0.375,0.75,0.336,2.418-0.835,4.115     C125.096,64.125,125.846,62.625,126.221,61.125z"/>
      <path fill-rule="evenodd" clip-rule="evenodd" fill="#574F4F" d="M126.221,66.375v4.5     C125.846,69.375,125.846,67.875,126.221,66.375z"/>
      <path fill-rule="evenodd" clip-rule="evenodd" fill="#574F4F" d="M114.568,77.481l1.186,1.27     c0.452-0.642,1.092-1.876,1.453-3.001c0.482,1.564-0.231,2.551-2.612,4.152c0.642,0.457,1.126,0.347,2.224,0.579     c-0.832,1.159-0.723,1.644-0.832,2.68h-2.729c0,0-0.052-0.771-0.537-1.787c1.016,0.485,1.235-0.265,1.881-0.69     c0,0-0.381-0.435-1.289-0.545v-7.386C115.046,76.663,114.596,76.5,114.568,77.481z"/>
      <path fill-rule="evenodd" clip-rule="evenodd" fill="#574F4F" d="M126.308,83.24c0.288,0.385,1.038,1.885,0.663,3.385     C126.596,85.875,126.636,84.543,126.308,83.24z"/>
      <path fill-rule="evenodd" clip-rule="evenodd" fill="#574F4F" d="M113.151,84.088h2.784c0.871,1.619,1.66,2.912,1.66,4.787     s-0.956,1.835-2.306,2.447c0.056,0.553,1.446,0.288,2.301,1.363c-1.701,1.025-4.12,0.315-3.567,0.371     c0,0,0.572,0.694,0.572-1.181s-1.5,0.75-1.444-1.125V84.088z"/>
      <path fill-rule="evenodd" clip-rule="evenodd" fill="#574F4F" d="M114.708,94.588h2.728c0,0,0.051,0.771,0.535,1.787     c-1.015-0.485-1.125-1.125-1.125,0.75s1.5,0,1.438,1.875v3.654c-1.063,0.096-1.813,0.846-3.575,0.74V94.588z"/>
      <path fill-rule="evenodd" clip-rule="evenodd" fill="#574F4F" d="M112.402,103.678c1.818-0.178,3.318,0.572,5.834,0.682     c0.109,1.015-0.641,1.39-0.641,3.265c0,0.75,2.157,4.862,2.477,2.594l-1.221,1.462h-3.401c-0.197-1.687,0.431-6.186-1.137-7.442     c-0.507,1.304-0.468,3.386-0.843,4.886C113.096,107.625,113.136,105.543,112.402,103.678z"/>
      <path fill-rule="evenodd" clip-rule="evenodd" fill="#574F4F" d="M124.864,106.528c0.231,1.097,0.981,0.347,0.981,2.222     s-0.859,1.39-1.5,1.875l1.371,1.783c-1.261-0.768-1.48-1.518-1.934-1.033v-1.5c-0.077-0.485-1.313-1.125-2.063-1.5     C122.471,108,123.706,107.36,124.864,106.528z"/>
      <path fill-rule="evenodd" clip-rule="evenodd" fill="#574F4F" d="M119.025,113.406c0,0-0.68,0.969-0.789,2.204     c0.484-0.11,2.25,0,2.734,0.64l1.127-1.151c-0.642-0.458-1.502-0.724-1.234-1.833c1.92,2.401,2.623,5.344,4.185,7.293     c-3.417-0.571-6.327,0.19-9.525,0.081v-4.366l1.71,1.476C118.456,116.36,117.971,113.25,119.025,113.406z"/>
      <path fill-rule="evenodd" clip-rule="evenodd" fill="#574F4F" d="M121.721,122.492h2.57v2.945     c0.055,1.875-1.445-0.938-1.445,0.938s0.75,0.75,0.462,1.865c0,0-0.352-0.85-0.776-1.495c0,0-0.436,0.38-0.811,1.13     c-0.375-0.75,0.583-2.585,1.881-3.06C122.956,124.39,122.471,123,121.721,122.492z"/>
      <path fill-rule="evenodd" clip-rule="evenodd" fill="#574F4F" d="M116.515,133.875c-0.419-0.75-1.129-2.417,0-4.115V133.875z"/>
      <path fill-rule="evenodd" clip-rule="evenodd" fill="#574F4F" d="M120.74,129.83l3.534,0.825     c0.071,0.971-1.318,0.486-1.743-0.159c-0.475,1.298-0.436,3.38-0.811,4.88C121.346,134.625,120.596,133.875,120.74,129.83z"/>
      <path fill-rule="evenodd" clip-rule="evenodd" fill="#574F4F" d="M112.68,171.01c1.127,1.698,2.557,1.6,3.389,2.759     c-1.098,0.231-2.112,0.121-2.598-0.519c-0.484,0.64-0.375,1.875-0.791,3V171.01z"/>
      <path fill-rule="evenodd" clip-rule="evenodd" fill="#574F4F" d="M115.721,194.25c1.875,0,2.25,0.75,3,1.125     c-1.5,0.375-3.631,0.355-6.318,0.947C113.206,195.109,113.846,194.25,115.721,194.25z"/>
      <path fill-rule="evenodd" clip-rule="evenodd" fill="#574F4F" d="M79.721,196.875c0.375,5.25,0.375,11.25,0,16.5V196.875z"/>
      <path fill-rule="evenodd" clip-rule="evenodd" fill="#574F4F" d="M120.971,253.026h5.199v1.417     c0.801-0.193,3.051-0.193,4.898,0.038c-1.301,1.628-4.191,1.269-5.223,1.269c-1.875,0,0-2.25-1.875-2.25s-1.234,0.109-0.75,1.125     C122.206,254.14,121.721,253.5,120.971,253.026z"/>
      <path fill-rule="evenodd" clip-rule="evenodd" fill="#574F4F" d="M132.221,254.625c0.375,0.75,0.375,2.25,0.198,4.068     c0,0-0.948-0.693-1.963-0.804C130.346,256.875,131.846,256.125,132.221,254.625z"/>
      <path fill-rule="evenodd" clip-rule="evenodd" fill="#574F4F" d="M122.386,261.01c0,0,0.351,0.85,1.196,1.966     c-1.77,0.639-4.453,0.347-2.871,1.879c-1.552-1.771-3.825-1.062-4.516-2.983c0,0,2.791-0.012,4.025,1.379     C120.706,262.609,122.096,262.125,122.386,261.01z"/>
      <path fill-rule="evenodd" clip-rule="evenodd" fill="#A69884" d="M131.775,1.656c-0.698,2.588-1.469,3.387-2.217,4.554     l3.315,0.553c0.582-0.653-0.278-1.888,0.097-2.638c0.375,0.75,2.625,3,2.625,4.875c0,5.438-2.586,3.666-5.581,8.248L127.709,15     c-0.473,0.64-1.152,1.293-2.238,2.625c0,0-0.265-1.015,0.375-1.5l-1.151-1.126l-1.755,1.373c2.267-2.762,4.406-3.622,4.406-5.497     c0-0.844-4.415-5.265-5.998-5.965c0.581-0.558,3.584-0.138,1.525-2.424C123.971,2.25,125.471,1.5,131.775,1.656z"/>
      <path fill-rule="evenodd" clip-rule="evenodd" fill="#A69884" d="M128.669,21.056c0,0,0.927,1.069,0.639,2.184     c0,0-0.352-0.85-0.69-1.519v4.559c0.339-0.671,0.229-1.156,0.604-1.906c0.375,1.5,0.869,1.856-1.719,2.554     c-0.156-1.054-0.156-1.429-0.156-3.304s-0.375-0.375-1.125-0.75C126.971,22.5,127.721,21,128.669,21.056z"/>
      <path fill-rule="evenodd" clip-rule="evenodd" fill="#A69884" d="M121.058,51.76c1.148-1.4,2.648-2.15,4.557-3.732     c0.231,1.097-0.519,0.347-0.519,2.222s0.11,0.86,1.125,0.375c-1.234,1.765-0.438,3.958-2.072,6.31h-2.667     c-0.866-2.441-1.572-5.352-2.737-7.435c-0.438,1.293-1.148,2.625-1.38,4.472L115.71,52.5c-0.474,0.64-1.114,0-1.114,1.875     s0.375,0.375,1.473,0.606c-0.832,1.159-1.098,2.019-2.078,1.939c-0.695-2.455,1.211-4.506-0.992-6.793l1.165,0.877     c0.473-1.297,1.183-2.629,1.558-3.379c0.375,0.75-0.631,1.894,1.415,2.635c0.57-0.65-0.29-1.135,0-4.5     C118.307,47.458,120.577,49.756,121.058,51.76z"/>
      <path fill-rule="evenodd" clip-rule="evenodd" fill="#A69884" d="M112.721,52.125c0.375,1.5,0.266,4.015-0.894,4.847     c-0.231-1.097-0.981-0.722-0.981-2.597S112.346,52.875,112.721,52.125z"/>
      <path fill-rule="evenodd" clip-rule="evenodd" fill="#3E3834" d="M118.417,4.656c-0.711-0.266-1.196-0.156-2.431-0.266     c0.109,0.485,0,0.97,0.484,1.985l-1.875-1.5C115.456,3.86,117.39,3.79,118.417,4.656z"/>
      <path fill-rule="evenodd" clip-rule="evenodd" fill="#3E3834" d="M113.856,19.789c0,0-1.511,0.086-1.77-0.317v1.168     c0.149,0.47,1.384,1.11,2.535,1.348c-1.219-0.807-2.028-0.035-3.729-3.042C111.971,18.75,113.471,19.5,113.856,19.789z"/>
      <path fill-rule="evenodd" clip-rule="evenodd" fill="#3E3834" d="M126.971,83.625c-0.394,2.369-0.375,4.5-0.75,6.75     C125.846,88.125,125.865,85.756,126.971,83.625z"/>
      <path fill-rule="evenodd" clip-rule="evenodd" fill="#3E3834" d="M114.178,113.625c0.418,2.25,1.129,5.418,0,7.115V113.625z"/>
      <path fill-rule="evenodd" clip-rule="evenodd" fill="#3E3834" d="M116.068,128.019c0,0-1.098,0.981-2.112,0.872     c-0.11-2.515,0.64-4.015,1.015-6.265C115.346,123.375,115.327,125.506,116.068,128.019z"/>
      <path fill-rule="evenodd" clip-rule="evenodd" fill="#3E3834" d="M115.058,129.76c0.288,1.865-0.462,4.115-0.837,6.365     C113.846,133.875,113.886,131.458,115.058,129.76z"/>
      <path fill-rule="evenodd" clip-rule="evenodd" fill="#3E3834" d="M127.23,129.778v3.909c0.115,1.875-0.744,0.453-1.385,0.938     c0.641,0.485,1.5,0.75,1.269,1.847l-2.015-1.797C125.886,132.958,125.956,130.61,127.23,129.778z"/>
      <path fill-rule="evenodd" clip-rule="evenodd" fill="#3E3834" d="M116.096,138.35c-0.789,1.693-0.75,3.025-1.125,4.525     c-0.375-0.75-1.234-1.235-2.25-0.75c0.485-1.015,1.235-1.015,1.881-1.44c0,0-0.381-0.435-1.461-0.633     C113.347,139.386,114.438,135.82,116.096,138.35z"/>
      <path fill-rule="evenodd" clip-rule="evenodd" fill="#3E3834" d="M127.19,137.321c-0.634,1.972,0.137,3.936,0.776,6.587     c-1.913-0.698-3.996-0.658-5.842-0.89c0.831-1.159,0.855-2.681,0.855-2.681C126.409,139.418,125.019,139.047,127.19,137.321z"/>
      <path fill-rule="evenodd" clip-rule="evenodd" fill="#3E3834" d="M118.236,138.11c0.109,1.765-0.641,4.015-1.016,4.765     C116.846,141.375,117.221,138,118.236,138.11z"/>
      <path fill-rule="evenodd" clip-rule="evenodd" fill="#3E3834" d="M114.136,144.76c0,0,0.351,0.85,0.775,1.495     c0,0,0.435-0.38,0.545-1.388h2.794c0.096,1.008,0.057,2.34,0.79,4.205c-1.069,0.178-1.444,0.928-3.319,0.928     s-1.812-0.917-2.811-3.051c0,0,0.076,0.161,0.561,0.801C113.956,147.11,113.846,145.875,114.136,144.76z"/>
      <path fill-rule="evenodd" clip-rule="evenodd" fill="#3E3834" d="M122.846,146.25c1.875,0,2.625-1.5,4.387-1.39v4.895h-4.386     l2.36-0.396c-0.111-0.484-0.486-0.859-0.871-1.148c0,0,1.51-0.086,1.774,0.317v-1.072c-1.3-0.282-4.092-0.004-5.746-1.985     C120.596,145.875,120.971,146.25,122.846,146.25z"/>
      <path fill-rule="evenodd" clip-rule="evenodd" fill="#3E3834" d="M119.578,151.585c1.393-0.085,1.658,0.775,2.143,1.415     l1.587-1.49c0,0-1.212,1.49,0.663,1.49s-1.125-1.5,0.75-1.5s-1.125,1.5,0.75,1.5s0.375-0.375,0.606-1.472l1.995,1.713     c0.023,0.883-0.727,1.633-0.836,2.704h-2.891c-1.875,0.055-0.64-0.805-1.125-1.445l-1.381,1.416h-2.262V151.585z"/>
      <path fill-rule="evenodd" clip-rule="evenodd" fill="#3E3834" d="M128.203,156.857c-0.217,1.283-1.646,3.436-2.534,5.053h-3.476     c-0.098-1.035,0.277-2.16-0.818-2.392l2.119-1.901l-1.398,1.758c0.641,0.484,0.641,1.234,1.269,1.909h1.937     c0,0-0.095-0.675,0.545-1.16l-1.498-1.526c0.858-0.989,1.389-0.239,1.852,0.402L128.203,156.857z"/>
      <path fill-rule="evenodd" clip-rule="evenodd" fill="#3E3834" d="M120.221,157.875c-0.484,1.015,0.336,2.083,1.069,3.947     c-1.069,0.178-1.236-0.612-2.934-1.783C119.471,159.75,119.206,158.36,120.221,157.875z"/>
      <path fill-rule="evenodd" clip-rule="evenodd" fill="#3E3834" d="M128.166,159.751v5.96l-1.144-1.464     c0,0-0.427,0.378-0.802,1.128C125.846,163.5,127.346,163.313,128.166,159.751z"/>
      <path fill-rule="evenodd" clip-rule="evenodd" fill="#3E3834" d="M113.961,163.609c1.01-0.109,2.096,0.849,2.57,2.146     c0.425-0.646,0.314-1.13,0.546-2.227l1.595,1.475c0,0,0.424-0.378,0.534-1.448h2.89c1.875-0.055-0.75,1.445,1.125,1.445     s1.086-1.292,1.819,0.572c-1.069,0.178-2.304,0.067-2.944,0.553c0.641,0.484,1.875,0.375,2.625,0.75     c-2.25,0.375-4.5-1.125-6.375-1.125s-2.625,1.5-4.385,1.401V163.609z"/>
      <path fill-rule="evenodd" clip-rule="evenodd" fill="#3E3834" d="M113.961,168.859c1.01-0.109,2.775,0.75,3.26,1.391l1.382-1.432     h6.392c0.102,1.057,0.852,2.557,0.742,3.507h-5.115c0.835-1.216,0.835-1.436,0.35-2.075c-0.484,0.64-1.984,0.64-3.957,2.222     v-2.339c0,0,1.707,0.117-0.168,0.117s-1.125-0.75-1.677-0.807c0,0-0.573-0.693-0.573,1.182s0.375,1.875-0.635,1.776V168.859z"/>
      <path fill-rule="evenodd" clip-rule="evenodd" fill="#3E3834" d="M114.048,174.01c1.259,1.698,1.938,1.6,2.423,2.24     c0.485-0.641,0.375-1.125,0.554-2.194c0,0,1.212,0.054,2.044,0.926c0.027,0.894,0.777,2.769-1.098,2.769s-0.265-0.86-0.75-1.5     c-0.484,0.64-1.5,1.5-3.173,1.394V174.01z"/>
      <path fill-rule="evenodd" clip-rule="evenodd" fill="#3E3834" d="M120.625,174.131h4.246c0.396,0.261-0.131,1.183,3.972,1.693     c-2.503,1.156-5.997,1.926-5.997,0.051S121.456,175.39,120.625,174.131z"/>
      <path fill-rule="evenodd" clip-rule="evenodd" fill="#3E3834" d="M114.827,178.528c0.894-0.028,2.563,0.761,4.269,1.847     c0,0-1.5-1.125-1.5,0.75s0.375,0.375,1.125,0.75c-1.5,0.375-3.75-0.375-5.596-0.606     C113.956,180.109,113.956,179.359,114.827,178.528z"/>
      <polygon fill-rule="evenodd" clip-rule="evenodd" fill="#3E3834" points="126.449,179.335 126.449,181.431 122.096,180.374 "/>
      <path fill-rule="evenodd" clip-rule="evenodd" fill="#3E3834" d="M115.402,183.178c1.068-0.178,2.084,0.682,2.568,1.322     l1.669-1.461c0.206,1.086-1.294,1.836-1.403,3.601C117.221,186.75,116.136,185.043,115.402,183.178z"/>
      <path fill-rule="evenodd" clip-rule="evenodd" fill="#3E3834" d="M121.721,183.992h4.006v1.93h-3.466     C122.261,185.922,122.471,184.5,121.721,183.992z"/>
      <path fill-rule="evenodd" clip-rule="evenodd" fill="#3E3834" d="M115.453,188.143c1.283,0.217,2.893,0.482,2.783,1.717     c0.484-0.109,1.72-0.97,0.889-2.128c1.096-0.231,2.202,0.024,2.9,2.679h-4.187L115.453,188.143z"/>
      <path fill-rule="evenodd" clip-rule="evenodd" fill="#3E3834" d="M128.471,187.875c-0.75,0.375-1.875,0.75-1.984,2.457h-3.609     C123.304,189.422,126.408,187.5,128.471,187.875z"/>
      <path fill-rule="evenodd" clip-rule="evenodd" fill="#3E3834" d="M115.721,191.625c0.375,1.5,1.836,0.583,2.569,2.447     c-1.069,0.178-2.084-0.683-2.569-1.322c-0.484,0.64-0.75,1.5-1.765,1.39C113.846,193.125,115.346,192.375,115.721,191.625z"/>
      <path fill-rule="evenodd" clip-rule="evenodd" fill="#3E3834" d="M123.077,192.028c1.159,0.831,1.269,1.472,3.144,1.472     s1.5-1.5,2.25-1.125c-0.75,0.375-1.125,0.75-1.234,1.738h-5.075C122.161,194.113,122.846,193.125,123.077,192.028z"/>
      <path fill-rule="evenodd" clip-rule="evenodd" fill="#3E3834" d="M128.669,195.056c0.177,1.069-0.573,1.819-0.683,2.834     c-1.016,0.11-1.28-0.75-1.705-1.395c0,0-0.436,0.38-0.724,1.495c0,0-0.352-0.851-0.776-1.495c0,0-0.436,0.38-0.591,1.435     c-2.588-0.699-3.97-1.43-5.47-1.805c1.5-0.375,3.375,0.375,5.25,0.375S126.804,195.789,128.669,195.056z"/>
      <path fill-rule="evenodd" clip-rule="evenodd" fill="#3E3834" d="M113.471,202.804h4.848c-0.832,1.086-1.473,1.571-1.416,1.019     c0,0,0.693-0.572-1.182-0.572s-1.125,0.375-1.413,1.49C114.308,204.74,114.221,203.25,113.471,202.804z"/>
      <path fill-rule="evenodd" clip-rule="evenodd" fill="#3E3834" d="M79.721,215.625c0.375,2.25,0.356,5.131,0.75,7.5     C79.365,220.993,79.346,217.875,79.721,215.625z"/>
      <path fill-rule="evenodd" clip-rule="evenodd" fill="#3E3834" d="M149.195,270.121c1.353,0.28,2.635,0.918,3.653,1.043     c-0.378,0.336-0.862,0.226-1.508,0.65c0,0,1.505-1.064,1.505,0.811s-0.859,0.265-1.5,0.75l2.639,2.625     c0.472-0.641,1.111-0.375,1.111-2.25s-0.109-0.86-0.755-0.436c1.299,0.475,0.646,2.575-0.37,3.436     c-1.015-0.86-0.375-2.25-2.25-2.25s-0.375,0.375-0.75,1.125c-0.375-0.75,0.375-0.375,0.375-2.25S149.886,272.043,149.195,270.121     z"/>
      <path fill-rule="evenodd" clip-rule="evenodd" fill="#3E3834" d="M30.971,298.875c-0.485,1.015-1.165,2.418-2.336,4.115     C28.346,301.125,29.956,299.359,30.971,298.875z"/>
      <path fill-rule="evenodd" clip-rule="evenodd" fill="#3E3834" d="M64.721,313.875c1.5-0.375,4.015-0.266,4.847,0.894     C67.721,315,66.221,314.25,64.721,313.875z"/>
      <path fill-rule="evenodd" clip-rule="evenodd" fill="#3E3834" d="M45.625,314.481c2.596-0.231,3.081,1.378,3.953,0.547     c0.894-0.028-0.341,1.361-1.213,2.193C47.471,317.25,46.456,315.64,45.625,314.481z"/>
      <path fill-rule="evenodd" clip-rule="evenodd" fill="#3E3834" d="M56.206,315.859c1.933,0.68,3.848,1.43,5.819,0.796     c-0.789,1.234-0.679,2.095-2.554,2.095S56.886,317.793,56.206,315.859z"/>
      <path fill-rule="evenodd" clip-rule="evenodd" fill="#3E3834" d="M72.604,319.053c5.671,0.451,7.986,0.466,10.478,1.677     C79.63,320.239,75.88,320.239,72.604,319.053z"/>
      <path fill-rule="evenodd" clip-rule="evenodd" fill="#3E3834" d="M103.721,319.125c0.375,0.75,0.375,2.625,2.25,2.625     s3.75-0.75,4.5-0.375c-1.5,0.375-2.25,1.125-4.125,1.125s-2.792-0.79-3.82-1.656c0.711,0.266,0.931,0.266,1.576-0.279     C104.102,320.564,103.346,319.875,103.721,319.125z"/>
      <path fill-rule="evenodd" clip-rule="evenodd" fill="#3E3834" d="M100.254,319.63c0,0-0.658,0.995-0.768,1.904H92.85     C95.353,320.269,97.603,320.269,100.254,319.63z"/>
      <path fill-rule="evenodd" clip-rule="evenodd" fill="#3E3834" d="M86.106,320.539c1.865-0.289,3.365,0.461,4.865,0.836     C89.471,321.75,87.804,321.71,86.106,320.539z"/>
      <path fill-rule="evenodd" clip-rule="evenodd" fill="#B9B2AC" d="M127.661,15.005c1.075,0.855,1.295,1.605,2.31,1.12     c-1.234,1.765-1.164,3.168-2.335,4.865c-0.29-1.865,0.5-3.197,0.085-4.49c-0.414,1.293-1.875,2.625-2.25,4.125     c-0.375-0.75-0.265-1.235-0.75-1.875c-0.484,0.64-0.75,2.25-1.765,2.14c-0.11-1.765,0.68-3.433,1.765-4.765     c0,0-0.375,0.75-0.402,1.356l1.125,1.27C125.886,17.458,126.636,16.708,127.661,15.005z"/>
      <path fill-rule="evenodd" clip-rule="evenodd" fill="#B9B2AC" d="M117.827,18.778c1.159,0.832,2.729,1.679,3.363,3.651     l-1.867-1.459c-0.603,0.03-1.837,1.42-2.478,1.905l1.371,1.783l-2.121-1.785C116.956,21.86,117.596,20.625,117.827,18.778z"/>
      <path fill-rule="evenodd" clip-rule="evenodd" fill="#B9B2AC" d="M113.736,41.36c0,0-1.016-0.11-1.016,1.765     c0-1.875,1.5-0.375,2.25,0c-0.75,0.375-0.375,1.5-0.606,2.597c-1.158-0.832-2.394-0.722-4.158-0.832     C110.096,43.875,111.804,42.04,113.736,41.36z"/>
      <path fill-rule="evenodd" clip-rule="evenodd" fill="#B9B2AC" d="M107.956,50.36c1.015-0.11,1.28,0.75,1.765,1.39     c0.485-0.64,2.25-0.75,1.644-0.778c-0.628,0.668-1.378,1.418-2.019,1.903c0.641,0.485,0.86,1.235,1.51,0.83     C108.56,53.039,107.846,50.813,107.956,50.36z"/>
      <path fill-rule="evenodd" clip-rule="evenodd" fill="#B9B2AC" d="M120.096,60.249h4.25l-3.231,0.473     c-0.628,0.668-0.519,1.903-1.019,3.028V60.249z"/>
      <path fill-rule="evenodd" clip-rule="evenodd" fill="#B9B2AC" d="M115.086,242.222v1.108c0,0,1.01-1.08,1.01,0.795     s-1.5-0.75-1.5,1.125c0,3.188,4.68-0.482,2.86,7.417c-0.985,0.083-0.61-0.292-0.61-2.167s-1.875-4.5-3.75-4.5     s-0.375,1.5-1.39,1.39c-0.11-1.015,1.598-2.851,2.896-3.325c-0.646-0.425-1.506-0.689-1.396-1.705     C114.221,242.25,115.346,242.625,115.086,242.222z"/>
      <path fill-rule="evenodd" clip-rule="evenodd" fill="#B9B2AC" d="M122.586,242.268c0,0-1.615,2.232,0.26,2.232     s2.36-0.641,4.125-2.25c1.766,1.609,3.75,3.75,5.569,3.928c0,0-0.694,0.947-0.926,2.044c-1.158-0.832-1.158-1.582-1.644-2.222     c-1.234,1.39-2.831,2.21-4.135,2.539c0.385-0.289,0.87-0.93,1.51-1.414c-0.64-0.485-1.875,0.375-2.971,0.144     c0.831-1.159,0.831-2.129,0.202-2.797c-0.606,0.028-1.841,0.888-0.981,1.903c-0.859,1.015-2.14-1.016-1.471-1.356     c-0.873,0.231-1.076,0.309-2.798,1.703c-0.231-1.847,0.894-2.222-0.981-2.222s-1.125,1.5-2.221,1.269     c0.831-1.159,1.581-1.379,1.096-2.394c1.016,0.484,0.75,1.125,2.625,1.125S121.456,243.109,122.586,242.268z"/>
      <path fill-rule="evenodd" clip-rule="evenodd" fill="#B9B2AC" d="M135.886,246.01c1.171,1.698,1.585,2.99,3.46,2.99     s0.86-1.391,2.104-2.222v2.803c0,0,0.146,0.919-1.729,0.919S135.596,247.875,135.886,246.01z"/>
      <path fill-rule="evenodd" clip-rule="evenodd" fill="#B9B2AC" d="M114.221,248.625v3.75     C113.846,250.875,114.221,248.625,114.221,248.625z"/>
      <path fill-rule="evenodd" clip-rule="evenodd" fill="#B9B2AC" d="M150.856,251.253c1.041,2.531,1.989,2.06,1.989,3.747     l-1.989,1.452V251.253z"/>
      <path fill-rule="evenodd" clip-rule="evenodd" fill="#B9B2AC" d="M147.012,252.063c0.959-0.063,0.584,1.062,0.475,2.296     c0.484-0.109,1.72,0,2.734-0.484c-0.484,1.015-2.081,1.085-3.38,1.56c0.646,0.425,1.13,1.065,1.516,1.354     c0,0,0.739-0.289-1.136-0.289s-0.375,0.375-0.75,1.125C146.096,256.969,146.03,254.296,147.012,252.063z"/>
      <path fill-rule="evenodd" clip-rule="evenodd" fill="#B9B2AC" d="M110.549,254.258c0.297,1.117,0.297,2.242-1.578,2.242     s-2.25-0.75-3-1.125C108.971,255,108.348,258.505,110.549,254.258z"/>
      <path fill-rule="evenodd" clip-rule="evenodd" fill="#B9B2AC" d="M159.568,260.481c-0.832,1.158,0.738,2.562-0.433,4.259     c-0.29-1.115-1.79-2.615-1.732-3.564C157.403,261.176,158.471,260.25,159.568,260.481z M159.971,258c1.875,0,3,2.25,2.448,2.193     c0,0-0.573-0.693-0.573,1.182s0.641,2.734,1.815,4.13c0,0,0.435-0.38,0.725-0.765c0,0,0.351,0.649-0.665,1.51     c-1.015-0.86-1.5,0-2.614-0.289c0,0,0.85-0.352,1.495-0.776c-1.298-0.475-3.533,0.283-3.533,0.283     c-2.373-2.525-2.021-3.867-3.221-5.619C156.706,258.859,158.096,258,159.971,258z M124.721,40.125     c0.375,0.75,0,2.625,1.098,2.856c-0.832,1.159-1.362,1.909-2.223,0.894C124.456,42.86,124.346,41.625,124.721,40.125z      M125.068,35.481l-1.473,1.654c0.641,0.474,0.86-0.276,1.875-1.136c1.016,0.86,1.5,1.5,0.484,1.484     c-1.025,0.703-2.734,1.516-4.492,1.406v-2.794C123.221,36,123.971,35.25,125.068,35.481z M125.825,23.494     c-0.589,0.799-1.857,1.869-2.438,4.295c0.318-0.679,1.068-0.679,2.083-1.539c1.016,0.86,1.836,2.458,2.369,3.769     c1.214-0.729,1.646-2.159,2.506-1.144c-0.859,1.015-0.859,1.765-1.5,2.25c0.641,0.485,0.86,1.235,2.019,0.403     c0.231,1.097,0.981,1.097,0.981,2.972s-1.5,2.25-1.5,4.125c0,1.969-0.052,2.254,2.871,1.967c0.129,1.033-0.73,1.298-1.376,1.723     c0,0,0.38,0.435,1.449,0.613c0,0-0.694,0.947-0.926,2.044c-1.158-0.832-1.158-1.582-1.644-2.222     c-0.484,0.64-0.375,1.875-0.484,3.64c-1.016,0.11-1.28-0.75-1.766-1.39c-0.484,0.64-1.984,0.64-2.625,1.125l2.246,2.304     c-2.132,1.571-2.246,3.134-2.554,4.065c-0.98-1.737-1.755-4.494-3.442-4.494c-1.875,0-0.75,0.375-1.125,1.125     c-0.375-0.75-1.015-1.985-1.5-2.625c-0.484,0.64-0.375,1.125-0.75,1.875c-0.375-0.75-0.335-2.082-0.75-3.375     c-0.414,1.293-1.164,3.543-2.25,4.875c0.415-1.667,0.485-4.015,1.875-5.25l-1.46-1.667c1.085-0.208,2.21-0.208,2.21-2.083     s-0.75,0-0.75-1.875s-1.875-1.5-3.721-1.731c0.831-1.159,0.721-1.644,0.611-1.159c0.484-0.11,4.609,1.765,4.609-0.11     s-0.375-0.75-1.125-1.125c0.75-0.375,1.235-0.265,1.877-0.776c-2.458-3.124-2.075-3.395-5.168-7.709     c1.96,0.65,2.541,0.61,4.416,0.61s-0.109,1.61,0.436,2.255c1.272-0.715,2.564-0.38,2.564-2.255s-1.125,0-1.125-1.875     c0,1.875,1.875,0,1.561,1.12c0,0,0.425-0.855-1.158-2.751H125.825z"/>
      <path fill-rule="evenodd" clip-rule="evenodd" fill="#302A28" d="M126.902,122.278c1.084,0.832,0.443,2.597,0,4.472V122.278z"/>
      <path fill-rule="evenodd" clip-rule="evenodd" fill="#302A28" d="M114.197,151.125c0.398,1.313,0.949,2.438,0,4.872V151.125z"/>
      <path fill-rule="evenodd" clip-rule="evenodd" fill="#302A28" d="M126.827,151.528c1.159,0.832,0.479,2.429,0.809,3.732     C127.346,154.875,126.596,153.375,126.827,151.528z"/>
      <path fill-rule="evenodd" clip-rule="evenodd" fill="#302A28" d="M125.518,163.503c0.328,1.122,0.219,1.606,0.644,2.252     c0,0,0.435-0.38,0.666-1.477c1.159,0.831,0.519,1.847,0.409,2.861c-1.766,0.11-3.266-0.64-4.393-0.976     C124.33,166.133,124.639,165.659,125.518,163.503z"/>
      <path fill-rule="evenodd" clip-rule="evenodd" fill="#302A28" d="M124.721,204.75c1.875,0,2.25-1.5,3-1.125     c-0.75,0.375-2.25,1.875-4.114,1.586C123.606,205.211,122.846,204.75,124.721,204.75z"/>
      <path fill-rule="evenodd" clip-rule="evenodd" fill="#D3D7DE" d="M156.221,191.625c0.375,1.5,0.375,3.75,0,5.25     C155.846,195.375,155.846,193.125,156.221,191.625z"/>
      <path fill-rule="evenodd" clip-rule="evenodd" fill="#D3D7DE" d="M130.721,247.875c0,0-0.375-0.375-0.375,1.5     s0.375,1.125,1.125,1.5c-1.5,0.375-1.875,1.875-3.75,1.875s-1.5-0.75-3.973-0.86v-2.844c1.892,0.743,2.473,1.454,4.348,1.454     S129.636,249.208,130.721,247.875z"/>
      <path fill-rule="evenodd" clip-rule="evenodd" fill="#D3D7DE" d="M161.283,253.125c0.563,1.5,1.25,3.542,2.676,6.29     c-1.253-0.775-2.863-2.071-2.676-3.946V253.125z"/>
      <path fill-rule="evenodd" clip-rule="evenodd" fill="#D3D7DE" d="M126.364,228.028c0.872,0.831,0.231,2.597,0.122,4.361     c-1.016,0.11-1.016-1.39-2.111-1.621C125.206,229.609,125.471,228,126.364,228.028z M130.721,227.25     c1.875,0,3.169,0.789,4.875,1.875c-1.706,1.085-1.125,2.625-3,2.625s-1.39-3.11-1.76-3.769c0.162,0.268-1.146,3.322-1.481,5.244     l-2.005-1.803C128.136,229.708,128.846,227.25,130.721,227.25z M123.312,226.511c0.644,1.473,1.467,3.366-0.996,5.205     C122.096,229.875,122.206,227.359,123.312,226.511z M121.346,229.5c0,1.875-1.125,3-2.14,2.89     c-0.11-1.765-0.11-4.015,0.121-6.611C120.486,226.609,121.346,227.625,121.346,229.5z M125.471,219.375v3.75V219.375z      M128.471,218.625v4.5V218.625z M148.548,213.375c0.548,1.5,1.259,2.833,1.893,4.805l-1.893-1.666V213.375z M122.411,215.245     c-0.315-1.87-1.051-3.098,0.112-5.992C122.846,210.375,123.577,212.743,122.411,215.245z M121.556,222.789     c-0.21-1.164,0.54-2.664,0.54-4.539s-0.375-1.5-1.471-1.731c0.831-1.159,1.846-0.519,2.893-0.375     c-0.683,3.322-0.672,6.231-0.903,8.078c-1.158-0.832-1.644,0.028-3.495-0.074c-0.772-12.252-0.023-13.022,0.352-14.522     C119.846,212.156,117.543,219.452,121.556,222.789z M125.956,207.859c1.015-0.109-0.485,1.391,1.39,1.391s1.61-0.641,2.769-1.472     c0.231,1.097-1.378,2.111-2.019,2.597l1.152,1.126c0.458-0.642,0.458-1.392,1.329-2.079h2.764c0,0-0.854,0.468-1.495,0.953     c0.641,0.484,2.044-0.336,3.75,0.75c-1.706,1.085-3,3-2.971,2.394c-0.669-0.629-1.419-1.379-1.844-2.023     c-0.475,1.298-1.225,1.298-2.396,2.995c-0.29-1.115,0.835-2.24-1.04-2.24s-1.125,1.5-2.019,1.472     c-0.871-0.832-0.231-2.597,0.144-3.347c0.375,0.75,2.25-1.5,2.25,0.375C127.721,208.875,125.846,208.875,125.956,207.859z      M109.721,199.875v3.75V199.875z M112.29,197.428c-0.733,1.865-1.444,4.322-1.444,6.197c0,0.656,0.469,0.375,1.125,0.375     c1.031,0,1.125,1.969,1.125,3c0,1.875-1.5-1.125-1.5,0.75s1.5,0.375,1.5,2.25s-1.5,0.375-1.5,2.25s2.25,1.5,2.25,3.375     s-1.5,5.625-1.5,7.5s0.711,2.833,1.345,4.805c-1.234-0.79-0.575-2.437-1.113-4.458c0,0,0.519,0.778-1.356,0.778     c-1.5,0-0.647-0.832-0.496-0.72c0.113,0.084-0.166,0.7-2.129,2.595c0.641,0.484,0.86,0.484,1.875-0.375     c1.016,0.859,1.016,1.609,1.5,2.625l-1.644-1.184h-1.863c0.132,0.434-0.618,1.934-0.674,2.486c1.35,0.611,2.514,0.611,4.3-0.159     c0,0,1.006-0.019,1.006,1.856s-1.5-0.375-1.5,1.5s0.711,2.833,1.125,4.5c0,0-0.265-0.485-0.649-1.139     c-0.486,2.729-3.476,6.014-3.476,7.889c0,1.594,2.25,2.719,2.25,4.875c0,0.563,0.563,0,1.125,0c1.875,0,0.266,1.609,1.098,2.769     c-1.098,0.231-2.332,0.871-3.348,1.731c-1.015-0.86-0.868-1.52-2.78-2.32c0.155,0.445,0.905,1.195,0.796,2.21     c-1.016,0.11-1.28-0.75-1.766-1.39c-0.484,0.64-0.484,1.609,0,2.625c-1.015-0.485-1.024-2.745-1.024-2.745s-0.476-0.63-1.71-0.74     c0.109,0.485,0.859,1.235,0.484,1.985c-0.375-0.75-1.765-1.985-2.25-3l1.694,1.142v-3.116c0,0-1.319-0.275-1.607,0.109     c0,0,0.288,0.74,0.288-1.135s-1.5-0.75-1.5-2.625c0-1.313,0.927-2.567,3.753-4.167c-0.643-0.443-2.628-0.333-3.688-0.498     c1.463-4.1,2.955-8.579,4.784-13.334c0,0,0.292,0.858,0.776,1.499c0.485-0.641,2.625,0.75,2.625-1.125s-1.5,1.125-1.5-0.75     s1.5-0.75,1.557-1.303c0,0,0.693-0.572-1.182-0.572s-1.125,0.375-1.445,0.754c1.086-4.798,1.512-8.841,5.572-14.595     c-1.392-1.27-2.627-1.159-4.429-1.313c1.445-5.023-1.01-6.143-0.541-10.358l-0.57,0.771c0,0-0.352-0.65,0.288-1.135l-1.37-1.783     c2.011,1.518,3.995,1.408,5.899,1.64c-0.669-0.342-1.419-1.842-2.048-2.51c0,0-0.981,0.403-0.803-0.666     C109.89,195.789,110.471,197.25,112.29,197.428z M158.471,194.625c0.375,4.594-2.625,7.688-2.625,9.75c0,1.875,0,1.5,0.276,1.112     c-1.641,3.298-2.526,3.856-2.526,4.138s-0.897,3.463,1.357,1.955c0,0-0.607,1.045-0.896,2.16c0,0-0.352-0.851-0.693-1.519     c0.231,2.653-0.529,4.244-1.543,7.515c-1.115-0.847-1.601-0.736-2.152-0.793c0,0-0.573-0.693-0.573,1.182     s1.125,1.125,2.141,1.234c0.109,1.016-0.651,2.606-1.469,5.284c1.203-0.144,0.828-0.519,1.203-1.269     c0.375,2.25,1.875,5.625,1.875,7.5s-2.359,1.765-3.022,2.394v1.991l1.18,1.241c0.453-0.642,2.218-1.501,2.968-1.126     c-0.75,0.375-1.234,0.265-1.877,0.704c0.289,0.006,5.802,2.114,4.167,7.169c-1.591-2.544-7.25-4.573-6.318-8.372     c-2.591,0.403-3.097,1.53-3.097,2.374c0,1.875-0.109,0.859,0.315,1.505c0,0,0.435-0.38,0.769-0.758     c0.126,0.932,1.427,6.254,5.54,3.847c0,0,0.017,1.296-0.624,1.781c0.641,0.484,1.391,1.984,1.875,2.625     c0.485-0.641,0.375-1.125,0.606-2.222c1.159,0.831,2.394,1.472,4.159,1.581c0.109,1.016-1.5,1.28-2.141,1.766l1.49,1.587     c0,0-1.115,1.038-1.492,0.709c0.094-0.315,1.408-0.09,3.564-1.12c0.188,1.074-1.313,1.449-1.313,3.324s0.641,2.734,1.46,3.919     c-2.829-0.174-6.29,1.345-7.462,2.043c0,0,0.377,0.413,1.127,0.788c-0.75,0.375-1.707-1.938-4.108-3.858     c1.108-0.267,2.027,0.522,3.24,1.252c0.533-1.311-0.257-2.269-0.257-4.144c0-2.438-1.781-4.875-4.875-4.875     c-1.875,0-4.125,3.75-4.125,5.625s1.125,1.5,1.125,1.5c-1.986-2.024-2.239-2.82-2.352-4.14c-1.133,1.404-1.59,2.131-1.902,3.708     h-3.369c-2.334-1.507-4.712-3.15-6.195-6.516c1.068-0.178,1.443-0.553,1.951-1.303v2.734c0.617-0.109,0.242,0.641,2.117,0.641     s1.125-0.375,1.47-1.499c0,0-1.47,2.249,0.405,2.249c2.719,0,3.75-2.063,3.75-4.125c0-7.219-8.25-1.031-8.25-8.25     c0-1.875-1.35-1.2-2.07-1.743c-4.375-2.139-6.461-1.632-8.055-1.632c-1.875,0,0.75,1.5-1.125,1.367h-2.233     c0.844-1.258,0.844-2.008,1.483-2.492l-1.151-1.126c-0.458,0.641-1.309,2.214-1.309,2.214c-0.915,0.037-1.93-0.823-2.415-1.463     c-0.484,0.64-0.484,1.39-1.664,2.222v-3.673c2.779,1.309,2.167,3.513,4.307,1.714c-1.506-5.797-2.265-12.596-2.667-19.014     c-0.361,2.717-0.361,6.467-1.568,9.739c2.354-11.048-3.067-10.346,0.914-19.481c0.304,1.118-1.196-0.007-1.196,1.868     s0.676,5.025,2.652,7.876c0.458-0.642-0.402-1.876-0.297-9.636c5.037-0.302,11.802,1.845,12.024-2.273     c5.914,0.567,9.118,1.535,13.654,3.669c3.544-4.739,10.593-4.909,11.282-11.256c0,0,1.145,2.453,1.619,3.75     C156.706,198.859,158.096,196.875,158.471,194.625z"/>
      <path fill-rule="evenodd" clip-rule="evenodd" fill="#1E1F1D" d="M88.346,161.625c0.64,0.484,2.21,1.333,2.93,3.218     c-3.824-0.314-5.651,0.852-6.324,3.907c-0.356-1.125-1.481-2.25-1.22-2.232c0.553-0.416,4.428-0.518,2.317-3.021     c-0.87,0.69-1.078,1.503-2.953,1.503s0-1.5-1.875-1.5s-1.235-0.11-1.88,0.435c0,0,0.755,0.69,0.466,1.806     c0,0-0.352-0.851-1.211-1.865c0.86-1.016,2.25-1.5,2.539-2.615c0,0,0.351,0.849,0.979,1.518c0.606-0.028,1.091,0.081,1.736-0.344     c0,0-0.38-0.435-1.476-0.666C83.206,160.61,88.986,161.14,88.346,161.625z"/>
      <path fill-rule="evenodd" clip-rule="evenodd" fill="#1E1F1D" d="M81.135,166.49c0,0,0.351,0.649-0.289,1.135     c0.64,0.484,1.125,0.375,1.875,0.75c-1.5,0.375-2.417-0.415-3.75-1.5c0,0,1.015-0.266,1.452,0.378     C80.423,167.253,80.846,166.875,81.135,166.49z"/>
      <path fill-rule="evenodd" clip-rule="evenodd" fill="#1E1F1D" d="M74.842,174.318c3.366,1.6,1.957,5.604,5.249,9.116     c0,0-0.855,0.205-1.965,1.054c-0.922-2.606-2.536-7.502-5.518-8.518C73.456,174.859,75.486,173.89,74.842,174.318z"/>
      <path fill-rule="evenodd" clip-rule="evenodd" fill="#1E1F1D" d="M75.521,179.399c-0.784,1.24-0.674,2.101-0.674,3.976     s0.739,5.159,1.225,7.889c0.385-0.654,0.385-0.874-0.1-1.514c-0.485,0.64-1.125,0-1.125,1.875s0.86,1.984,1.875,1.5     c-0.485,1.015,0.375,1.5,0,2.25c-0.375-0.75-1.015-1.235-1.5-1.875c-0.485,0.64-0.375-0.375-0.375,1.5s2.21,1.708,2.685,3.005     c0.425-0.646,0.69-2.255,1.635-2.146v2.869c-1.21-0.839-1.96-0.089-2.385-0.733c-0.475,1.298-1.935,3.755-1.935,5.63     s2.239,5.909,2.579,8.628c-0.329-0.378-0.219-0.863-0.704-1.503c-0.485,0.64-0.375-0.375-0.375,1.5s1.5,5.625,1.5,7.5     s-1.125,3-2.123,2.906c-0.874-6.234-2.377-17.906-2.377-19.781s1.5,1.125,1.5-0.75s-1.5,1.125-1.5-0.75s1.5-1.125,1.5-3     c0-4.781-2.25-5.25-2.25-11.25C72.596,185.813,72.508,180.704,75.521,179.399z"/>
      <path fill-rule="evenodd" clip-rule="evenodd" fill="#1E1F1D" d="M99.766,190.562c-0.88-1.019-2.212-0.852-3.905-2.037     C97.377,188.345,99.322,189.51,99.766,190.562z"/>
      <path fill-rule="evenodd" clip-rule="evenodd" fill="#1E1F1D" d="M147.886,195.01c1.101,0.85,1.96,1.865,1.672,2.98     c0,0-0.352-0.851-0.823-1.49c-1.044,1.372-2.303,1.88-3.45,2.418C146.304,198.039,146.865,197.506,147.886,195.01z"/>
      <path fill-rule="evenodd" clip-rule="evenodd" fill="#1E1F1D" d="M156.971,208.875c-0.414,1.668,0.266,3.265-1.644,4.847     C155.096,211.875,155.886,210.208,156.971,208.875z"/>
      <path fill-rule="evenodd" clip-rule="evenodd" fill="#1E1F1D" d="M159.221,212.25c0,1.875-1.914,3.543-2.811,4.551     C157.409,214.667,159.221,214.125,159.221,212.25z"/>
      <path fill-rule="evenodd" clip-rule="evenodd" fill="#1E1F1D" d="M79.058,222.76c1.02,2.496,1.02,4.983,0.057,6.769     c0.271-1.32,0.271-2.485-0.204-3.783c-0.425,0.645-1.065,1.13-1.065,3.005s1.5,0.75,1.5,2.625s-1.5-0.375-1.5,1.5     s-0.11,0.484,0.375,1.125c0.485-0.641,0.75-1.5,1.765-1.391c0.11,1.016-1.5,2.03-2.168,2.659     c0.028,0.606,0.138,1.091,0.849,0.826c0,0,0.304,0.905-1.503,0.795v-12.397L79.058,222.76z"/>
      <path fill-rule="evenodd" clip-rule="evenodd" fill="#1E1F1D" d="M80.471,239.625c0.375,0.75,1.125,1.125,1.125,3     c0,3.188-3.19,5.297-4.148,10.124c-0.352-3.374,1.159-6.283,0.643-9.726c0,0,0.395,0.836,0.88,1.477     C80.206,243.109,80.096,241.125,80.471,239.625z"/>
      <path fill-rule="evenodd" clip-rule="evenodd" fill="#1E1F1D" d="M159.682,239.388c1.061,0.301,1.998,1.607,3.534,4.271     C161.956,242.89,161.206,241.39,159.682,239.388z"/>
      <path fill-rule="evenodd" clip-rule="evenodd" fill="#1E1F1D" d="M148.236,264.859c0.109,0.922-1.78,2.985,0.828,3.114     c-0.828,1.166-1.844,0.526-2.45,0.498c-0.628,0.668,0.231,1.903,0.204,3.547c-0.832,0.871-1.848,1.731-3.612,1.621     c-0.11-1.015,0-2.78,0.64-3.265c-0.64-0.485,0.375-1.125-1.5-1.125s-0.859,0.109-0.375,1.125     c-1.015-0.485-2.625-2.25-2.509-2.625v-2.222c0,0,0.378,0.74,2.29,1.543c-0.156-0.446,0.219-2.321-0.184-2.553     c0.668,0.341,1.638,0.341,2.902-0.49v0.977C145.236,265.609,146.471,264.75,148.236,264.859z"/>
      <path fill-rule="evenodd" clip-rule="evenodd" fill="#1E1F1D" d="M168.971,271.875c0,0.75,0,2.25-0.75,3.75     C168.221,274.875,168.971,273.375,168.971,271.875z"/>
      <path fill-rule="evenodd" clip-rule="evenodd" fill="#1E1F1D" d="M155.252,272.321c1.234,0.788,2.094,1.804,2.066,2.697     l-2.017,1.691C155.096,275.625,155.886,274.293,155.252,272.321z"/>
      <path fill-rule="evenodd" clip-rule="evenodd" fill="#1E1F1D" d="M150.136,273.74c0,0-0.29-0.74-0.29,1.135     s0.641,1.234,1.125,2.25c-1.015-0.485-1.234-1.985-2.25-1.5C149.206,274.609,149.846,274.125,150.136,273.74z"/>
      <path fill-rule="evenodd" clip-rule="evenodd" fill="#1E1F1D" d="M79.721,285.375c0.375,2.25-0.485,4.015-1.719,4.805     C78.636,288.208,79.346,286.125,79.721,285.375z"/>
      <path fill-rule="evenodd" clip-rule="evenodd" fill="#1E1F1D" d="M41.471,289.875c0.375,1.5-0.75,4.125-1.644,4.097     c-0.872-0.832-1.731-2.597-1.356-3.347c0.375,0.75,1.015,1.984,1.5,2.625C40.456,292.609,41.096,291.375,41.471,289.875z"/>
      <path fill-rule="evenodd" clip-rule="evenodd" fill="#1E1F1D" d="M68.668,289.556c0,0,0.928-0.056,0.928,1.819     s-2.25,2.25-2.625,3c-0.375-0.75-1.125-1.5-1.015-4.016C66.971,290.25,67.721,289.5,68.668,289.556z"/>
      <path fill-rule="evenodd" clip-rule="evenodd" fill="#1E1F1D" d="M75.704,294.106l-3.69,4.33     C72.636,296.458,74.206,295.609,75.704,294.106z"/>
      <path fill-rule="evenodd" clip-rule="evenodd" fill="#1E1F1D" d="M67.909,295.875v1.5c0.078,0.484,1.648-0.167,2.328,1.765     c0,0,0.11-0.64-1.765-0.64s-0.375,0.375-0.75,1.125c-0.375-0.75-0.265-1.235-1.125-2.25L67.909,295.875z"/>
      <path fill-rule="evenodd" clip-rule="evenodd" fill="#1E1F1D" d="M60.568,299.769c0.668,0.341,1.903-0.519,3.403-0.144     C62.471,300,60.568,299.769,60.568,299.769z"/>
      <path fill-rule="evenodd" clip-rule="evenodd" fill="#1E1F1D" d="M37.986,299.418c0.11,0.957,0.485,1.332,1.235,1.707     c-1.969,0.375-3.292,0.609-4.844-1.707H37.986z"/>
      <path fill-rule="evenodd" clip-rule="evenodd" fill="#C6C7CC" d="M125.226,36.092c1.914,0.698,2.12,2.533,2.495,1.783     c0.375,0.75-0.375,2.25-0.402,2.856c0.668,0.628,1.152-0.231,1.902,0.144c-0.75,0.375-1.234,1.235-0.75,2.25     c-1.015-0.485-1.234-1.985-2.394-1.153C125.846,40.688,125.49,37.619,125.226,36.092z"/>
      <path fill-rule="evenodd" clip-rule="evenodd" fill="#C6C7CC" d="M114.305,225.741c-2.577-4.704,0.935-9.133-2.21-13.512     c0.251,0.396,0.892,0.88,1.291,1.53c0.479-2.004-0.25-5.052,1.356-7.588c-0.273,0.642-0.428,1.095-0.428,2.688     C114.596,214.109,114.596,220.125,114.305,225.741z"/>
      <path fill-rule="evenodd" clip-rule="evenodd" fill="#C6C7CC" d="M116.541,210.743c0.305,5.632,0.294,11.541,1.665,17.925     c0,0-0.985-0.668-2.039-0.823c0.698-2.589,0.679-4.72,0.679-6.595s-1.5-6.938-1.5-7.125     C115.346,214.031,117.528,214.075,116.541,210.743z"/>
      <path fill-rule="evenodd" clip-rule="evenodd" fill="#C6C7CC" d="M108.221,211.875c-0.484,1.015-0.375,2.25-0.75,3.75     C107.096,214.125,107.206,212.359,108.221,211.875z"/>
      <path fill-rule="evenodd" clip-rule="evenodd" fill="#C6C7CC" d="M119.471,214.125c0.375,3,0.375,6.75,0,10.5     C119.096,221.625,119.096,217.875,119.471,214.125z"/>
      <path fill-rule="evenodd" clip-rule="evenodd" fill="#C6C7CC" d="M109.721,225.375c-0.484,1.015-1.914,2.418-3.085,4.115     C106.346,228.375,107.956,226.609,109.721,225.375z"/>
      <path fill-rule="evenodd" clip-rule="evenodd" fill="#C6C7CC" d="M115.636,229.51c0,0-1.04,1.49,0.835,1.49     s1.235-0.641,2.488-1.415c-1.426,2.748-0.632,5.658-1.798,8.16c-0.315-1.12-0.315-1.495-0.315-3.37     c0-0.938-1.943-2.35-3.732-2.89C113.956,230.359,115.346,230.625,115.636,229.51z"/>
      <path fill-rule="evenodd" clip-rule="evenodd" fill="#C6C7CC" d="M114.438,232.51v4.263c-0.701,0.867-1.717,1.728-2.803,1.518     C113.549,235.459,113.136,234.208,114.438,232.51z"/>
      <path fill-rule="evenodd" clip-rule="evenodd" fill="#C6C7CC" d="M133.487,245.238v-2.801c-0.142-1.875,1.358,1.313,1.358-0.563     s-0.375-0.375-0.813-0.542C134.816,242.761,134.613,244.023,133.487,245.238z"/>
      <path fill-rule="evenodd" clip-rule="evenodd" fill="#C6C7CC" d="M152.471,241.125c0.375,0.75,1.125,1.5,1.098,2.394     c-0.832,0.871-0.348,0.981-2.223,0.981s-1.39-0.86-1.875-1.5c-0.484,0.64-0.484,1.39-1.5,1.875c0.485-1.016,0-2.625,1.875-2.625     s3,1.125,2.769,1.528C152.956,243.109,152.096,241.875,152.471,241.125z"/>
      <path fill-rule="evenodd" clip-rule="evenodd" fill="#C6C7CC" d="M105.338,244.519c0.258,1.106-1.352,2.871-2.77,4.25     c0.027,0.606,0.571,1.771,1.843,2.486c0.545-0.646-0.315-1.88-0.137-2.949c1.865,0.733,4.259,3.111,5.483,5.196     c0.448-0.643,2.046-1.463,3.344-1.938c-0.646-0.425-0.646-1.925-1.131-2.564l-2.408,2.215c-0.217-1.09,1.323-2.007,2.349-3.71     l1.861,1.742v3.408c-2.552,0.095-6.677,2.345-8.552,2.345c-1.5,0-1.397-5.015-4.872-7.165     C102.209,247.047,102.575,247.841,105.338,244.519z"/>
      <path fill-rule="evenodd" clip-rule="evenodd" fill="#C6C7CC" d="M118.661,244.505c1.075,0.854,0.435,1.87,0.325,3.854     c0.484-0.109-0.266,0.641,1.609,0.641c0.563,0,0.75-0.563,0.75-1.125c0,1.031,0.844,1.125,1.875,1.125     c0.656,0,0.192-0.271,5.603-1.255c0,0-0.837,0.395-1.478,0.88c0.641,0.484,2.25,0.75,2.141,1.765     c-2.516,0.11-4.183-0.68-5.455-1.395c-0.545,0.645,0.205,2.145-0.816,3.005c-1.674-1.619-2.057-2.25-2.994-2.25     c-1.875,0-1.875,0.375-2.189,0.755C118.365,248.506,117.636,246.208,118.661,244.505z"/>
      <path fill-rule="evenodd" clip-rule="evenodd" fill="#C6C7CC" d="M135.706,244.572h4.17l1.68,1.973     c-1.085,0.205-1.46,1.33-1.569,2.345c-1.016,0.11-1.766-0.64-2.88-0.929c0,0,0.85-0.352,1.519-0.692     c-0.311,0.231-1.336-0.196-3.699,0.837l1.424-1.783C136.35,246.322,135.596,245.625,135.706,244.572z"/>
      <path fill-rule="evenodd" clip-rule="evenodd" fill="#C6C7CC" d="M133.336,248.539c0,0-0.85,0.351-1.49,0.847     c0.656,0.584,2.808,2.867,1.993,5.633c0,0-0.383-0.659,0.257-1.144c-0.64-0.485-1.875-1.125-3.721-1.356l1.471-1.654     l-1.498-1.516C131.206,248.359,132.221,248.25,133.336,248.539z"/>
      <path fill-rule="evenodd" clip-rule="evenodd" fill="#C6C7CC" d="M159.928,248.252c0,0,0.309,0.857,1.168,1.873     c-1.609,1.765-3.206,1.835-4.527,2.106C156.946,251.738,158.856,251.727,159.928,248.252z"/>
      <path fill-rule="evenodd" clip-rule="evenodd" fill="#C6C7CC" d="M136.524,249.056c1.865,0.733,3.365,1.483,4.393,2.35     c-0.711-0.266-1.681-0.266-2.321,0.22c0.641,0.484,1.5,0.75,1.269,1.847C138.706,252.64,136.346,250.875,136.524,249.056z"/>
      <path fill-rule="evenodd" clip-rule="evenodd" fill="#C6C7CC" d="M148.661,249.005c1.075,0.854,2.479,0.784,4.175,1.956     c-1.115,0.289-1.6,0.179-2.266,0.808v4.975c0.666,0.616,1.416,0.616,1.9,1.257c0.485-0.641,0.485-0.86-0.304-2.095     c1.973,0.634,1.319,1.984,0.679,2.47l1.232,1.141c4.921-1.868,7.018-1.328,7.018-2.266c0-1.875-0.64-2.36-1.5-3.375     c0.86-1.016,1.125-1.875,2.223-1.644c-0.832,1.158-0.723,0.144-0.723,2.019s-0.75,3.75,1.125,3.75s0.375-0.375,0.665-1.49     c0,0,0.085,1.49,0.489,1.722c-0.669-0.342,0.721,1.269-1.154,1.269s-0.375-1.5-2.25-1.5c-1.406,0-3.846,1.73-4.262,4.415     c-4.676-0.291-4.045-4.26-8.106-6.221c0.854-1.085,2.354-1.835,2.993-2.319c-0.64-0.485,0,0.375-1.875,0.375     s-2.25-1.5-3.318-1.678C146.136,250.708,147.636,250.708,148.661,249.005z"/>
      <path fill-rule="evenodd" clip-rule="evenodd" fill="#C6C7CC" d="M143.846,255c1.875,0,0.86-0.641,1.313-1.125l0.449,1.5v1.668     c-1.387,0.207-2.718-1.333-4.69-0.698c0.789-1.235,1.469-2.637,2.335-3.665C142.986,253.39,141.971,255,143.846,255z"/>
      <path fill-rule="evenodd" clip-rule="evenodd" fill="#C6C7CC" d="M159.773,263.306c0,0-0.067-0.696,0.947-1.181     c-0.484,1.015-1.125,0.375-1.125,2.25s1.5,1.5,1.297,2.584c-2.078-1.249-2.797-4.178-2.797-5.209     C158.096,263.625,158.471,263.25,159.773,263.306z"/>
      <path fill-rule="evenodd" clip-rule="evenodd" fill="#040404" d="M84.221,173.625c0.375,1.5-0.375,3-0.75,4.5     C83.096,176.625,83.846,175.125,84.221,173.625z"/>
      <path fill-rule="evenodd" clip-rule="evenodd" fill="#040404" d="M103.375,188.481c-0.669-0.342-0.779,0.144-1.076,0.527     c0.329-1.474-2.683-0.517-2.773-0.914c0.711,0.265,0.82-0.22,1.195-1.72C101.096,187.125,102.221,188.25,103.375,188.481z"/>
      <path fill-rule="evenodd" clip-rule="evenodd" fill="#040404" d="M106.721,192.375c2.25-0.375,3.583,1.164,5.25,0.75     C110.64,194.21,108.221,192.75,106.721,192.375z"/>
      <path fill-rule="evenodd" clip-rule="evenodd" fill="#040404" d="M147.971,199.125c0-1.875,1.235,0.484,2.25,0     c-0.484,1.015-1.981,2.518-1.981,2.518c0.217-1.283-0.624-2.637,0.481-4.768C148.721,196.875,147.971,197.25,147.971,199.125z"/>
      <path fill-rule="evenodd" clip-rule="evenodd" fill="#040404" d="M160.233,207.106c-2.147,2.778-2.531,5.774-2.314,7.337     c-1.213-0.804-1.433-0.804-2.448-0.318C156.706,212.359,157.456,209.359,160.233,207.106z"/>
      <path fill-rule="evenodd" clip-rule="evenodd" fill="#040404" d="M155.953,215.356c-0.217,1.283-0.107,2.144-0.107,4.019     s-1.539-0.167-1.21,1.135C154.346,218.813,155.394,215.922,155.953,215.356z"/>
      <path fill-rule="evenodd" clip-rule="evenodd" fill="#040404" d="M90.308,218.26c0.289,2.521,1.039,3.365,0.929,5.13     c-1.015,0.11-1.765,0.86-2.78,0.75C88.346,221.625,89.136,219.958,90.308,218.26z"/>
      <path fill-rule="evenodd" clip-rule="evenodd" fill="#040404" d="M87.752,225.821c1.234,0.788,1.984,0.788,2.839,1.863     c-1.702,1.025-1.702,2.525-3.567,3.259C86.846,229.125,88.386,227.793,87.752,225.821z"/>
      <path fill-rule="evenodd" clip-rule="evenodd" fill="#040404" d="M153.033,226.875c0.563,1.5,1.953,2.734,3.545,4.614     c0,0-2.232-1.614-2.232,0.261s0.375,0.75,0.761,1.039c-1.303-0.329-2.261-1.695-2.073-3.57V226.875z"/>
      <path fill-rule="evenodd" clip-rule="evenodd" fill="#040404" d="M156.827,233.972c-0.341,0.668-0.231,1.903-0.606,3.403     c-0.375-0.75-1.125-0.375-1.125-2.25S156.596,234.375,156.827,233.972z"/>
      <path fill-rule="evenodd" clip-rule="evenodd" fill="#040404" d="M156.971,238.875c1.016,0.484,1.333,1.164,3.266,0.484     c0,0,0,1.28-0.641,1.766l2.242,2.326c0,0-1.492-0.076-1.807,1.044C158.865,241.993,158.206,240.64,156.971,238.875z"/>
      <path fill-rule="evenodd" clip-rule="evenodd" fill="#040404" d="M163.721,251.625c1.016,0.484,2.516,2.734,3.494,4.226     c-1.901-1.636-1.001,0.096-2.728-3.102c0,0-0.392,0.376-0.767,1.126C163.346,253.125,164.206,252.64,163.721,251.625z"/>
      <path fill-rule="evenodd" clip-rule="evenodd" fill="#040404" d="M167.836,257.539c0,0-0.85,0.351-1.49,0.836     c0.641,0.484,1.125,2.25,1.875,3v3.072h-2.596c0.831-1.088,0.721-1.197,0.721-3.072s0.11-1.985-1.5-3.75     C165.706,256.609,166.721,257.25,167.836,257.539z"/>
      <path fill-rule="evenodd" clip-rule="evenodd" fill="#040404" d="M80.068,282.231c-0.832,1.158-2.222-0.231-2.222,1.644     s1.5-1.125,1.5,0.75s-2.29,1.333-1.815,2.63l1.721-1.379c-0.766,1.264-1.516,2.014-2.531,2.874c-1.015-0.86-2.25-1.5-3.346-1.731     c0.831-1.159,1.361-0.409,1.99,0.26c0.606-0.028,0.231-0.028,0.231-1.903s1.61-0.266,2.25-0.75l-1.371-1.783     C77.736,283.609,78.221,282,80.068,282.231z"/>
      <path fill-rule="evenodd" clip-rule="evenodd" fill="#040404" d="M76.895,289.875v2.394c-0.658,0.871-2.158,0.871-3.173,1.356     C74.206,292.609,76.346,290.625,76.895,289.875z"/>
      <path fill-rule="evenodd" clip-rule="evenodd" fill="#040404" d="M58.721,292.875c1.015,0.484,2.418,0.414,3.446,1.28     c-0.711-0.266-1.681,0.484-2.696,1.345C58.456,294.64,59.206,293.89,58.721,292.875z"/>
      <path fill-rule="evenodd" clip-rule="evenodd" fill="#040404" d="M47.79,303.928c0,0-0.694-0.178-0.694,1.697     s0.375,1.125,1.125,1.5c-1.5,0.375-1.5,1.125-2.615,0.836c0,0,0.85-0.352,1.49-0.836C46.456,306.64,46.721,303.75,47.79,303.928z     "/>
      <path fill-rule="evenodd" clip-rule="evenodd" fill="#040404" d="M58.721,303.75c1.875,0,2.625,1.5,4.5,1.5s1.875-1.5,3.75-1.5     s1.5,2.25,3.37,2.564c-2.501,1.166-8.245-0.689-8.245,1.186s0.64,0.859,1.429,2.094c-1.784-0.539-3.624-1.804-4.038-2.844     c-0.431,1.293-1.181,2.043-2.267,3.375c0,0-0.265-1.016,0.375-1.5c-0.64-0.485-1.875-0.375-3.721-0.606     C54.706,306.859,56.846,303.75,58.721,303.75z"/>
      <path fill-rule="evenodd" clip-rule="evenodd" fill="#040404" d="M48.971,304.875c1.5-0.375,3.265,0.484,4.097,1.644     C51.971,306.75,50.471,305.25,48.971,304.875z"/>
      <path fill-rule="evenodd" clip-rule="evenodd" fill="#040404" d="M120.971,290.625h3.75H120.971z M129.221,268.875h3.75H129.221z      M80.971,271.596c-1.542-1.361-1.996-1.648-1.31-4.591C80.807,268.708,79.986,270.109,80.971,271.596z M82.542,265.633v5.102     c-1.586-0.845-1.696-0.734-1.696-2.609S81.971,265.5,82.542,265.633z M86.989,252.837v5.91c0,0-2.393-1.872-2.393-3.747     S84.853,253.519,86.989,252.837z M105.262,204.002c0.334,2.623,1.084,6.748,1.084,8.623s-0.776,7.639-2.695,11.618     c-0.305-1.868,0.445-4.118,0.684-6.02c-2.401,2.907-0.946,4.823-3.276,6.566c0.038,0.585,0.679,1.819,1.104,2.465     c0,0,0.435-0.38,0.721-0.766c-1.641,3.747-4.786,9.011-4.786,15.386c0,3.844,4.666,13.281,5.128,14.723     c2.839,0.663,5.916,0.691,7.572,1.59c-0.138,3.397,1.109,9.756,6.067,9.075l-1.481-1.548c1.089-0.215,2.008,1.324,3.426,2.045     c0.663-0.01,1.148,0.1,1.788-0.385c-0.64-0.485-1.39-0.485-2.188-1.704c3.355,0.979,4.72,1.329,4.813,1.329     c1.875,0,1.125-0.375,0.866-0.778v1.168c0.149,0.47,0.259,0.36,2.134,0.36s1.125-1.5,3-1.5s0.375,1.5,2.25,1.5s1.125-3,3-3     s0.266,0.859,0.709,1.502c0.85-1.608,1.802-5.14,4.239-5.848c-0.073-0.529-1.463-1.015-2.317-2.09     c1.702-1.025,4.119-1.064,6.734-0.775c-1.696,1.171-2.99,1.961-2.99,3.836s0.11,1.234,0.821,0.97     c-1.027,0.865-3.071,3.53-3.071,5.405c0,3.469,2.868,2.179,5.687,8.255l1.604-1.467c0.21,1.087-0.649,1.352-1.295,1.896     c0.716,1.273,2.049,1.854,3.32,2.57c0.545-0.646,0.545-0.865-0.268-2.063c3.134,0.476,5.67,1.621,8.647,5.065     c0,0,0.415,0.103,1.055-0.382c-0.64-0.485-1.5-1.5-1.269-2.597l2.342,2.226c0.467-1.296,1.927-1.129,1.927-3.004     s-2.25-1.875-2.25-3.75s0.86,0.109,1.506-0.436c-0.716-1.271-1.249-1.834-3.161-2.635c0.155,0.445,0.905,1.195,0.53,1.945     c-0.375-0.75-1.765-1.985-2.596-3.144c1.096-0.231,1.581-0.122,2.221-0.606c-0.64-0.485-1.609-1.235-2.769-0.403     c-0.231-1.097,0.629-2.332,0.144-2.972c-0.484,0.64-1.125,1.125-1.5,1.875c-0.375-0.75-1.765-0.485-2.59-1.344     c-0.221-2.659-2.379-5.031-4.535-5.031c-1.875,0-1.125,1.5-2.094,1.39v-2.847c2.461,1.128,8.141,2.305,10.021,5.96     c0.434-0.644,1.184-0.863,0.409-2.115c2.748,1.426,7.414,3.612,7.414,5.487s-0.859,0.265-1.505,0.689c0,0-0.745,0.436,1.13,0.436     s4.145-2.744,5.031-5.179c2.469-0.071,3.219-0.446,3.219,1.429s-1.125,1.5-1.125,3.375s0.375,1.5,1.125,0.75     c-1.313,1.875-2.625,4.969-2.625,8.25c0,5.531-22.594,13.125-23.625,13.125c-1.875,0-2.417-0.79-3.606-1.528     c-0.537,2.021-0.894,2.278-2.769,2.278s-3.75-1.5-5.625-1.5s-1.875,3-3.75,3c-0.844,0-1.875-0.75-6-1.125     c0.75-0.375,1.985-0.266,2.636-0.663c-2.004-0.481-5.053-0.502-6.604-1.282c-0.796-0.79-0.796-1.54-1.281-2.18     c-0.484,0.64-0.484,2.14-1.439,2.995c-1.728-0.785-1.825-2.355-2.454-3.023c-0.606,0.028-1.091-0.082-1.887,0.708     c0,0-0.704-0.04-1.576,0.792c-0.894,0.028-0.408-1.582-0.993-2.235c0,0-1.885-0.097-2.525,0.389l1.42,1.732     c-8.881-3.544-19.685-8.243-28.409-13.071c1.114-0.286,1.489,0.839,1.489-1.036s-1.5-1.875-1.5-3.75s0.86-0.641,1.5-1.125     c-0.64-0.485-0.86-1.235-2.019-0.403c-0.231-1.847-0.122-4.362,1.269-5.597c-0.64-0.485-0.86-0.485-2.019,0.347     c-0.231-5.597,2.019-14.222,2.019-16.097c0-3.375,4.725-10.944,6.313-13.869c1.078,0.854,1.936,1.078,1.936,1.078     c-0.843,1.134-5.248,6.51-5.312,9.885v4.03c2.608-0.74,7.563,0.001,9.438,0.001c8.812,0,8.814-29.224,9.013-31.5     c0.361,1.125,0.322,2.458,0.718,3.751C102.62,217.743,103.355,211.044,105.262,204.002z M87.601,188.565     c4.12-0.315,4.87,0.435,5.967,0.666C92.736,190.39,90.103,189.73,87.601,188.565z M87.889,169.491     c-0.304,2.725-1.069,6.522-2.012,10.059v1.205c0.988-1.999,3.969-3.755,3.969-5.63s-1.5,0.375-1.5-1.5s0.75-3,1.125-4.5     c0.375,0.938-1.091,3.635,1.865,5.912c0,0-0.1,1.853-1.49,3.088c0.64,0.484,0.86,0.484,2.019-0.347     c0.231,1.097,0.231,0.722,0.231,2.597s1.39,1.234,2.222,2.394c-1.097,0.231-3.722-0.519-3.722-2.394s0.86-0.266,1.505-0.69     c-1.297-0.475-2.965-0.642-3.44-1.939c-0.425,0.645-1.065,0.755-1.065,2.63s0.75,2.625,0.75,4.5s4.333,2.688,6.749,4.463     l-1.499,1.556c0.641,0.466,0.641,1.216,1.186,1.861c1.272-0.716,0.314-3.005,2.189-3.005s3,1.5,3.75,1.875     c-0.75,0.375-2.515-0.485-3-1.125l-1.126,1.092c0,0,1.501-1.092,1.501,0.783s-1.5,0.75-1.527,1.356l1.186,1.27     c0.452-0.642,0.599-1.482,3.314-2.02c0,0-0.832,0.408-1.473,0.894c0.641,0.484,1.391,0.484,1.875,1.125     c0.485-0.641,0.375-1.875,0.665-2.99c0,0,0.351,0.85,1.21,1.865c-0.859,1.015-3.039,1.668-3.755,2.94     c0.646,0.544-0.37,0.435,1.505,0.435s1.875-1.5,2.906-1.374c-0.658,6.668-0.656,6.155-0.656,8.124c0,1.688-3,5.531-3.109,10.39     c-3.266,0.11-7.134,0.841-9.639-0.238l1.273-0.945v-2.476c-0.634,0.659-0.524,1.145-0.634,2.159     c-1.015,0.11-2.14-0.265-2.429,0.851c0,0-0.352-0.851-1.183-1.722c-0.029-0.894,1.581-0.409,2.226-0.954     c-0.715-1.271-2.255-4.064-2.255-5.939s-0.86-1.235-2.019-0.403c-0.231-1.097,1.378-2.112,2.019-2.597     c-0.64-0.485,0.375-0.375-1.5-0.375s-1.5,0.375-1.789,1.49c-1.172-1.697-1.211-4.49-1.211-6.365s-1.5,1.125-1.5-0.75     s1.61-1.016,2.25-1.5c-0.64-0.485-0.86-0.485-1.875,0c0.485-1.016,1.165-2.082,0.553-3.432c-0.553,0.057-1.038,1.446-2.272,2.236     c0.634-1.972,0.634-3.137-0.151-4.864c0.855-0.956,1.87-0.315,2.389-0.236c0.617-2.795,0.617-5.613,0.277-8.332     c0.329,0.378,0.704,0.753,1.966,0.838C85.354,177.302,86.854,172.802,87.889,169.491z"/>
      <line fill="none" stroke="#000000" x1="137.5" y1="37.308" x2="236.5" y2="28.308"/>
      <line fill="none" stroke="#000000" x1="130.5" y1="126.808" x2="235" y2="114.808"/>
      <line fill="none" stroke="#000000" x1="164.5" y1="237.808" x2="234.5" y2="226.808"/>
      <path fill="none" stroke="#000000" d="M240.5,234.808"/>
      <path fill="none" stroke="#000000" d="M240.5,26.808"/>
      <text transform="matrix(1 0 0 1 249 29.3076)">
         <tspan x="0" y="0" font-family="'Myriad-Roman'" font-size="12">Head</tspan>
      </text>
      <text transform="matrix(1 0 0 1 243 116.3076)">
         <tspan x="0" y="0" font-family="'Myriad-Roman'" font-size="12">Neck</tspan>
      </text>
      <text transform="matrix(1 0 0 1 243 227.8076)">
         <tspan x="0" y="0" font-family="'Myriad-Roman'" font-size="12">Body</tspan>
      </text>
      <text transform="matrix(1 0 0 1 0 92.3076)">
         <tspan x="0" y="0" font-family="'Myriad-Roman'" font-size="12">Electronics consists </tspan>
         <tspan x="0" y="14.4" font-family="'Myriad-Roman'" font-size="12">three single-coil </tspan>
         <tspan x="0" y="28.8" font-family="'Myriad-Roman'" font-size="12">pick-ups, which can </tspan>
         <tspan x="0" y="43.2" font-family="'Myriad-Roman'" font-size="12">be selected over a </tspan>
         <tspan x="0" y="57.6" font-family="'Myriad-Roman'" font-size="12">rocker switch.</tspan>
      </text>
   </g>
</svg>
