<?xml version="1.0" encoding="UTF-8" standalone="no"?>
<!-- Created with Inkscape (http://www.inkscape.org/) -->
<svg
   xmlns:svg="http://www.w3.org/2000/svg"
   xmlns="http://www.w3.org/2000/svg"
   version="1.1"
   width="320"
   height="140"
   viewBox="0 0 264 120"
   id="svg2">
  <defs
     id="defs39" />
  <g
     transform="translate(6.9711998e-2,11.258515)"
     id="g2416">
    <path
       d="M 156.36,0 L 160.39,0 C 166.31,1.05 172.27,2.21 177.9,4.38 C 180.45,5.58 183.22,4.57 185.85,4.26 C 192.92,3.24 199.91,5.25 206.93,5.73 C 211.64,6.13 216.45,6.06 221.02,7.43 C 228.92,10.59 237.74,10.4 246.02,8.99 C 251.99,7.96 258.04,8.62 264,9.37 L 264,10.67 C 261.87,13.87 258.75,16.26 255.43,18.1 C 251.17,19.11 246.76,19.28 242.45,20.04 C 240.32,23.24 236.56,24.46 233.71,26.82 C 231.18,28.93 227.99,30.23 225.97,32.91 C 222.82,36.86 218.29,39.3 214.33,42.31 C 209.11,44.96 204.32,48.5 198.71,50.33 C 197.93,52.66 197.35,55.6 194.83,56.67 C 192.8,57.75 190.5,57.13 188.43,56.59 C 185.43,57.68 182.47,58.88 179.54,60.11 C 182.59,60.15 186.32,59.66 188.56,62.19 C 190.55,64.93 193.45,67.51 193.5,71.16 C 193.62,76 193.51,80.84 193.5,85.68 C 195.07,86.03 196.71,86.21 198.21,86.84 C 200.04,88.24 200.02,91.85 197.67,92.7 C 194.4,93.71 190.91,93.15 187.55,93.33 C 187.15,93.03 186.36,92.45 185.97,92.16 C 180.95,93.95 175.39,95.19 170.16,93.61 C 166.42,92.37 162.91,89.12 162.74,84.97 C 162.8,80.19 166.6,76.37 170.78,74.61 C 175.91,72.38 181.61,73.38 187.01,73.48 C 186.27,72.17 186.21,70.14 184.55,69.6 C 178.78,67.43 172.96,71.46 167.14,70.04 C 166.64,68.85 166.14,67.66 165.64,66.47 C 165.17,68.29 164.69,70.1 164.16,71.9 C 162.43,67.89 165.01,64.4 167.05,61.17 C 170.5,56.15 177.94,54.59 179.72,48.35 C 173.4,46.47 166.19,45.62 161.39,40.61 C 158.81,38.3 157.88,34.87 156.09,32.04 C 153.73,30.33 151.28,28.72 149.27,26.59 C 147.47,24.46 144.37,25.04 141.93,24.52 C 141.78,24.83 141.48,25.44 141.33,25.75 C 141.52,23.27 141.58,20.79 141.67,18.32 C 138.4,18.69 135.31,20.02 134.56,23.55 C 133.86,23.48 132.47,23.35 131.77,23.28 C 133.64,11.13 144.82,2.31 156.36,0 z"
       id="path6"
       style="fill:#010101" />
    <path
       d="M 160.39,0 L 264,0 L 264,9.37 C 258.04,8.62 251.99,7.96 246.02,8.99 C 237.74,10.4 228.92,10.59 221.02,7.43 C 216.45,6.06 211.64,6.13 206.93,5.73 C 199.91,5.25 192.92,3.24 185.85,4.26 C 183.22,4.57 180.45,5.58 177.9,4.38 C 172.27,2.21 166.31,1.05 160.39,0 z"
       id="path8"
       style="fill:#ffffff" />
    <path
       d="M 143.71,12.24 C 146.48,7.28 152.48,4.55 157.97,4 C 164.75,4.63 171.5,6.26 177.83,8.81 C 174.71,11.95 171.32,14.96 167.09,16.48 C 164.31,17.51 163.87,20.75 163.83,23.32 C 165.09,23.17 166.35,23.03 167.61,22.9 C 167.75,19.74 171.11,19.5 173.23,18.09 C 176.87,15.89 179.69,12.65 182.71,9.7 C 184.03,8.29 186.09,8.18 187.88,8.02 C 194.33,7.77 200.64,9.47 207.05,9.81 C 211.5,10.1 216.01,10.23 220.35,11.37 C 220.51,11.75 220.83,12.52 220.99,12.9 C 223.49,13.1 225.99,13.32 228.49,13.58 C 228.39,13.89 228.2,14.53 228.1,14.85 C 229.15,15.09 231.25,15.56 232.3,15.79 C 227.24,18.2 221.93,20.1 217.13,23.05 C 213.65,25.34 209.46,26.03 205.64,27.53 C 202.01,28.96 197.9,28.55 194.39,30.37 C 191.35,31.91 188.01,32.66 184.81,33.8 C 182.21,34.74 180.1,32.46 178.15,31.13 C 177.23,32.09 176.31,33.05 175.4,34.02 C 178.08,36.92 182.12,38.88 186.12,37.77 C 189.86,36.59 193.62,35.41 197.15,33.64 C 205.81,31.99 214.58,29.72 222.14,24.99 C 226.04,22.71 230.44,21.49 234.43,19.42 C 236.5,18.41 237.46,16.3 237.35,14.06 C 243.39,13.78 249.34,12.19 255.43,12.58 C 255.01,13.01 254.18,13.88 253.76,14.32 C 248.99,15.14 244.17,15.58 239.38,16.28 C 238.54,17.71 237.97,19.54 236.24,20.14 C 232.62,21.76 230.05,24.95 226.49,26.68 C 223.67,28.07 222.5,31.26 220.05,33.09 C 215.59,36.1 211.54,39.72 206.47,41.72 C 203.06,44.34 199.06,45.95 194.95,47.12 C 194.62,49.33 194.16,51.56 192.86,53.42 C 192.68,51.03 193.74,48.11 191.75,46.19 C 184.11,44.94 176.34,43.77 169.09,40.9 C 164.11,38.88 160.76,34.03 160.03,28.78 C 155.97,27.66 152.94,24.61 150.28,21.51 C 149.66,20.05 150.06,18.33 149.88,16.77 C 147.91,15.12 146.26,13.03 143.71,12.24 z"
       id="path10"
       style="fill:#ffffff" />
    <path
       d="M 149.31,9.75 C 151.01,9.64 152.71,9.69 154.42,9.83 C 153.74,12.65 151.33,13.77 148.58,13.28 C 148.76,12.39 149.12,10.63 149.31,9.75 z"
       id="path12"
       style="fill:#010101" />
    <path
       d="M 137.03,19.13 C 138.2,17.05 139.5,15.04 140.89,13.1 C 142.58,14.04 144.31,14.92 146.01,15.85 C 142.87,16.5 139.92,17.78 137.03,19.13 z"
       id="path14"
       style="fill:#ffffff" />
    <path
       d="M 142.04,20.64 C 144.04,19.7 145.87,18.44 147.49,16.93 C 147.78,18.33 147.99,19.74 148.32,21.13 C 146.23,20.93 144.14,20.72 142.04,20.64 z"
       id="path16"
       style="fill:#ffffff" />
    <path
       d="M 142.08,18.25 C 142.62,18.8 142.62,18.8 142.08,18.25 z"
       id="path18"
       style="fill:#0a51a0" />
    <path
       d="M 134.56,23.55 C 135.31,20.02 138.4,18.69 141.67,18.32 C 141.58,20.79 141.52,23.27 141.33,25.75 C 140.43,29.31 139.84,32.94 139.33,36.57 C 143.76,38.48 148.44,39.88 152.63,42.28 C 154.23,42.94 153.88,44.92 154.37,46.26 C 148.96,46.54 143.56,46 138.16,45.71 C 137.64,52.43 137.26,59.39 138.94,65.98 C 139.76,69.25 143.23,70.13 146.06,70.91 C 147.7,69.45 149.29,67.9 151.17,66.74 C 154.04,66.19 156.26,70.04 154.17,72.14 C 150.76,75.56 146.15,78.94 141.04,78.17 C 137.09,77.2 134.99,73.33 132.47,70.5 C 126.68,63.21 128.67,53.26 129.3,44.71 C 124.59,43.69 119.66,42.91 115.51,40.31 C 114.83,38.7 115.85,37.35 117.11,36.46 C 117.21,35.11 117.32,33.76 117.48,32.41 C 122.43,32.8 127.33,33.61 132.19,34.62 C 132.9,30.91 133.53,27.18 134.56,23.55 z"
       id="path20"
       style="fill:#0a51a0" />
    <path
       d="M 71.09,55.85 C 69.22,53.99 70.21,50.14 73.01,49.89 C 76.42,49.5 79.86,49.79 83.28,49.73 C 83.24,61.74 83.36,73.76 83.22,85.78 C 85.12,86.22 87.8,85.92 88.72,88.09 C 89.97,90.62 87.74,93.59 84.97,93.22 C 81.89,92.86 77.85,94.52 75.48,92.09 C 68.7,95.38 59.67,95.36 53.82,90.2 C 46.76,84.19 47.32,72.06 54.31,66.22 C 60.04,60.59 69.45,60.7 76.01,64.81 C 76.01,62.18 76,59.55 76,56.92 C 74.36,56.66 72.44,57.02 71.09,55.85 z"
       id="path22"
       style="fill:#010101" />
    <path
       d="M 105.46,50 C 108.24,49.99 111.01,50 113.78,50 C 113.77,52.51 113.78,55.02 113.77,57.53 C 111,57.53 108.23,57.53 105.46,57.51 C 105.47,55.01 105.48,52.5 105.46,50 z"
       id="path24"
       style="fill:#010101" />
    <path
       d="M 180.28,53.55 C 183.44,53.85 186.47,52.73 188.84,50.66 C 188.55,51.75 188.28,52.85 188.03,53.95 C 182.66,55.96 177.05,57.39 172,60.16 C 174.69,57.87 177.46,55.68 180.28,53.55 z"
       id="path26"
       style="fill:#ffffff" />
    <path
       d="M 0,73.4 C 11.73,67.02 23.27,60.27 35.11,54.08 C 36.21,54.46 37.31,54.83 38.41,55.21 C 38.66,56.41 38.96,57.61 39.07,58.83 C 38.57,60.32 37.03,61.03 35.81,61.84 C 28.72,65.79 21.59,69.68 14.52,73.67 C 22.29,78.14 30.36,82.14 37.96,86.88 C 41.34,89.41 36.99,94.84 33.65,92.48 C 22.37,86.38 11.14,80.15 0,73.78 L 0,73.4 z"
       id="path28"
       style="fill:#010101" />
    <path
       d="M 208.19,55.18 C 208.9,54.9 210.31,54.34 211.01,54.06 C 223.05,60.26 234.73,67.17 246.64,73.62 C 235.56,79.85 224.44,86.03 213.3,92.16 C 211.64,93.47 209.72,92.8 207.95,92.18 C 207.33,90.42 206.45,87.93 208.46,86.71 C 216.12,82.18 224,77.99 231.79,73.67 C 224.4,69.57 216.99,65.5 209.62,61.36 C 208.23,60.71 207.51,59.31 206.73,58.07 C 207.22,57.11 207.71,56.15 208.19,55.18 z"
       id="path30"
       style="fill:#010101" />
    <path
       d="M 98.88,63.01 C 104.09,62.5 109.32,63.19 114.55,63.03 C 114.4,70.75 114.82,78.49 114.21,86.2 C 117.77,86.66 121.4,86.16 124.94,86.75 C 128.1,87.45 127.8,93.07 124.5,93.39 C 116.03,93.88 107.54,93.24 99.06,93.27 C 97.36,93.27 94.78,92.94 94.51,90.86 C 93.7,88.94 95.07,86.42 97.21,86.31 C 100.54,86.06 103.88,86.26 107.22,86.23 C 107.17,80.82 107.23,75.42 107.52,70.03 C 104.43,69.74 100.83,70.78 98.12,68.88 C 96.43,67.07 97.44,64.59 98.88,63.01 z"
       id="path32"
       style="fill:#010101" />
    <path
       d="M 62.45,69.6 C 69.04,66.78 77.14,72.97 75.93,80.07 C 74.43,88.99 59.66,89.76 56.46,81.64 C 54.67,76.84 57.82,71.33 62.45,69.6 z"
       id="path34"
       style="fill:#ffffff" />
    <path
       d="M 169.82,84.22 C 173.96,79.36 180.77,79.96 186.42,80.95 C 186.44,81.66 186.47,83.09 186.49,83.81 C 182.36,85.94 177.64,87.89 172.92,86.91 C 171.36,86.82 170.73,85.2 169.82,84.22 z"
       id="path36"
       style="fill:#ffffff" />
  </g>
</svg>
